# MagicaVoxel @ Ephtracy

# group
g icicle

# material
mtllib icicle.mtl
usemtl palette

# normals
vn -1 0 0
vn 1 0 0
vn 0 0 1
vn 0 0 -1
vn 0 -1 0
vn 0 1 0

# texcoords
vt 0.564453 0.5
vt 0.587891 0.5
vt 0.591797 0.5
vt 0.958984 0.5

# verts
v -3.5 0 1.5
v -3.5 0 -1.5
v -3.5 6 1.5
v -3.5 6 0.5
v -3.5 6 -0.5
v -3.5 6 -1.5
v -3.5 7 0.5
v -3.5 7 -0.5
v -2.5 0 2.5
v -2.5 0 1.5
v -2.5 0 -1.5
v -2.5 0 -2.5
v -2.5 6 2.5
v -2.5 6 1.5
v -2.5 6 0.5
v -2.5 6 -0.5
v -2.5 6 -1.5
v -2.5 6 -2.5
v -2.5 7 0.5
v -2.5 7 -0.5
v -2.5 10 1.5
v -2.5 10 0.5
v -2.5 11 1.5
v -2.5 11 0.5
v -2.5 11 -0.5
v -2.5 11 -1.5
v -2.5 12 0.5
v -2.5 12 -0.5
v -1.5 0 3.5
v -1.5 0 2.5
v -1.5 0 -2.5
v -1.5 0 -3.5
v -1.5 6 3.5
v -1.5 6 2.5
v -1.5 6 1.5
v -1.5 6 -1.5
v -1.5 6 -2.5
v -1.5 6 -3.5
v -1.5 10 2.5
v -1.5 10 1.5
v -1.5 11 2.5
v -1.5 11 1.5
v -1.5 11 0.5
v -1.5 11 -0.5
v -1.5 11 -1.5
v -1.5 11 -2.5
v -1.5 12 0.5
v -1.5 12 -0.5
v -1.5 15 1.5
v -1.5 15 0.5
v -1.5 15 -0.5
v -1.5 15 -1.5
v -1.5 16 1.5
v -1.5 16 0.5
v -1.5 16 -0.5
v -1.5 16 -1.5
v -1.5 18 0.5
v -1.5 18 -0.5
v -0.5 6 3.5
v -0.5 6 2.5
v -0.5 6 -2.5
v -0.5 6 -3.5
v -0.5 7 3.5
v -0.5 7 2.5
v -0.5 7 -2.5
v -0.5 7 -3.5
v -0.5 11 2.5
v -0.5 11 1.5
v -0.5 11 -1.5
v -0.5 11 -2.5
v -0.5 12 2.5
v -0.5 12 1.5
v -0.5 12 -1.5
v -0.5 12 -2.5
v -0.5 16 1.5
v -0.5 16 0.5
v -0.5 16 -0.5
v -0.5 16 -1.5
v -0.5 17 1.5
v -0.5 17 0.5
v -0.5 18 1.5
v -0.5 18 0.5
v -0.5 18 -0.5
v -0.5 18 -1.5
v -0.5 21 0.5
v -0.5 21 -0.5
v -0.5 23 0.5
v -0.5 23 -0.5
v 0.5 6 3.5
v 0.5 6 2.5
v 0.5 6 -2.5
v 0.5 6 -3.5
v 0.5 7 3.5
v 0.5 7 2.5
v 0.5 7 -2.5
v 0.5 7 -3.5
v 0.5 11 2.5
v 0.5 11 1.5
v 0.5 11 -1.5
v 0.5 11 -2.5
v 0.5 12 2.5
v 0.5 12 1.5
v 0.5 12 -1.5
v 0.5 12 -2.5
v 0.5 16 1.5
v 0.5 16 0.5
v 0.5 16 -0.5
v 0.5 16 -1.5
v 0.5 17 1.5
v 0.5 17 0.5
v 0.5 18 1.5
v 0.5 18 0.5
v 0.5 18 -0.5
v 0.5 18 -1.5
v 0.5 21 0.5
v 0.5 21 -0.5
v 0.5 23 0.5
v 0.5 23 -0.5
v 1.5 0 3.5
v 1.5 0 2.5
v 1.5 0 -2.5
v 1.5 0 -3.5
v 1.5 5 3.5
v 1.5 5 2.5
v 1.5 6 3.5
v 1.5 6 2.5
v 1.5 6 1.5
v 1.5 6 -1.5
v 1.5 6 -2.5
v 1.5 6 -3.5
v 1.5 7 -1.5
v 1.5 10 2.5
v 1.5 10 1.5
v 1.5 10 -1.5
v 1.5 10 -2.5
v 1.5 11 2.5
v 1.5 11 1.5
v 1.5 11 0.5
v 1.5 11 -0.5
v 1.5 11 -1.5
v 1.5 11 -2.5
v 1.5 12 0.5
v 1.5 12 -0.5
v 1.5 13 1.5
v 1.5 13 0.5
v 1.5 13 -1.5
v 1.5 15 1.5
v 1.5 15 0.5
v 1.5 15 -1.5
v 1.5 16 1.5
v 1.5 16 0.5
v 1.5 16 -0.5
v 1.5 16 -1.5
v 1.5 18 0.5
v 1.5 18 -0.5
v 2.5 0 2.5
v 2.5 0 1.5
v 2.5 0 -1.5
v 2.5 0 -2.5
v 2.5 5 2.5
v 2.5 5 1.5
v 2.5 5 -1.5
v 2.5 6 2.5
v 2.5 6 1.5
v 2.5 6 0.5
v 2.5 6 -0.5
v 2.5 6 -1.5
v 2.5 6 -2.5
v 2.5 7 0.5
v 2.5 7 -0.5
v 2.5 7 -1.5
v 2.5 10 1.5
v 2.5 10 -0.5
v 2.5 11 1.5
v 2.5 11 0.5
v 2.5 11 -0.5
v 2.5 11 -1.5
v 2.5 12 0.5
v 2.5 12 -0.5
v 3.5 0 1.5
v 3.5 0 -1.5
v 3.5 5 1.5
v 3.5 5 0.5
v 3.5 5 -0.5
v 3.5 5 -1.5
v 3.5 6 1.5
v 3.5 6 0.5
v 3.5 6 -0.5
v 3.5 6 -1.5
v 3.5 7 0.5
v 3.5 7 -0.5
v -1.5 0 3.5
v -1.5 6 3.5
v -0.5 6 3.5
v -0.5 7 3.5
v 0.5 5 3.5
v 0.5 6 3.5
v 0.5 7 3.5
v 1.5 0 3.5
v 1.5 5 3.5
v 1.5 6 3.5
v -2.5 0 2.5
v -2.5 6 2.5
v -1.5 0 2.5
v -1.5 6 2.5
v -1.5 10 2.5
v -1.5 11 2.5
v -0.5 6 2.5
v -0.5 7 2.5
v -0.5 10 2.5
v -0.5 11 2.5
v -0.5 12 2.5
v 0.5 6 2.5
v 0.5 7 2.5
v 0.5 10 2.5
v 0.5 11 2.5
v 0.5 12 2.5
v 1.5 0 2.5
v 1.5 5 2.5
v 1.5 6 2.5
v 1.5 10 2.5
v 1.5 11 2.5
v 2.5 0 2.5
v 2.5 5 2.5
v 2.5 6 2.5
v -3.5 0 1.5
v -3.5 6 1.5
v -2.5 0 1.5
v -2.5 6 1.5
v -2.5 10 1.5
v -2.5 11 1.5
v -1.5 6 1.5
v -1.5 10 1.5
v -1.5 11 1.5
v -1.5 15 1.5
v -1.5 16 1.5
v -0.5 11 1.5
v -0.5 12 1.5
v -0.5 14 1.5
v -0.5 15 1.5
v -0.5 16 1.5
v -0.5 17 1.5
v -0.5 18 1.5
v 0.5 11 1.5
v 0.5 12 1.5
v 0.5 13 1.5
v 0.5 14 1.5
v 0.5 15 1.5
v 0.5 16 1.5
v 0.5 17 1.5
v 0.5 18 1.5
v 1.5 6 1.5
v 1.5 10 1.5
v 1.5 11 1.5
v 1.5 13 1.5
v 1.5 15 1.5
v 1.5 16 1.5
v 2.5 0 1.5
v 2.5 5 1.5
v 2.5 6 1.5
v 2.5 10 1.5
v 2.5 11 1.5
v 3.5 0 1.5
v 3.5 5 1.5
v 3.5 6 1.5
v -3.5 6 0.5
v -3.5 7 0.5
v -2.5 6 0.5
v -2.5 7 0.5
v -2.5 11 0.5
v -2.5 12 0.5
v -1.5 11 0.5
v -1.5 12 0.5
v -1.5 16 0.5
v -1.5 18 0.5
v -0.5 16 0.5
v -0.5 17 0.5
v -0.5 18 0.5
v -0.5 21 0.5
v -0.5 23 0.5
v 0.5 16 0.5
v 0.5 17 0.5
v 0.5 18 0.5
v 0.5 21 0.5
v 0.5 23 0.5
v 1.5 11 0.5
v 1.5 12 0.5
v 1.5 16 0.5
v 1.5 18 0.5
v 2.5 6 0.5
v 2.5 7 0.5
v 2.5 11 0.5
v 2.5 12 0.5
v 3.5 6 0.5
v 3.5 7 0.5
v -3.5 6 -0.5
v -3.5 7 -0.5
v -2.5 6 -0.5
v -2.5 7 -0.5
v -2.5 11 -0.5
v -2.5 12 -0.5
v -1.5 11 -0.5
v -1.5 12 -0.5
v -1.5 16 -0.5
v -1.5 18 -0.5
v -0.5 16 -0.5
v -0.5 18 -0.5
v -0.5 21 -0.5
v -0.5 23 -0.5
v 0.5 16 -0.5
v 0.5 18 -0.5
v 0.5 21 -0.5
v 0.5 23 -0.5
v 1.5 11 -0.5
v 1.5 12 -0.5
v 1.5 16 -0.5
v 1.5 18 -0.5
v 2.5 6 -0.5
v 2.5 7 -0.5
v 2.5 11 -0.5
v 2.5 12 -0.5
v 3.5 6 -0.5
v 3.5 7 -0.5
v -3.5 0 -1.5
v -3.5 6 -1.5
v -2.5 0 -1.5
v -2.5 6 -1.5
v -2.5 11 -1.5
v -1.5 6 -1.5
v -1.5 11 -1.5
v -1.5 15 -1.5
v -1.5 16 -1.5
v -0.5 11 -1.5
v -0.5 12 -1.5
v -0.5 15 -1.5
v -0.5 16 -1.5
v -0.5 18 -1.5
v 0.5 11 -1.5
v 0.5 12 -1.5
v 0.5 13 -1.5
v 0.5 15 -1.5
v 0.5 16 -1.5
v 0.5 18 -1.5
v 1.5 6 -1.5
v 1.5 7 -1.5
v 1.5 10 -1.5
v 1.5 11 -1.5
v 1.5 13 -1.5
v 1.5 15 -1.5
v 1.5 16 -1.5
v 2.5 0 -1.5
v 2.5 5 -1.5
v 2.5 6 -1.5
v 2.5 7 -1.5
v 2.5 11 -1.5
v 3.5 0 -1.5
v 3.5 5 -1.5
v 3.5 6 -1.5
v -2.5 0 -2.5
v -2.5 6 -2.5
v -1.5 0 -2.5
v -1.5 6 -2.5
v -1.5 11 -2.5
v -0.5 6 -2.5
v -0.5 7 -2.5
v -0.5 11 -2.5
v -0.5 12 -2.5
v 0.5 6 -2.5
v 0.5 7 -2.5
v 0.5 10 -2.5
v 0.5 11 -2.5
v 0.5 12 -2.5
v 1.5 0 -2.5
v 1.5 6 -2.5
v 1.5 10 -2.5
v 1.5 11 -2.5
v 2.5 0 -2.5
v 2.5 6 -2.5
v -1.5 0 -3.5
v -1.5 6 -3.5
v -0.5 6 -3.5
v -0.5 7 -3.5
v 0.5 6 -3.5
v 0.5 7 -3.5
v 1.5 0 -3.5
v 1.5 6 -3.5
v -1.5 0 3.5
v 1.5 0 3.5
v -2.5 0 2.5
v -1.5 0 2.5
v 1.5 0 2.5
v 2.5 0 2.5
v -3.5 0 1.5
v -2.5 0 1.5
v 2.5 0 1.5
v 3.5 0 1.5
v -3.5 0 -1.5
v -2.5 0 -1.5
v 2.5 0 -1.5
v 3.5 0 -1.5
v -2.5 0 -2.5
v -1.5 0 -2.5
v 1.5 0 -2.5
v 2.5 0 -2.5
v -1.5 0 -3.5
v 1.5 0 -3.5
v -1.5 6 3.5
v -0.5 6 3.5
v 0.5 6 3.5
v 1.5 6 3.5
v -2.5 6 2.5
v -1.5 6 2.5
v -0.5 6 2.5
v 0.5 6 2.5
v 1.5 6 2.5
v 2.5 6 2.5
v -3.5 6 1.5
v -2.5 6 1.5
v -1.5 6 1.5
v 1.5 6 1.5
v 2.5 6 1.5
v 3.5 6 1.5
v -3.5 6 0.5
v -2.5 6 0.5
v 2.5 6 0.5
v 3.5 6 0.5
v -3.5 6 -0.5
v -2.5 6 -0.5
v 2.5 6 -0.5
v 3.5 6 -0.5
v -3.5 6 -1.5
v -2.5 6 -1.5
v -1.5 6 -1.5
v 1.5 6 -1.5
v 2.5 6 -1.5
v 3.5 6 -1.5
v -2.5 6 -2.5
v -1.5 6 -2.5
v -0.5 6 -2.5
v 0.5 6 -2.5
v 1.5 6 -2.5
v 2.5 6 -2.5
v -1.5 6 -3.5
v -0.5 6 -3.5
v 0.5 6 -3.5
v 1.5 6 -3.5
v -0.5 7 3.5
v 0.5 7 3.5
v -0.5 7 2.5
v 0.5 7 2.5
v -3.5 7 0.5
v -2.5 7 0.5
v 2.5 7 0.5
v 3.5 7 0.5
v -3.5 7 -0.5
v -2.5 7 -0.5
v 2.5 7 -0.5
v 3.5 7 -0.5
v -0.5 7 -2.5
v 0.5 7 -2.5
v -0.5 7 -3.5
v 0.5 7 -3.5
v -1.5 11 2.5
v -0.5 11 2.5
v 0.5 11 2.5
v 1.5 11 2.5
v -2.5 11 1.5
v -1.5 11 1.5
v -0.5 11 1.5
v 0.5 11 1.5
v 1.5 11 1.5
v 2.5 11 1.5
v -2.5 11 0.5
v -1.5 11 0.5
v 1.5 11 0.5
v 2.5 11 0.5
v -2.5 11 -0.5
v -1.5 11 -0.5
v 1.5 11 -0.5
v 2.5 11 -0.5
v -2.5 11 -1.5
v -1.5 11 -1.5
v -0.5 11 -1.5
v 0.5 11 -1.5
v 1.5 11 -1.5
v 2.5 11 -1.5
v -1.5 11 -2.5
v -0.5 11 -2.5
v 0.5 11 -2.5
v 1.5 11 -2.5
v -0.5 12 2.5
v 0.5 12 2.5
v -0.5 12 1.5
v 0.5 12 1.5
v -2.5 12 0.5
v -1.5 12 0.5
v 1.5 12 0.5
v 2.5 12 0.5
v -2.5 12 -0.5
v -1.5 12 -0.5
v 1.5 12 -0.5
v 2.5 12 -0.5
v -0.5 12 -1.5
v 0.5 12 -1.5
v -0.5 12 -2.5
v 0.5 12 -2.5
v -1.5 16 1.5
v -0.5 16 1.5
v 0.5 16 1.5
v 1.5 16 1.5
v -1.5 16 0.5
v -0.5 16 0.5
v 0.5 16 0.5
v 1.5 16 0.5
v -1.5 16 -0.5
v -0.5 16 -0.5
v 0.5 16 -0.5
v 1.5 16 -0.5
v -1.5 16 -1.5
v -0.5 16 -1.5
v 0.5 16 -1.5
v 1.5 16 -1.5
v -0.5 18 1.5
v 0.5 18 1.5
v -1.5 18 0.5
v -0.5 18 0.5
v 0.5 18 0.5
v 1.5 18 0.5
v -1.5 18 -0.5
v -0.5 18 -0.5
v 0.5 18 -0.5
v 1.5 18 -0.5
v -0.5 18 -1.5
v 0.5 18 -1.5
v -0.5 23 0.5
v 0.5 23 0.5
v -0.5 23 -0.5
v 0.5 23 -0.5

# faces
f 3/3/1 2/3/1 1/3/1
f 4/3/1 2/3/1 3/3/1
f 5/3/1 2/3/1 4/3/1
f 6/3/1 2/3/1 5/3/1
f 7/3/1 5/3/1 4/3/1
f 8/3/1 5/3/1 7/3/1
f 13/3/1 10/3/1 9/3/1
f 14/3/1 10/3/1 13/3/1
f 17/3/1 12/3/1 11/3/1
f 18/3/1 12/3/1 17/3/1
f 19/3/1 15/3/1 14/3/1
f 20/3/1 17/3/1 16/3/1
f 21/3/1 19/3/1 14/3/1
f 21/3/1 20/3/1 19/3/1
f 22/3/1 20/3/1 21/3/1
f 23/4/1 22/4/1 21/4/1
f 24/3/1 20/3/1 22/3/1
f 24/4/1 22/4/1 23/4/1
f 25/3/1 17/3/1 20/3/1
f 25/3/1 20/3/1 24/3/1
f 26/3/1 17/3/1 25/3/1
f 27/3/1 25/3/1 24/3/1
f 28/3/1 25/3/1 27/3/1
f 33/3/1 30/3/1 29/3/1
f 34/3/1 30/3/1 33/3/1
f 37/3/1 32/3/1 31/3/1
f 38/3/1 32/3/1 37/3/1
f 39/3/1 35/3/1 34/3/1
f 40/3/1 35/3/1 39/3/1
f 41/4/1 40/4/1 39/4/1
f 42/4/1 40/4/1 41/4/1
f 45/3/1 37/3/1 36/3/1
f 46/3/1 37/3/1 45/3/1
f 47/3/1 43/3/1 42/3/1
f 48/3/1 45/3/1 44/3/1
f 49/3/1 47/3/1 42/3/1
f 49/3/1 48/3/1 47/3/1
f 50/3/1 48/3/1 49/3/1
f 51/3/1 45/3/1 48/3/1
f 51/3/1 48/3/1 50/3/1
f 52/3/1 45/3/1 51/3/1
f 53/1/1 50/1/1 49/1/1
f 54/3/1 51/3/1 50/3/1
f 54/1/1 50/1/1 53/1/1
f 55/1/1 52/1/1 51/1/1
f 55/3/1 51/3/1 54/3/1
f 56/1/1 52/1/1 55/1/1
f 57/1/1 55/1/1 54/1/1
f 58/1/1 55/1/1 57/1/1
f 63/4/1 60/4/1 59/4/1
f 64/4/1 60/4/1 63/4/1
f 65/3/1 62/3/1 61/3/1
f 66/3/1 62/3/1 65/3/1
f 71/4/1 68/4/1 67/4/1
f 72/4/1 68/4/1 71/4/1
f 73/3/1 70/3/1 69/3/1
f 74/3/1 70/3/1 73/3/1
f 79/3/1 76/3/1 75/3/1
f 80/3/1 76/3/1 79/3/1
f 81/4/1 80/4/1 79/4/1
f 82/4/1 80/4/1 81/4/1
f 83/4/1 78/4/1 77/4/1
f 84/4/1 78/4/1 83/4/1
f 85/3/1 83/3/1 82/3/1
f 86/3/1 83/3/1 85/3/1
f 87/4/1 86/4/1 85/4/1
f 88/4/1 86/4/1 87/4/1
f 89/4/2 90/4/2 93/4/2
f 93/4/2 90/4/2 94/4/2
f 91/3/2 92/3/2 95/3/2
f 95/3/2 92/3/2 96/3/2
f 97/4/2 98/4/2 101/4/2
f 101/4/2 98/4/2 102/4/2
f 99/3/2 100/3/2 103/3/2
f 103/3/2 100/3/2 104/3/2
f 105/3/2 106/3/2 109/3/2
f 109/3/2 106/3/2 110/3/2
f 109/4/2 110/4/2 111/4/2
f 111/4/2 110/4/2 112/4/2
f 107/4/2 108/4/2 113/4/2
f 113/4/2 108/4/2 114/4/2
f 112/3/2 113/3/2 115/3/2
f 115/3/2 113/3/2 116/3/2
f 115/4/2 116/4/2 117/4/2
f 117/4/2 116/4/2 118/4/2
f 119/3/2 120/3/2 123/3/2
f 123/3/2 120/3/2 124/3/2
f 123/4/2 124/4/2 125/4/2
f 125/4/2 124/4/2 126/4/2
f 121/3/2 122/3/2 129/3/2
f 129/3/2 122/3/2 130/3/2
f 128/3/2 129/3/2 131/3/2
f 126/3/2 127/3/2 132/3/2
f 132/3/2 127/3/2 133/3/2
f 131/3/2 129/3/2 134/3/2
f 134/3/2 129/3/2 135/3/2
f 132/1/2 133/1/2 136/1/2
f 136/1/2 133/1/2 137/1/2
f 134/4/2 135/4/2 140/4/2
f 140/4/2 135/4/2 141/4/2
f 137/3/2 138/3/2 142/3/2
f 139/4/2 140/4/2 143/4/2
f 137/3/2 142/3/2 144/3/2
f 142/4/2 143/4/2 145/4/2
f 144/3/2 142/3/2 145/3/2
f 143/4/2 140/4/2 146/4/2
f 145/4/2 143/4/2 146/4/2
f 144/2/2 145/2/2 147/2/2
f 145/3/2 146/3/2 148/3/2
f 147/2/2 145/2/2 148/2/2
f 148/3/2 146/3/2 149/3/2
f 147/1/2 148/1/2 150/1/2
f 148/4/2 149/4/2 151/4/2
f 150/1/2 148/1/2 151/1/2
f 151/4/2 149/4/2 152/4/2
f 152/4/2 149/4/2 153/4/2
f 151/4/2 152/4/2 154/4/2
f 154/4/2 152/4/2 155/4/2
f 156/3/2 157/3/2 160/3/2
f 160/3/2 157/3/2 161/3/2
f 158/3/2 159/3/2 162/3/2
f 160/4/2 161/4/2 163/4/2
f 163/4/2 161/4/2 164/4/2
f 162/3/2 159/3/2 167/3/2
f 167/3/2 159/3/2 168/3/2
f 164/3/2 165/3/2 169/3/2
f 166/3/2 167/3/2 170/3/2
f 170/3/2 167/3/2 171/3/2
f 164/3/2 169/3/2 172/3/2
f 169/3/2 170/3/2 172/3/2
f 170/4/2 171/4/2 173/4/2
f 172/3/2 170/3/2 173/3/2
f 172/1/2 173/1/2 174/1/2
f 174/1/2 173/1/2 175/1/2
f 173/4/2 171/4/2 176/4/2
f 175/1/2 173/1/2 176/1/2
f 176/4/2 171/4/2 177/4/2
f 175/1/2 176/1/2 178/1/2
f 178/1/2 176/1/2 179/1/2
f 180/3/2 181/3/2 182/3/2
f 182/3/2 181/3/2 183/3/2
f 183/3/2 181/3/2 184/3/2
f 184/3/2 181/3/2 185/3/2
f 182/4/2 183/4/2 186/4/2
f 183/3/2 184/3/2 187/3/2
f 186/4/2 183/4/2 187/4/2
f 184/1/2 185/1/2 188/1/2
f 187/3/2 184/3/2 188/3/2
f 188/1/2 185/1/2 189/1/2
f 187/1/2 188/1/2 190/1/2
f 190/1/2 188/1/2 191/1/2
f 194/3/3 193/3/3 192/3/3
f 196/3/3 194/3/3 192/3/3
f 197/4/3 195/4/3 194/4/3
f 197/3/3 194/3/3 196/3/3
f 198/4/3 195/4/3 197/4/3
f 199/3/3 196/3/3 192/3/3
f 200/4/3 197/4/3 196/4/3
f 200/3/3 196/3/3 199/3/3
f 201/4/3 197/4/3 200/4/3
f 204/3/3 203/3/3 202/3/3
f 205/3/3 203/3/3 204/3/3
f 208/3/3 206/3/3 205/3/3
f 209/3/3 206/3/3 208/3/3
f 210/4/3 207/4/3 206/4/3
f 210/3/3 206/3/3 209/3/3
f 211/4/3 207/4/3 210/4/3
f 214/3/3 210/3/3 209/3/3
f 214/3/3 211/3/3 210/3/3
f 215/3/3 211/3/3 214/3/3
f 216/4/3 212/4/3 211/4/3
f 216/3/3 211/3/3 215/3/3
f 217/4/3 212/4/3 216/4/3
f 220/3/3 215/3/3 214/3/3
f 220/3/3 214/3/3 213/3/3
f 221/1/3 216/1/3 215/1/3
f 221/3/3 215/3/3 220/3/3
f 222/1/3 216/1/3 221/1/3
f 223/3/3 219/3/3 218/3/3
f 224/4/3 220/4/3 219/4/3
f 224/3/3 219/3/3 223/3/3
f 225/4/3 220/4/3 224/4/3
f 228/3/3 227/3/3 226/3/3
f 229/3/3 227/3/3 228/3/3
f 232/3/3 230/3/3 229/3/3
f 233/4/3 231/4/3 230/4/3
f 233/3/3 230/3/3 232/3/3
f 234/4/3 231/4/3 233/4/3
f 237/3/3 235/3/3 234/3/3
f 238/3/3 235/3/3 237/3/3
f 239/3/3 235/3/3 238/3/3
f 240/1/3 236/1/3 235/1/3
f 240/3/3 235/3/3 239/3/3
f 241/1/3 236/1/3 240/1/3
f 245/4/3 239/4/3 238/4/3
f 246/4/3 239/4/3 245/4/3
f 247/3/3 242/3/3 241/3/3
f 247/4/3 239/4/3 246/4/3
f 247/3/3 240/3/3 239/3/3
f 247/3/3 241/3/3 240/3/3
f 248/3/3 242/3/3 247/3/3
f 249/3/3 242/3/3 248/3/3
f 250/4/3 243/4/3 242/4/3
f 250/3/3 242/3/3 249/3/3
f 251/4/3 243/4/3 250/4/3
f 254/3/3 246/3/3 245/3/3
f 254/3/3 245/3/3 244/3/3
f 255/2/3 247/2/3 246/2/3
f 255/2/3 248/2/3 247/2/3
f 255/3/3 246/3/3 254/3/3
f 256/1/3 249/1/3 248/1/3
f 256/2/3 248/2/3 255/2/3
f 257/1/3 249/1/3 256/1/3
f 260/3/3 253/3/3 252/3/3
f 261/1/3 254/1/3 253/1/3
f 261/3/3 253/3/3 260/3/3
f 262/1/3 254/1/3 261/1/3
f 263/3/3 259/3/3 258/3/3
f 264/4/3 260/4/3 259/4/3
f 264/3/3 259/3/3 263/3/3
f 265/4/3 260/4/3 264/4/3
f 268/3/3 267/3/3 266/3/3
f 269/3/3 267/3/3 268/3/3
f 272/3/3 271/3/3 270/3/3
f 273/3/3 271/3/3 272/3/3
f 276/1/3 275/1/3 274/1/3
f 277/1/3 275/1/3 276/1/3
f 278/1/3 275/1/3 277/1/3
f 283/3/3 279/3/3 278/3/3
f 284/4/3 280/4/3 279/4/3
f 284/3/3 279/3/3 283/3/3
f 285/4/3 280/4/3 284/4/3
f 288/4/3 283/4/3 282/4/3
f 288/4/3 282/4/3 281/4/3
f 289/4/3 283/4/3 288/4/3
f 292/1/3 287/1/3 286/1/3
f 293/1/3 287/1/3 292/1/3
f 294/1/3 291/1/3 290/1/3
f 295/1/3 291/1/3 294/1/3
f 296/3/4 297/3/4 298/3/4
f 298/3/4 297/3/4 299/3/4
f 300/3/4 301/3/4 302/3/4
f 302/3/4 301/3/4 303/3/4
f 304/1/4 305/1/4 306/1/4
f 306/1/4 305/1/4 307/1/4
f 307/3/4 308/3/4 311/3/4
f 308/4/4 309/4/4 312/4/4
f 311/3/4 308/3/4 312/3/4
f 312/4/4 309/4/4 313/4/4
f 310/4/4 311/4/4 316/4/4
f 316/4/4 311/4/4 317/4/4
f 314/1/4 315/1/4 320/1/4
f 320/1/4 315/1/4 321/1/4
f 318/1/4 319/1/4 322/1/4
f 322/1/4 319/1/4 323/1/4
f 324/3/4 325/3/4 326/3/4
f 326/3/4 325/3/4 327/3/4
f 327/3/4 328/3/4 329/3/4
f 329/3/4 328/3/4 330/3/4
f 330/3/4 331/3/4 333/3/4
f 333/3/4 331/3/4 334/3/4
f 331/1/4 332/1/4 335/1/4
f 334/3/4 331/3/4 335/3/4
f 335/1/4 332/1/4 336/1/4
f 334/3/4 335/3/4 339/3/4
f 335/3/4 336/3/4 339/3/4
f 339/3/4 336/3/4 340/3/4
f 340/3/4 336/3/4 341/3/4
f 336/4/4 337/4/4 342/4/4
f 341/3/4 336/3/4 342/3/4
f 342/4/4 337/4/4 343/4/4
f 338/4/4 339/4/4 347/4/4
f 339/4/4 340/4/4 347/4/4
f 340/3/4 341/3/4 348/3/4
f 347/4/4 340/4/4 348/4/4
f 341/4/4 342/4/4 349/4/4
f 348/3/4 341/3/4 349/3/4
f 349/4/4 342/4/4 350/4/4
f 344/3/4 345/3/4 353/3/4
f 346/4/4 347/4/4 354/4/4
f 345/4/4 346/4/4 354/4/4
f 353/3/4 345/3/4 354/3/4
f 354/4/4 347/4/4 355/4/4
f 351/3/4 352/3/4 356/3/4
f 352/1/4 353/1/4 357/1/4
f 356/3/4 352/3/4 357/3/4
f 357/1/4 353/1/4 358/1/4
f 359/3/4 360/3/4 361/3/4
f 361/3/4 360/3/4 362/3/4
f 362/3/4 363/3/4 364/3/4
f 364/3/4 363/3/4 365/3/4
f 365/3/4 363/3/4 366/3/4
f 366/3/4 367/3/4 369/3/4
f 365/3/4 366/3/4 369/3/4
f 369/3/4 367/3/4 370/3/4
f 370/3/4 367/3/4 371/3/4
f 371/3/4 367/3/4 372/3/4
f 368/3/4 369/3/4 374/3/4
f 369/3/4 370/3/4 374/3/4
f 370/4/4 371/4/4 375/4/4
f 374/3/4 370/3/4 375/3/4
f 375/4/4 371/4/4 376/4/4
f 373/3/4 374/3/4 377/3/4
f 377/3/4 374/3/4 378/3/4
f 379/3/4 380/3/4 381/3/4
f 379/3/4 381/3/4 383/3/4
f 381/3/4 382/3/4 383/3/4
f 383/3/4 382/3/4 384/3/4
f 379/3/4 383/3/4 385/3/4
f 385/3/4 383/3/4 386/3/4
f 390/3/5 388/3/5 387/3/5
f 391/3/5 388/3/5 390/3/5
f 394/3/5 390/3/5 389/3/5
f 394/3/5 392/3/5 391/3/5
f 394/3/5 391/3/5 390/3/5
f 395/3/5 392/3/5 394/3/5
f 397/3/5 394/3/5 393/3/5
f 397/3/5 396/3/5 395/3/5
f 397/3/5 395/3/5 394/3/5
f 398/3/5 396/3/5 397/3/5
f 399/3/5 396/3/5 398/3/5
f 400/3/5 396/3/5 399/3/5
f 401/3/5 399/3/5 398/3/5
f 402/3/5 399/3/5 401/3/5
f 403/3/5 399/3/5 402/3/5
f 404/3/5 399/3/5 403/3/5
f 405/3/5 403/3/5 402/3/5
f 406/3/5 403/3/5 405/3/5
f 407/3/6 408/3/6 412/3/6
f 412/3/6 408/3/6 413/3/6
f 409/4/6 410/4/6 414/4/6
f 414/4/6 410/4/6 415/4/6
f 411/3/6 412/3/6 418/3/6
f 418/3/6 412/3/6 419/3/6
f 415/4/6 416/4/6 420/4/6
f 420/4/6 416/4/6 421/4/6
f 417/3/6 418/3/6 423/3/6
f 423/3/6 418/3/6 424/3/6
f 421/4/6 422/4/6 425/4/6
f 425/4/6 422/4/6 426/4/6
f 427/3/6 428/3/6 431/3/6
f 431/3/6 428/3/6 432/3/6
f 429/1/6 430/1/6 435/1/6
f 435/1/6 430/1/6 436/1/6
f 432/3/6 433/3/6 437/3/6
f 437/3/6 433/3/6 438/3/6
f 434/3/6 435/3/6 441/3/6
f 441/3/6 435/3/6 442/3/6
f 438/3/6 439/3/6 443/3/6
f 443/3/6 439/3/6 444/3/6
f 440/3/6 441/3/6 445/3/6
f 445/3/6 441/3/6 446/3/6
f 447/4/6 448/4/6 449/4/6
f 449/4/6 448/4/6 450/4/6
f 451/3/6 452/3/6 455/3/6
f 455/3/6 452/3/6 456/3/6
f 453/1/6 454/1/6 457/1/6
f 457/1/6 454/1/6 458/1/6
f 459/3/6 460/3/6 461/3/6
f 461/3/6 460/3/6 462/3/6
f 463/4/6 464/4/6 468/4/6
f 468/4/6 464/4/6 469/4/6
f 465/1/6 466/1/6 470/1/6
f 470/1/6 466/1/6 471/1/6
f 467/4/6 468/4/6 473/4/6
f 473/4/6 468/4/6 474/4/6
f 471/1/6 472/1/6 475/1/6
f 475/1/6 472/1/6 476/1/6
f 477/3/6 478/3/6 481/3/6
f 481/3/6 478/3/6 482/3/6
f 479/4/6 480/4/6 485/4/6
f 485/4/6 480/4/6 486/4/6
f 482/3/6 483/3/6 487/3/6
f 487/3/6 483/3/6 488/3/6
f 484/4/6 485/4/6 489/4/6
f 489/4/6 485/4/6 490/4/6
f 491/4/6 492/4/6 493/4/6
f 493/4/6 492/4/6 494/4/6
f 495/3/6 496/3/6 499/3/6
f 499/3/6 496/3/6 500/3/6
f 497/1/6 498/1/6 501/1/6
f 501/1/6 498/1/6 502/1/6
f 503/3/6 504/3/6 505/3/6
f 505/3/6 504/3/6 506/3/6
f 507/1/6 508/1/6 511/1/6
f 511/1/6 508/1/6 512/1/6
f 509/1/6 510/1/6 513/1/6
f 513/1/6 510/1/6 514/1/6
f 515/1/6 516/1/6 519/1/6
f 519/1/6 516/1/6 520/1/6
f 517/4/6 518/4/6 521/4/6
f 521/4/6 518/4/6 522/4/6
f 523/4/6 524/4/6 526/4/6
f 526/4/6 524/4/6 527/4/6
f 525/1/6 526/1/6 529/1/6
f 529/1/6 526/1/6 530/1/6
f 527/4/6 528/4/6 531/4/6
f 531/4/6 528/4/6 532/4/6
f 530/4/6 531/4/6 533/4/6
f 533/4/6 531/4/6 534/4/6
f 535/4/6 536/4/6 537/4/6
f 537/4/6 536/4/6 538/4/6
