# MagicaVoxel @ Ephtracy

# group
g juingong

# material
mtllib juingong.mtl
usemtl palette

# normals
vn -1 0 0
vn 1 0 0
vn 0 0 1
vn 0 0 -1
vn 0 -1 0
vn 0 1 0

# texcoords
vt 0.00195313 0.5
vt 0.0332031 0.5
vt 0.0605469 0.5
vt 0.115234 0.5
vt 0.142578 0.5
vt 0.154297 0.5
vt 0.396484 0.5
vt 0.435547 0.5
vt 0.521484 0.5
vt 0.560547 0.5
vt 0.591797 0.5
vt 0.611328 0.5
vt 0.634766 0.5
vt 0.646484 0.5
vt 0.716797 0.5
vt 0.779297 0.5
vt 0.876953 0.5
vt 0.994141 0.5

# verts
v -6 5 0.5
v -6 5 -0.5
v -6 6 0.5
v -6 6 -0.5
v -4 8 2.5
v -4 8 -2.5
v -4 11 1.5
v -4 11 -1.5
v -4 12 2.5
v -4 12 1.5
v -4 12 -1.5
v -4 12 -2.5
v -3 1 2.5
v -3 1 -2.5
v -3 2 2.5
v -3 2 -2.5
v -3 3 2.5
v -3 3 -2.5
v -3 5 0.5
v -3 5 -0.5
v -3 6 0.5
v -3 6 -0.5
v -3 7 2.5
v -3 7 -2.5
v -3 8 2.5
v -3 8 -2.5
v -3 8 -3.5
v -3 9 3.5
v -3 9 2.5
v -3 10 3.5
v -3 10 2.5
v -3 12 3.5
v -3 12 2.5
v -3 12 1.5
v -3 12 -1.5
v -3 12 -2.5
v -3 12 -3.5
v -3 13 2.5
v -3 13 -2.5
v -2 0 0.5
v -2 0 -0.5
v -2 1 0.5
v -2 1 -0.5
v -2 13 1.5
v -2 13 -1.5
v -2 14 1.5
v -2 14 -1.5
v -1 12 3.5
v -1 12 2.5
v -1 13 3.5
v -1 13 2.5
v 1 0 0.5
v 1 0 -0.5
v 1 1 0.5
v 1 1 -0.5
v 1 9 3.5
v 1 9 2.5
v 1 10 3.5
v 1 10 2.5
v -1 0 0.5
v -1 0 -0.5
v -1 1 0.5
v -1 1 -0.5
v -1 9 3.5
v -1 9 2.5
v -1 10 3.5
v -1 10 2.5
v -1 11 3.5
v -1 11 2.5
v 1 11 3.5
v 1 11 2.5
v 1 12 2.5
v 1 13 3.5
v 1 13 2.5
v 1 13 1.5
v 1 13 0.5
v 1 14 1.5
v 1 14 0.5
v 2 0 0.5
v 2 0 -0.5
v 2 1 0.5
v 2 1 -0.5
v 2 13 0.5
v 2 13 -1.5
v 2 14 0.5
v 2 14 -1.5
v 3 1 2.5
v 3 1 -2.5
v 3 2 2.5
v 3 2 -2.5
v 3 3 2.5
v 3 3 -2.5
v 3 5 0.5
v 3 5 -0.5
v 3 6 0.5
v 3 6 -0.5
v 3 7 2.5
v 3 7 -2.5
v 3 8 -2.5
v 3 8 -3.5
v 3 9 3.5
v 3 9 2.5
v 3 9 1.5
v 3 9 0.5
v 3 9 -2.5
v 3 10 3.5
v 3 10 2.5
v 3 10 1.5
v 3 10 0.5
v 3 12 2.5
v 3 12 1.5
v 3 12 -1.5
v 3 12 -2.5
v 3 12 -3.5
v 3 13 2.5
v 3 13 -2.5
v 4 9 2.5
v 4 9 1.5
v 4 9 0.5
v 4 9 -2.5
v 4 10 1.5
v 4 10 0.5
v 4 11 1.5
v 4 11 -1.5
v 4 12 2.5
v 4 12 1.5
v 4 12 -1.5
v 4 12 -2.5
v 6 5 0.5
v 6 5 -0.5
v 6 6 0.5
v 6 6 -0.5
v -3 9 3.5
v -3 10 3.5
v -3 12 3.5
v -2 9 3.5
v -2 10 3.5
v -2 11 3.5
v -2 12 3.5
v -1 9 3.5
v -1 10 3.5
v -1 11 3.5
v -1 12 3.5
v -1 13 3.5
v 0 12 3.5
v 0 13 3.5
v 1 9 3.5
v 1 10 3.5
v 1 11 3.5
v 1 13 3.5
v 2 9 3.5
v 2 10 3.5
v 3 9 3.5
v 3 10 3.5
v -4 8 2.5
v -4 12 2.5
v -3 1 2.5
v -3 2 2.5
v -3 3 2.5
v -3 7 2.5
v -3 8 2.5
v -3 9 2.5
v -3 10 2.5
v -3 12 2.5
v -3 13 2.5
v -2 5 2.5
v -2 6 2.5
v -2 7 2.5
v -2 8 2.5
v -2 9 2.5
v -2 12 2.5
v -1 1 2.5
v -1 2 2.5
v -1 3 2.5
v -1 4 2.5
v -1 5 2.5
v -1 6 2.5
v -1 7 2.5
v -1 8 2.5
v -1 9 2.5
v -1 10 2.5
v -1 11 2.5
v -1 12 2.5
v -1 13 2.5
v 0 1 2.5
v 0 2 2.5
v 0 7 2.5
v 0 8 2.5
v 1 2 2.5
v 1 3 2.5
v 1 4 2.5
v 1 5 2.5
v 1 6 2.5
v 1 7 2.5
v 1 8 2.5
v 1 9 2.5
v 1 10 2.5
v 1 11 2.5
v 1 12 2.5
v 1 13 2.5
v 2 1 2.5
v 2 2 2.5
v 2 3 2.5
v 2 5 2.5
v 2 6 2.5
v 2 7 2.5
v 2 8 2.5
v 2 9 2.5
v 2 10 2.5
v 2 11 2.5
v 2 12 2.5
v 3 1 2.5
v 3 2 2.5
v 3 3 2.5
v 3 7 2.5
v 3 9 2.5
v 3 10 2.5
v 3 11 2.5
v 3 12 2.5
v 3 13 2.5
v 4 9 2.5
v 4 12 2.5
v -2 13 1.5
v -2 14 1.5
v 1 13 1.5
v 1 14 1.5
v -6 5 0.5
v -6 6 0.5
v -5 5 0.5
v -5 6 0.5
v -3 5 0.5
v -3 6 0.5
v -2 0 0.5
v -2 1 0.5
v -1 0 0.5
v -1 1 0.5
v 1 0 0.5
v 1 1 0.5
v 1 13 0.5
v 1 14 0.5
v 2 0 0.5
v 2 1 0.5
v 2 13 0.5
v 2 14 0.5
v 3 5 0.5
v 3 6 0.5
v 3 9 0.5
v 3 10 0.5
v 4 9 0.5
v 4 10 0.5
v 5 5 0.5
v 5 6 0.5
v 6 5 0.5
v 6 6 0.5
v 3 9 1.5
v 3 10 1.5
v 4 9 1.5
v 4 10 1.5
v -6 5 -0.5
v -6 6 -0.5
v -5 5 -0.5
v -5 6 -0.5
v -3 5 -0.5
v -3 6 -0.5
v -2 0 -0.5
v -2 1 -0.5
v -1 0 -0.5
v -1 1 -0.5
v 1 0 -0.5
v 1 1 -0.5
v 2 0 -0.5
v 2 1 -0.5
v 3 5 -0.5
v 3 6 -0.5
v 5 5 -0.5
v 5 6 -0.5
v 6 5 -0.5
v 6 6 -0.5
v -2 13 -1.5
v -2 14 -1.5
v 2 13 -1.5
v 2 14 -1.5
v -4 8 -2.5
v -4 12 -2.5
v -3 1 -2.5
v -3 2 -2.5
v -3 3 -2.5
v -3 7 -2.5
v -3 8 -2.5
v -3 12 -2.5
v -3 13 -2.5
v -2 7 -2.5
v -2 8 -2.5
v 3 1 -2.5
v 3 2 -2.5
v 3 3 -2.5
v 3 7 -2.5
v 3 8 -2.5
v 3 9 -2.5
v 3 12 -2.5
v 3 13 -2.5
v 4 9 -2.5
v 4 12 -2.5
v -3 8 -3.5
v -3 12 -3.5
v 3 8 -3.5
v 3 12 -3.5
v -2 0 0.5
v -1 0 0.5
v 1 0 0.5
v 2 0 0.5
v -2 0 -0.5
v -1 0 -0.5
v 1 0 -0.5
v 2 0 -0.5
v -3 1 2.5
v -1 1 2.5
v 0 1 2.5
v 2 1 2.5
v 3 1 2.5
v -2 1 1.5
v -1 1 1.5
v 0 1 1.5
v 2 1 1.5
v -2 1 0.5
v -1 1 0.5
v 1 1 0.5
v 2 1 0.5
v -2 1 -0.5
v -1 1 -0.5
v 1 1 -0.5
v 2 1 -0.5
v -2 1 -1.5
v 2 1 -1.5
v -3 1 -2.5
v 3 1 -2.5
v -6 5 0.5
v -5 5 0.5
v -3 5 0.5
v 3 5 0.5
v 5 5 0.5
v 6 5 0.5
v -6 5 -0.5
v -5 5 -0.5
v -3 5 -0.5
v 3 5 -0.5
v 5 5 -0.5
v 6 5 -0.5
v -4 8 2.5
v -3 8 2.5
v -4 8 -2.5
v -3 8 -2.5
v -2 8 -2.5
v 3 8 -2.5
v -3 8 -3.5
v 3 8 -3.5
v -3 9 3.5
v -2 9 3.5
v -1 9 3.5
v 1 9 3.5
v 2 9 3.5
v 3 9 3.5
v -3 9 2.5
v -2 9 2.5
v -1 9 2.5
v 1 9 2.5
v 2 9 2.5
v 3 9 2.5
v 4 9 2.5
v 3 9 1.5
v 4 9 1.5
v 3 9 0.5
v 4 9 0.5
v 3 9 -2.5
v 4 9 -2.5
v 3 10 1.5
v 4 10 1.5
v 3 10 0.5
v 4 10 0.5
v -1 11 3.5
v 1 11 3.5
v -1 11 2.5
v 1 11 2.5
v -6 6 0.5
v -5 6 0.5
v -3 6 0.5
v 3 6 0.5
v 5 6 0.5
v 6 6 0.5
v -6 6 -0.5
v -5 6 -0.5
v -3 6 -0.5
v 3 6 -0.5
v 5 6 -0.5
v 6 6 -0.5
v 1 10 3.5
v 2 10 3.5
v 3 10 3.5
v 1 10 2.5
v 2 10 2.5
v 3 10 2.5
v -3 12 3.5
v -2 12 3.5
v -1 12 3.5
v -4 12 2.5
v -3 12 2.5
v -2 12 2.5
v -1 12 2.5
v 3 12 2.5
v 4 12 2.5
v -4 12 1.5
v -3 12 1.5
v 3 12 1.5
v 4 12 1.5
v -4 12 -1.5
v -3 12 -1.5
v 3 12 -1.5
v 4 12 -1.5
v -4 12 -2.5
v -3 12 -2.5
v 3 12 -2.5
v 4 12 -2.5
v -3 12 -3.5
v 3 12 -3.5
v -1 13 3.5
v 0 13 3.5
v 1 13 3.5
v -3 13 2.5
v -1 13 2.5
v 0 13 2.5
v 1 13 2.5
v 3 13 2.5
v -2 13 1.5
v 1 13 1.5
v 1 13 0.5
v 2 13 0.5
v -2 13 -1.5
v 2 13 -1.5
v -3 13 -2.5
v 3 13 -2.5
v -2 14 1.5
v 1 14 1.5
v 1 14 0.5
v 2 14 0.5
v -2 14 -1.5
v 2 14 -1.5

# faces
f 3/8/1 2/8/1 1/8/1
f 4/8/1 2/8/1 3/8/1
f 7/15/1 6/15/1 5/15/1
f 8/15/1 6/15/1 7/15/1
f 9/15/1 7/15/1 5/15/1
f 10/16/1 8/16/1 7/16/1
f 10/15/1 7/15/1 9/15/1
f 11/15/1 6/15/1 8/15/1
f 11/16/1 8/16/1 10/16/1
f 12/15/1 6/15/1 11/15/1
f 15/4/1 14/4/1 13/4/1
f 16/4/1 14/4/1 15/4/1
f 17/10/1 16/10/1 15/10/1
f 18/10/1 16/10/1 17/10/1
f 19/4/1 18/4/1 17/4/1
f 20/4/1 18/4/1 19/4/1
f 21/4/1 19/4/1 17/4/1
f 22/4/1 18/4/1 20/4/1
f 23/4/1 21/4/1 17/4/1
f 23/4/1 22/4/1 21/4/1
f 24/4/1 18/4/1 22/4/1
f 24/4/1 22/4/1 23/4/1
f 25/3/1 24/3/1 23/3/1
f 26/3/1 24/3/1 25/3/1
f 30/11/1 29/11/1 28/11/1
f 31/11/1 29/11/1 30/11/1
f 32/15/1 31/15/1 30/15/1
f 33/15/1 31/15/1 32/15/1
f 36/15/1 27/15/1 26/15/1
f 37/15/1 27/15/1 36/15/1
f 38/15/1 35/15/1 34/15/1
f 38/15/1 36/15/1 35/15/1
f 38/15/1 34/15/1 33/15/1
f 39/15/1 36/15/1 38/15/1
f 42/17/1 41/17/1 40/17/1
f 43/17/1 41/17/1 42/17/1
f 46/15/1 45/15/1 44/15/1
f 47/15/1 45/15/1 46/15/1
f 50/16/1 49/16/1 48/16/1
f 51/16/1 49/16/1 50/16/1
f 54/17/1 53/17/1 52/17/1
f 55/17/1 53/17/1 54/17/1
f 58/7/1 57/7/1 56/7/1
f 59/7/1 57/7/1 58/7/1
f 60/17/2 61/17/2 62/17/2
f 62/17/2 61/17/2 63/17/2
f 64/7/2 65/7/2 66/7/2
f 66/7/2 65/7/2 67/7/2
f 66/15/2 67/15/2 68/15/2
f 68/15/2 67/15/2 69/15/2
f 70/15/2 71/15/2 72/15/2
f 70/15/2 72/15/2 73/15/2
f 73/15/2 72/15/2 74/15/2
f 75/15/2 76/15/2 77/15/2
f 77/15/2 76/15/2 78/15/2
f 79/17/2 80/17/2 81/17/2
f 81/17/2 80/17/2 82/17/2
f 83/15/2 84/15/2 85/15/2
f 85/15/2 84/15/2 86/15/2
f 87/4/2 88/4/2 89/4/2
f 89/4/2 88/4/2 90/4/2
f 89/10/2 90/10/2 91/10/2
f 91/10/2 90/10/2 92/10/2
f 91/4/2 92/4/2 93/4/2
f 93/4/2 92/4/2 94/4/2
f 91/4/2 93/4/2 95/4/2
f 94/4/2 92/4/2 96/4/2
f 91/4/2 95/4/2 97/4/2
f 95/4/2 96/4/2 97/4/2
f 96/4/2 92/4/2 98/4/2
f 97/4/2 96/4/2 98/4/2
f 97/2/2 98/2/2 99/2/2
f 97/2/2 99/2/2 102/2/2
f 102/2/2 99/2/2 103/2/2
f 103/2/2 99/2/2 104/2/2
f 99/15/2 100/15/2 105/15/2
f 104/2/2 99/2/2 105/2/2
f 101/11/2 102/11/2 106/11/2
f 106/11/2 102/11/2 107/11/2
f 103/2/2 104/2/2 108/2/2
f 108/2/2 104/2/2 109/2/2
f 105/15/2 100/15/2 113/15/2
f 113/15/2 100/15/2 114/15/2
f 110/15/2 111/15/2 115/15/2
f 111/15/2 112/15/2 115/15/2
f 112/15/2 113/15/2 115/15/2
f 115/15/2 113/15/2 116/15/2
f 117/15/2 118/15/2 121/15/2
f 119/15/2 120/15/2 122/15/2
f 117/15/2 121/15/2 123/15/2
f 121/15/2 122/15/2 123/15/2
f 122/15/2 120/15/2 124/15/2
f 123/15/2 122/15/2 124/15/2
f 117/15/2 123/15/2 125/15/2
f 123/16/2 124/16/2 126/16/2
f 125/15/2 123/15/2 126/15/2
f 124/15/2 120/15/2 127/15/2
f 126/16/2 124/16/2 127/16/2
f 127/15/2 120/15/2 128/15/2
f 129/8/2 130/8/2 131/8/2
f 131/8/2 130/8/2 132/8/2
f 136/11/3 134/11/3 133/11/3
f 137/15/3 135/15/3 134/15/3
f 137/11/3 134/11/3 136/11/3
f 138/15/3 135/15/3 137/15/3
f 139/15/3 135/15/3 138/15/3
f 140/7/3 137/7/3 136/7/3
f 141/15/3 138/15/3 137/15/3
f 141/7/3 137/7/3 140/7/3
f 142/16/3 139/16/3 138/16/3
f 142/15/3 138/15/3 141/15/3
f 143/16/3 139/16/3 142/16/3
f 145/15/3 143/15/3 142/15/3
f 145/16/3 144/16/3 143/16/3
f 146/16/3 144/16/3 145/16/3
f 149/15/3 145/15/3 142/15/3
f 149/15/3 146/15/3 145/15/3
f 150/15/3 146/15/3 149/15/3
f 151/7/3 148/7/3 147/7/3
f 152/7/3 148/7/3 151/7/3
f 153/11/3 152/11/3 151/11/3
f 154/11/3 152/11/3 153/11/3
f 161/15/3 156/15/3 155/15/3
f 162/15/3 156/15/3 161/15/3
f 163/15/3 156/15/3 162/15/3
f 164/15/3 156/15/3 163/15/3
f 166/4/3 160/4/3 159/4/3
f 167/4/3 160/4/3 166/4/3
f 168/3/3 161/3/3 160/3/3
f 168/4/3 160/4/3 167/4/3
f 168/3/3 162/3/3 161/3/3
f 169/3/3 162/3/3 168/3/3
f 170/3/3 162/3/3 169/3/3
f 171/15/3 165/15/3 164/15/3
f 172/4/3 158/4/3 157/4/3
f 173/10/3 159/10/3 158/10/3
f 173/4/3 158/4/3 172/4/3
f 174/4/3 166/4/3 159/4/3
f 174/10/3 159/10/3 173/10/3
f 175/4/3 166/4/3 174/4/3
f 176/5/3 167/5/3 166/5/3
f 176/4/3 166/4/3 175/4/3
f 177/1/3 168/1/3 167/1/3
f 177/5/3 167/5/3 176/5/3
f 178/3/3 169/3/3 168/3/3
f 178/1/3 168/1/3 177/1/3
f 179/18/3 170/18/3 169/18/3
f 179/3/3 169/3/3 178/3/3
f 180/18/3 170/18/3 179/18/3
f 183/15/3 165/15/3 171/15/3
f 184/15/3 165/15/3 183/15/3
f 185/11/3 173/11/3 172/11/3
f 186/17/3 174/17/3 173/17/3
f 186/11/3 173/11/3 185/11/3
f 187/3/3 178/3/3 177/3/3
f 187/3/3 179/3/3 178/3/3
f 188/2/3 182/2/3 181/2/3
f 188/3/3 179/3/3 187/3/3
f 188/2/3 180/2/3 179/2/3
f 188/2/3 181/2/3 180/2/3
f 189/17/3 174/17/3 186/17/3
f 189/6/3 186/6/3 185/6/3
f 190/11/3 175/11/3 174/11/3
f 190/17/3 174/17/3 189/17/3
f 191/5/3 176/5/3 175/5/3
f 191/11/3 175/11/3 190/11/3
f 191/5/3 177/5/3 176/5/3
f 192/5/3 177/5/3 191/5/3
f 193/3/3 187/3/3 177/3/3
f 193/5/3 177/5/3 192/5/3
f 194/2/3 188/2/3 187/2/3
f 194/3/3 187/3/3 193/3/3
f 195/2/3 182/2/3 188/2/3
f 195/2/3 188/2/3 194/2/3
f 196/2/3 182/2/3 195/2/3
f 197/2/3 182/2/3 196/2/3
f 198/2/3 182/2/3 197/2/3
f 201/6/3 189/6/3 185/6/3
f 202/10/3 190/10/3 189/10/3
f 202/6/3 189/6/3 201/6/3
f 203/6/3 192/6/3 191/6/3
f 203/10/3 190/10/3 202/10/3
f 203/6/3 191/6/3 190/6/3
f 204/5/3 193/5/3 192/5/3
f 204/6/3 192/6/3 203/6/3
f 205/1/3 194/1/3 193/1/3
f 205/5/3 193/5/3 204/5/3
f 206/2/3 195/2/3 194/2/3
f 206/1/3 194/1/3 205/1/3
f 207/18/3 196/18/3 195/18/3
f 207/2/3 195/2/3 206/2/3
f 208/18/3 196/18/3 207/18/3
f 209/2/3 198/2/3 197/2/3
f 210/1/3 199/1/3 198/1/3
f 210/2/3 198/2/3 209/2/3
f 211/15/3 200/15/3 199/15/3
f 211/1/3 199/1/3 210/1/3
f 212/4/3 202/4/3 201/4/3
f 213/10/3 203/10/3 202/10/3
f 213/4/3 202/4/3 212/4/3
f 214/4/3 204/4/3 203/4/3
f 214/10/3 203/10/3 213/10/3
f 214/4/3 205/4/3 204/4/3
f 214/4/3 206/4/3 205/4/3
f 215/2/3 208/2/3 207/2/3
f 215/4/3 206/4/3 214/4/3
f 215/2/3 207/2/3 206/2/3
f 216/2/3 208/2/3 215/2/3
f 217/10/3 210/10/3 209/10/3
f 218/15/3 211/15/3 210/15/3
f 218/10/3 210/10/3 217/10/3
f 219/15/3 200/15/3 211/15/3
f 219/15/3 211/15/3 218/15/3
f 220/15/3 200/15/3 219/15/3
f 221/15/3 218/15/3 217/15/3
f 221/15/3 219/15/3 218/15/3
f 221/15/3 217/15/3 216/15/3
f 222/15/3 219/15/3 221/15/3
f 225/15/3 224/15/3 223/15/3
f 226/15/3 224/15/3 225/15/3
f 229/8/3 228/8/3 227/8/3
f 230/8/3 228/8/3 229/8/3
f 231/10/3 230/10/3 229/10/3
f 232/10/3 230/10/3 231/10/3
f 235/17/3 234/17/3 233/17/3
f 236/17/3 234/17/3 235/17/3
f 241/17/3 238/17/3 237/17/3
f 242/17/3 238/17/3 241/17/3
f 243/15/3 240/15/3 239/15/3
f 244/15/3 240/15/3 243/15/3
f 249/15/3 248/15/3 247/15/3
f 250/15/3 248/15/3 249/15/3
f 251/10/3 246/10/3 245/10/3
f 252/10/3 246/10/3 251/10/3
f 253/8/3 252/8/3 251/8/3
f 254/8/3 252/8/3 253/8/3
f 255/15/4 256/15/4 257/15/4
f 257/15/4 256/15/4 258/15/4
f 259/8/4 260/8/4 261/8/4
f 261/8/4 260/8/4 262/8/4
f 261/10/4 262/10/4 263/10/4
f 263/10/4 262/10/4 264/10/4
f 265/17/4 266/17/4 267/17/4
f 267/17/4 266/17/4 268/17/4
f 269/17/4 270/17/4 271/17/4
f 271/17/4 270/17/4 272/17/4
f 273/10/4 274/10/4 275/10/4
f 275/10/4 274/10/4 276/10/4
f 275/8/4 276/8/4 277/8/4
f 277/8/4 276/8/4 278/8/4
f 279/15/4 280/15/4 281/15/4
f 281/15/4 280/15/4 282/15/4
f 283/15/4 284/15/4 289/15/4
f 289/15/4 284/15/4 290/15/4
f 287/4/4 288/4/4 292/4/4
f 288/3/4 289/3/4 292/3/4
f 292/3/4 289/3/4 293/3/4
f 285/4/4 286/4/4 294/4/4
f 286/10/4 287/10/4 295/10/4
f 294/4/4 286/4/4 295/4/4
f 287/4/4 292/4/4 296/4/4
f 295/10/4 287/10/4 296/10/4
f 292/2/4 293/2/4 297/2/4
f 296/4/4 292/4/4 297/4/4
f 297/2/4 293/2/4 298/2/4
f 290/15/4 291/15/4 300/15/4
f 300/15/4 291/15/4 301/15/4
f 299/15/4 300/15/4 302/15/4
f 302/15/4 300/15/4 303/15/4
f 304/15/4 305/15/4 306/15/4
f 306/15/4 305/15/4 307/15/4
f 312/17/5 309/17/5 308/17/5
f 313/17/5 309/17/5 312/17/5
f 314/17/5 311/17/5 310/17/5
f 315/17/5 311/17/5 314/17/5
f 321/4/5 317/4/5 316/4/5
f 322/11/5 318/11/5 317/11/5
f 322/4/5 317/4/5 321/4/5
f 323/6/5 319/6/5 318/6/5
f 323/11/5 318/11/5 322/11/5
f 324/4/5 320/4/5 319/4/5
f 324/6/5 319/6/5 323/6/5
f 325/10/5 323/10/5 322/10/5
f 325/4/5 321/4/5 316/4/5
f 325/10/5 324/10/5 323/10/5
f 325/10/5 322/10/5 321/10/5
f 326/10/5 324/10/5 325/10/5
f 327/10/5 324/10/5 326/10/5
f 328/4/5 320/4/5 324/4/5
f 328/10/5 324/10/5 327/10/5
f 329/4/5 325/4/5 316/4/5
f 330/10/5 327/10/5 326/10/5
f 331/10/5 327/10/5 330/10/5
f 332/4/5 320/4/5 328/4/5
f 333/4/5 329/4/5 316/4/5
f 333/10/5 332/10/5 331/10/5
f 333/10/5 331/10/5 330/10/5
f 333/10/5 330/10/5 329/10/5
f 334/4/5 320/4/5 332/4/5
f 334/10/5 332/10/5 333/10/5
f 335/4/5 333/4/5 316/4/5
f 335/4/5 334/4/5 333/4/5
f 336/4/5 320/4/5 334/4/5
f 336/4/5 334/4/5 335/4/5
f 343/8/5 338/8/5 337/8/5
f 344/10/5 339/10/5 338/10/5
f 344/8/5 338/8/5 343/8/5
f 345/10/5 339/10/5 344/10/5
f 346/10/5 341/10/5 340/10/5
f 347/8/5 342/8/5 341/8/5
f 347/10/5 341/10/5 346/10/5
f 348/8/5 342/8/5 347/8/5
f 351/15/5 350/15/5 349/15/5
f 352/15/5 350/15/5 351/15/5
f 355/15/5 354/15/5 353/15/5
f 355/15/5 353/15/5 352/15/5
f 356/15/5 354/15/5 355/15/5
f 363/11/5 358/11/5 357/11/5
f 364/7/5 359/7/5 358/7/5
f 364/11/5 358/11/5 363/11/5
f 365/7/5 359/7/5 364/7/5
f 366/7/5 361/7/5 360/7/5
f 367/11/5 362/11/5 361/11/5
f 367/7/5 361/7/5 366/7/5
f 368/11/5 362/11/5 367/11/5
f 370/15/5 369/15/5 368/15/5
f 371/15/5 369/15/5 370/15/5
f 374/15/5 373/15/5 372/15/5
f 375/15/5 373/15/5 374/15/5
f 378/15/5 377/15/5 376/15/5
f 379/15/5 377/15/5 378/15/5
f 382/15/5 381/15/5 380/15/5
f 383/15/5 381/15/5 382/15/5
f 384/8/6 385/8/6 390/8/6
f 385/10/6 386/10/6 391/10/6
f 390/8/6 385/8/6 391/8/6
f 391/10/6 386/10/6 392/10/6
f 387/10/6 388/10/6 393/10/6
f 388/8/6 389/8/6 394/8/6
f 393/10/6 388/10/6 394/10/6
f 394/8/6 389/8/6 395/8/6
f 396/7/6 397/7/6 399/7/6
f 397/11/6 398/11/6 400/11/6
f 399/7/6 397/7/6 400/7/6
f 400/11/6 398/11/6 401/11/6
f 402/15/6 403/15/6 406/15/6
f 403/16/6 404/16/6 407/16/6
f 406/15/6 403/15/6 407/15/6
f 407/16/6 404/16/6 408/16/6
f 405/15/6 406/15/6 411/15/6
f 411/15/6 406/15/6 412/15/6
f 409/15/6 410/15/6 413/15/6
f 413/15/6 410/15/6 414/15/6
f 411/16/6 412/16/6 415/16/6
f 415/16/6 412/16/6 416/16/6
f 413/16/6 414/16/6 417/16/6
f 417/16/6 414/16/6 418/16/6
f 415/15/6 416/15/6 419/15/6
f 419/15/6 416/15/6 420/15/6
f 417/15/6 418/15/6 421/15/6
f 421/15/6 418/15/6 422/15/6
f 420/15/6 421/15/6 423/15/6
f 423/15/6 421/15/6 424/15/6
f 425/16/6 426/16/6 429/16/6
f 426/15/6 427/15/6 430/15/6
f 429/16/6 426/16/6 430/16/6
f 430/15/6 427/15/6 431/15/6
f 428/15/6 429/15/6 433/15/6
f 431/15/6 432/15/6 433/15/6
f 430/15/6 431/15/6 433/15/6
f 429/15/6 430/15/6 433/15/6
f 433/15/6 432/15/6 434/15/6
f 434/15/6 432/15/6 435/15/6
f 435/15/6 432/15/6 436/15/6
f 428/15/6 433/15/6 437/15/6
f 436/15/6 432/15/6 438/15/6
f 428/15/6 437/15/6 439/15/6
f 437/15/6 438/15/6 439/15/6
f 438/15/6 432/15/6 440/15/6
f 439/15/6 438/15/6 440/15/6
f 441/15/6 442/15/6 443/15/6
f 441/15/6 443/15/6 445/15/6
f 443/15/6 444/15/6 445/15/6
f 445/15/6 444/15/6 446/15/6
