# MagicaVoxel @ Ephtracy

# group
g stage_2_miro

# material
mtllib stage_2_miro.mtl
usemtl palette

# normals
vn -1 0 0
vn 1 0 0
vn 0 0 1
vn 0 0 -1
vn 0 -1 0
vn 0 1 0

# texcoords
vt 0.779297 0.5
vt 0.958984 0.5
vt 0.966797 0.5

# verts
v -30 0 1
v -30 0 -1
v -30 3 1
v -30 3 -1
v -30 22 2
v -30 22 1
v -30 22 -1
v -30 22 -2
v -30 23 2
v -30 23 -2
v 30 0 1
v 30 0 -1
v 30 3 1
v 30 3 -1
v 30 22 2
v 30 22 1
v 30 22 -1
v 30 22 -2
v 30 23 2
v 30 23 -2
v -30 22 2
v -30 23 2
v 30 22 2
v 30 23 2
v -30 0 1
v -30 3 1
v -30 22 1
v 30 0 1
v 30 3 1
v 30 22 1
v -30 0 -1
v -30 3 -1
v -30 22 -1
v 30 0 -1
v 30 3 -1
v 30 22 -1
v -30 22 -2
v -30 23 -2
v 30 22 -2
v 30 23 -2
v -30 0 1
v 30 0 1
v -30 0 -1
v 30 0 -1
v -30 22 2
v 30 22 2
v -30 22 1
v 30 22 1
v -30 22 -1
v 30 22 -1
v -30 22 -2
v 30 22 -2
v -30 23 2
v 30 23 2
v -30 23 -2
v 30 23 -2

# faces
f 3/3/1 2/3/1 1/3/1
f 4/3/1 2/3/1 3/3/1
f 6/2/1 4/2/1 3/2/1
f 7/2/1 4/2/1 6/2/1
f 9/1/1 7/1/1 6/1/1
f 9/1/1 8/1/1 7/1/1
f 9/1/1 6/1/1 5/1/1
f 10/1/1 8/1/1 9/1/1
f 11/3/2 12/3/2 13/3/2
f 13/3/2 12/3/2 14/3/2
f 13/2/2 14/2/2 16/2/2
f 16/2/2 14/2/2 17/2/2
f 16/1/2 17/1/2 19/1/2
f 17/1/2 18/1/2 19/1/2
f 15/1/2 16/1/2 19/1/2
f 19/1/2 18/1/2 20/1/2
f 23/1/3 22/1/3 21/1/3
f 24/1/3 22/1/3 23/1/3
f 28/3/3 26/3/3 25/3/3
f 29/2/3 27/2/3 26/2/3
f 29/3/3 26/3/3 28/3/3
f 30/2/3 27/2/3 29/2/3
f 31/3/4 32/3/4 34/3/4
f 32/2/4 33/2/4 35/2/4
f 34/3/4 32/3/4 35/3/4
f 35/2/4 33/2/4 36/2/4
f 37/1/4 38/1/4 39/1/4
f 39/1/4 38/1/4 40/1/4
f 43/3/5 42/3/5 41/3/5
f 44/3/5 42/3/5 43/3/5
f 47/1/5 46/1/5 45/1/5
f 48/1/5 46/1/5 47/1/5
f 51/1/5 50/1/5 49/1/5
f 52/1/5 50/1/5 51/1/5
f 53/1/6 54/1/6 55/1/6
f 55/1/6 54/1/6 56/1/6
