# MagicaVoxel @ Ephtracy

# group
g portal

# material
mtllib portal.mtl
usemtl palette

# normals
vn -1 0 0
vn 1 0 0
vn 0 0 1
vn 0 0 -1
vn 0 -1 0
vn 0 1 0

# texcoords
vt 0.779297 0.5
vt 0.810547 0.5
vt 0.947266 0.5
vt 0.958984 0.5

# verts
v -8.5 0 2.5
v -8.5 0 -2.5
v -8.5 1 2.5
v -8.5 1 -2.5
v -7.5 0 4.5
v -7.5 0 2.5
v -7.5 0 -2.5
v -7.5 0 -4.5
v -7.5 1 4.5
v -7.5 1 2.5
v -7.5 1 -2.5
v -7.5 1 -4.5
v -7.5 2 2.5
v -7.5 2 -2.5
v -6.5 0 6.5
v -6.5 0 4.5
v -6.5 0 -4.5
v -6.5 0 -6.5
v -6.5 1 6.5
v -6.5 1 4.5
v -6.5 1 2.5
v -6.5 1 -2.5
v -6.5 1 -4.5
v -6.5 1 -6.5
v -6.5 2 4.5
v -6.5 2 2.5
v -6.5 2 -2.5
v -6.5 2 -4.5
v -6.5 4 2.5
v -6.5 4 -2.5
v -5.5 1 5.5
v -5.5 1 4.5
v -5.5 1 -4.5
v -5.5 1 -5.5
v -5.5 2 5.5
v -5.5 2 4.5
v -5.5 2 2.5
v -5.5 2 -2.5
v -5.5 2 -4.5
v -5.5 2 -5.5
v -5.5 4 4.5
v -5.5 4 2.5
v -5.5 4 -2.5
v -5.5 4 -4.5
v -4.5 0 7.5
v -4.5 0 6.5
v -4.5 0 -6.5
v -4.5 0 -7.5
v -4.5 1 7.5
v -4.5 1 6.5
v -4.5 1 5.5
v -4.5 1 -5.5
v -4.5 1 -6.5
v -4.5 1 -7.5
v -4.5 2 6.5
v -4.5 2 5.5
v -4.5 2 4.5
v -4.5 2 -4.5
v -4.5 2 -5.5
v -4.5 2 -6.5
v -4.5 4 5.5
v -4.5 4 4.5
v -4.5 4 2.5
v -4.5 4 -2.5
v -4.5 4 -4.5
v -4.5 4 -5.5
v -4.5 6 2.5
v -4.5 6 -2.5
v -3.5 4 3.5
v -3.5 4 2.5
v -3.5 4 -2.5
v -3.5 4 -3.5
v -3.5 6 3.5
v -3.5 6 2.5
v -3.5 6 -2.5
v -3.5 6 -3.5
v -2.5 0 8.5
v -2.5 0 7.5
v -2.5 0 -7.5
v -2.5 0 -8.5
v -2.5 1 8.5
v -2.5 1 7.5
v -2.5 1 6.5
v -2.5 1 -6.5
v -2.5 1 -7.5
v -2.5 1 -8.5
v -2.5 2 7.5
v -2.5 2 6.5
v -2.5 2 5.5
v -2.5 2 -5.5
v -2.5 2 -6.5
v -2.5 2 -7.5
v -2.5 4 6.5
v -2.5 4 5.5
v -2.5 4 4.5
v -2.5 4 3.5
v -2.5 4 -3.5
v -2.5 4 -4.5
v -2.5 4 -5.5
v -2.5 4 -6.5
v -2.5 6 4.5
v -2.5 6 3.5
v -2.5 6 -3.5
v -2.5 6 -4.5
v 0.5 0 0.5
v 0.5 0 -0.5
v 0.5 1 0.5
v 0.5 1 -0.5
v 0.5 2 0.5
v 0.5 2 -0.5
v 0.5 3 0.5
v 0.5 3 -0.5
v 0.5 4 0.5
v 0.5 4 -0.5
v 1.5 4 3.5
v 1.5 4 2.5
v 1.5 4 -2.5
v 1.5 4 -3.5
v 1.5 6 3.5
v 1.5 6 2.5
v 1.5 6 -2.5
v 1.5 6 -3.5
v 2.5 4 2.5
v 2.5 4 1.5
v 2.5 4 -1.5
v 2.5 4 -2.5
v 2.5 6 2.5
v 2.5 6 1.5
v 2.5 6 -1.5
v 2.5 6 -2.5
v 3.5 4 1.5
v 3.5 4 -1.5
v 3.5 6 1.5
v 3.5 6 -1.5
v -3.5 4 1.5
v -3.5 4 -1.5
v -3.5 6 1.5
v -3.5 6 -1.5
v -2.5 4 2.5
v -2.5 4 1.5
v -2.5 4 -1.5
v -2.5 4 -2.5
v -2.5 6 2.5
v -2.5 6 1.5
v -2.5 6 -1.5
v -2.5 6 -2.5
v -1.5 4 3.5
v -1.5 4 2.5
v -1.5 4 -2.5
v -1.5 4 -3.5
v -1.5 6 3.5
v -1.5 6 2.5
v -1.5 6 -2.5
v -1.5 6 -3.5
v -0.5 0 0.5
v -0.5 0 -0.5
v -0.5 1 0.5
v -0.5 1 -0.5
v -0.5 2 0.5
v -0.5 2 -0.5
v -0.5 3 0.5
v -0.5 3 -0.5
v -0.5 4 0.5
v -0.5 4 -0.5
v 2.5 0 8.5
v 2.5 0 7.5
v 2.5 0 -7.5
v 2.5 0 -8.5
v 2.5 1 8.5
v 2.5 1 7.5
v 2.5 1 6.5
v 2.5 1 -6.5
v 2.5 1 -7.5
v 2.5 1 -8.5
v 2.5 2 7.5
v 2.5 2 6.5
v 2.5 2 5.5
v 2.5 2 -5.5
v 2.5 2 -6.5
v 2.5 2 -7.5
v 2.5 4 6.5
v 2.5 4 5.5
v 2.5 4 4.5
v 2.5 4 3.5
v 2.5 4 -3.5
v 2.5 4 -4.5
v 2.5 4 -5.5
v 2.5 4 -6.5
v 2.5 6 4.5
v 2.5 6 3.5
v 2.5 6 -3.5
v 2.5 6 -4.5
v 3.5 4 3.5
v 3.5 4 2.5
v 3.5 4 -2.5
v 3.5 4 -3.5
v 3.5 6 3.5
v 3.5 6 2.5
v 3.5 6 -2.5
v 3.5 6 -3.5
v 4.5 0 7.5
v 4.5 0 6.5
v 4.5 0 -6.5
v 4.5 0 -7.5
v 4.5 1 7.5
v 4.5 1 6.5
v 4.5 1 5.5
v 4.5 1 -5.5
v 4.5 1 -6.5
v 4.5 1 -7.5
v 4.5 2 6.5
v 4.5 2 5.5
v 4.5 2 4.5
v 4.5 2 -4.5
v 4.5 2 -5.5
v 4.5 2 -6.5
v 4.5 4 5.5
v 4.5 4 4.5
v 4.5 4 2.5
v 4.5 4 -2.5
v 4.5 4 -4.5
v 4.5 4 -5.5
v 4.5 6 2.5
v 4.5 6 -2.5
v 5.5 1 5.5
v 5.5 1 4.5
v 5.5 1 -4.5
v 5.5 1 -5.5
v 5.5 2 5.5
v 5.5 2 4.5
v 5.5 2 2.5
v 5.5 2 -2.5
v 5.5 2 -4.5
v 5.5 2 -5.5
v 5.5 4 4.5
v 5.5 4 2.5
v 5.5 4 -2.5
v 5.5 4 -4.5
v 6.5 0 6.5
v 6.5 0 4.5
v 6.5 0 -4.5
v 6.5 0 -6.5
v 6.5 1 6.5
v 6.5 1 4.5
v 6.5 1 2.5
v 6.5 1 -2.5
v 6.5 1 -4.5
v 6.5 1 -6.5
v 6.5 2 4.5
v 6.5 2 2.5
v 6.5 2 -2.5
v 6.5 2 -4.5
v 6.5 4 2.5
v 6.5 4 -2.5
v 7.5 0 4.5
v 7.5 0 2.5
v 7.5 0 -2.5
v 7.5 0 -4.5
v 7.5 1 4.5
v 7.5 1 2.5
v 7.5 1 -2.5
v 7.5 1 -4.5
v 7.5 2 2.5
v 7.5 2 -2.5
v 8.5 0 2.5
v 8.5 0 -2.5
v 8.5 1 2.5
v 8.5 1 -2.5
v -2.5 0 8.5
v -2.5 1 8.5
v 2.5 0 8.5
v 2.5 1 8.5
v -4.5 0 7.5
v -4.5 1 7.5
v -2.5 0 7.5
v -2.5 1 7.5
v -2.5 2 7.5
v 2.5 0 7.5
v 2.5 1 7.5
v 2.5 2 7.5
v 4.5 0 7.5
v 4.5 1 7.5
v -6.5 0 6.5
v -6.5 1 6.5
v -4.5 0 6.5
v -4.5 1 6.5
v -4.5 2 6.5
v -2.5 1 6.5
v -2.5 2 6.5
v -2.5 4 6.5
v 2.5 1 6.5
v 2.5 2 6.5
v 2.5 4 6.5
v 4.5 0 6.5
v 4.5 1 6.5
v 4.5 2 6.5
v 6.5 0 6.5
v 6.5 1 6.5
v -5.5 1 5.5
v -5.5 2 5.5
v -4.5 1 5.5
v -4.5 2 5.5
v -4.5 4 5.5
v -2.5 2 5.5
v -2.5 4 5.5
v 2.5 2 5.5
v 2.5 4 5.5
v 4.5 1 5.5
v 4.5 2 5.5
v 4.5 4 5.5
v 5.5 1 5.5
v 5.5 2 5.5
v -7.5 0 4.5
v -7.5 1 4.5
v -6.5 0 4.5
v -6.5 1 4.5
v -6.5 2 4.5
v -5.5 1 4.5
v -5.5 2 4.5
v -5.5 4 4.5
v -4.5 2 4.5
v -4.5 4 4.5
v -2.5 4 4.5
v -2.5 6 4.5
v 2.5 4 4.5
v 2.5 6 4.5
v 4.5 2 4.5
v 4.5 4 4.5
v 5.5 1 4.5
v 5.5 2 4.5
v 5.5 4 4.5
v 6.5 0 4.5
v 6.5 1 4.5
v 6.5 2 4.5
v 7.5 0 4.5
v 7.5 1 4.5
v -3.5 4 3.5
v -3.5 6 3.5
v -2.5 4 3.5
v -2.5 6 3.5
v 2.5 4 3.5
v 2.5 6 3.5
v 3.5 4 3.5
v 3.5 6 3.5
v -8.5 0 2.5
v -8.5 1 2.5
v -7.5 0 2.5
v -7.5 1 2.5
v -7.5 2 2.5
v -6.5 1 2.5
v -6.5 2 2.5
v -6.5 4 2.5
v -5.5 2 2.5
v -5.5 4 2.5
v -4.5 4 2.5
v -4.5 6 2.5
v -3.5 4 2.5
v -3.5 6 2.5
v 3.5 4 2.5
v 3.5 6 2.5
v 4.5 4 2.5
v 4.5 6 2.5
v 5.5 2 2.5
v 5.5 4 2.5
v 6.5 1 2.5
v 6.5 2 2.5
v 6.5 4 2.5
v 7.5 0 2.5
v 7.5 1 2.5
v 7.5 2 2.5
v 8.5 0 2.5
v 8.5 1 2.5
v -0.5 0 -0.5
v -0.5 1 -0.5
v -0.5 2 -0.5
v -0.5 3 -0.5
v -0.5 4 -0.5
v 0.5 0 -0.5
v 0.5 1 -0.5
v 0.5 2 -0.5
v 0.5 3 -0.5
v 0.5 4 -0.5
v -3.5 4 -1.5
v -3.5 6 -1.5
v -2.5 4 -1.5
v -2.5 6 -1.5
v 2.5 4 -1.5
v 2.5 6 -1.5
v 3.5 4 -1.5
v 3.5 6 -1.5
v -2.5 4 -2.5
v -2.5 6 -2.5
v -1.5 4 -2.5
v -1.5 6 -2.5
v 1.5 4 -2.5
v 1.5 6 -2.5
v 2.5 4 -2.5
v 2.5 6 -2.5
v -1.5 4 -3.5
v -1.5 6 -3.5
v 1.5 4 -3.5
v 1.5 6 -3.5
v -1.5 4 3.5
v -1.5 6 3.5
v 1.5 4 3.5
v 1.5 6 3.5
v -2.5 4 2.5
v -2.5 6 2.5
v -1.5 4 2.5
v -1.5 6 2.5
v 1.5 4 2.5
v 1.5 6 2.5
v 2.5 4 2.5
v 2.5 6 2.5
v -3.5 4 1.5
v -3.5 6 1.5
v -2.5 4 1.5
v -2.5 6 1.5
v 2.5 4 1.5
v 2.5 6 1.5
v 3.5 4 1.5
v 3.5 6 1.5
v -0.5 0 0.5
v -0.5 1 0.5
v -0.5 2 0.5
v -0.5 3 0.5
v -0.5 4 0.5
v 0.5 0 0.5
v 0.5 1 0.5
v 0.5 2 0.5
v 0.5 3 0.5
v 0.5 4 0.5
v -8.5 0 -2.5
v -8.5 1 -2.5
v -7.5 0 -2.5
v -7.5 1 -2.5
v -7.5 2 -2.5
v -6.5 1 -2.5
v -6.5 2 -2.5
v -6.5 4 -2.5
v -5.5 2 -2.5
v -5.5 4 -2.5
v -4.5 4 -2.5
v -4.5 6 -2.5
v -3.5 4 -2.5
v -3.5 6 -2.5
v 3.5 4 -2.5
v 3.5 6 -2.5
v 4.5 4 -2.5
v 4.5 6 -2.5
v 5.5 2 -2.5
v 5.5 4 -2.5
v 6.5 1 -2.5
v 6.5 2 -2.5
v 6.5 4 -2.5
v 7.5 0 -2.5
v 7.5 1 -2.5
v 7.5 2 -2.5
v 8.5 0 -2.5
v 8.5 1 -2.5
v -3.5 4 -3.5
v -3.5 6 -3.5
v -2.5 4 -3.5
v -2.5 6 -3.5
v 2.5 4 -3.5
v 2.5 6 -3.5
v 3.5 4 -3.5
v 3.5 6 -3.5
v -7.5 0 -4.5
v -7.5 1 -4.5
v -6.5 0 -4.5
v -6.5 1 -4.5
v -6.5 2 -4.5
v -5.5 1 -4.5
v -5.5 2 -4.5
v -5.5 4 -4.5
v -4.5 2 -4.5
v -4.5 4 -4.5
v -2.5 4 -4.5
v -2.5 6 -4.5
v 2.5 4 -4.5
v 2.5 6 -4.5
v 4.5 2 -4.5
v 4.5 4 -4.5
v 5.5 1 -4.5
v 5.5 2 -4.5
v 5.5 4 -4.5
v 6.5 0 -4.5
v 6.5 1 -4.5
v 6.5 2 -4.5
v 7.5 0 -4.5
v 7.5 1 -4.5
v -5.5 1 -5.5
v -5.5 2 -5.5
v -4.5 1 -5.5
v -4.5 2 -5.5
v -4.5 4 -5.5
v -2.5 2 -5.5
v -2.5 4 -5.5
v 2.5 2 -5.5
v 2.5 4 -5.5
v 4.5 1 -5.5
v 4.5 2 -5.5
v 4.5 4 -5.5
v 5.5 1 -5.5
v 5.5 2 -5.5
v -6.5 0 -6.5
v -6.5 1 -6.5
v -4.5 0 -6.5
v -4.5 1 -6.5
v -4.5 2 -6.5
v -2.5 1 -6.5
v -2.5 2 -6.5
v -2.5 4 -6.5
v 2.5 1 -6.5
v 2.5 2 -6.5
v 2.5 4 -6.5
v 4.5 0 -6.5
v 4.5 1 -6.5
v 4.5 2 -6.5
v 6.5 0 -6.5
v 6.5 1 -6.5
v -4.5 0 -7.5
v -4.5 1 -7.5
v -2.5 0 -7.5
v -2.5 1 -7.5
v -2.5 2 -7.5
v 2.5 0 -7.5
v 2.5 1 -7.5
v 2.5 2 -7.5
v 4.5 0 -7.5
v 4.5 1 -7.5
v -2.5 0 -8.5
v -2.5 1 -8.5
v 2.5 0 -8.5
v 2.5 1 -8.5
v -2.5 0 8.5
v 2.5 0 8.5
v -4.5 0 7.5
v -2.5 0 7.5
v 2.5 0 7.5
v 4.5 0 7.5
v -6.5 0 6.5
v -4.5 0 6.5
v 4.5 0 6.5
v 6.5 0 6.5
v -7.5 0 4.5
v -6.5 0 4.5
v 6.5 0 4.5
v 7.5 0 4.5
v -8.5 0 2.5
v -7.5 0 2.5
v 7.5 0 2.5
v 8.5 0 2.5
v -0.5 0 0.5
v 0.5 0 0.5
v -0.5 0 -0.5
v 0.5 0 -0.5
v -8.5 0 -2.5
v -7.5 0 -2.5
v 7.5 0 -2.5
v 8.5 0 -2.5
v -7.5 0 -4.5
v -6.5 0 -4.5
v 6.5 0 -4.5
v 7.5 0 -4.5
v -6.5 0 -6.5
v -4.5 0 -6.5
v 4.5 0 -6.5
v 6.5 0 -6.5
v -4.5 0 -7.5
v -2.5 0 -7.5
v 2.5 0 -7.5
v 4.5 0 -7.5
v -2.5 0 -8.5
v 2.5 0 -8.5
v -2.5 1 8.5
v 2.5 1 8.5
v -4.5 1 7.5
v -2.5 1 7.5
v 2.5 1 7.5
v 4.5 1 7.5
v -6.5 1 6.5
v -4.5 1 6.5
v -2.5 1 6.5
v 2.5 1 6.5
v 4.5 1 6.5
v 6.5 1 6.5
v -5.5 1 5.5
v -4.5 1 5.5
v 4.5 1 5.5
v 5.5 1 5.5
v -7.5 1 4.5
v -6.5 1 4.5
v -5.5 1 4.5
v 5.5 1 4.5
v 6.5 1 4.5
v 7.5 1 4.5
v -8.5 1 2.5
v -7.5 1 2.5
v -6.5 1 2.5
v 6.5 1 2.5
v 7.5 1 2.5
v 8.5 1 2.5
v -8.5 1 -2.5
v -7.5 1 -2.5
v -6.5 1 -2.5
v 6.5 1 -2.5
v 7.5 1 -2.5
v 8.5 1 -2.5
v -7.5 1 -4.5
v -6.5 1 -4.5
v -5.5 1 -4.5
v 5.5 1 -4.5
v 6.5 1 -4.5
v 7.5 1 -4.5
v -5.5 1 -5.5
v -4.5 1 -5.5
v 4.5 1 -5.5
v 5.5 1 -5.5
v -6.5 1 -6.5
v -4.5 1 -6.5
v -2.5 1 -6.5
v 2.5 1 -6.5
v 4.5 1 -6.5
v 6.5 1 -6.5
v -4.5 1 -7.5
v -2.5 1 -7.5
v 2.5 1 -7.5
v 4.5 1 -7.5
v -2.5 1 -8.5
v 2.5 1 -8.5
v -2.5 2 7.5
v 2.5 2 7.5
v -4.5 2 6.5
v -2.5 2 6.5
v 2.5 2 6.5
v 4.5 2 6.5
v -5.5 2 5.5
v -4.5 2 5.5
v -2.5 2 5.5
v 2.5 2 5.5
v 4.5 2 5.5
v 5.5 2 5.5
v -6.5 2 4.5
v -5.5 2 4.5
v -4.5 2 4.5
v 4.5 2 4.5
v 5.5 2 4.5
v 6.5 2 4.5
v -7.5 2 2.5
v -6.5 2 2.5
v -5.5 2 2.5
v 5.5 2 2.5
v 6.5 2 2.5
v 7.5 2 2.5
v -7.5 2 -2.5
v -6.5 2 -2.5
v -5.5 2 -2.5
v 5.5 2 -2.5
v 6.5 2 -2.5
v 7.5 2 -2.5
v -6.5 2 -4.5
v -5.5 2 -4.5
v -4.5 2 -4.5
v 4.5 2 -4.5
v 5.5 2 -4.5
v 6.5 2 -4.5
v -5.5 2 -5.5
v -4.5 2 -5.5
v -2.5 2 -5.5
v 2.5 2 -5.5
v 4.5 2 -5.5
v 5.5 2 -5.5
v -4.5 2 -6.5
v -2.5 2 -6.5
v 2.5 2 -6.5
v 4.5 2 -6.5
v -2.5 2 -7.5
v 2.5 2 -7.5
v -2.5 4 6.5
v 2.5 4 6.5
v -4.5 4 5.5
v -2.5 4 5.5
v 2.5 4 5.5
v 4.5 4 5.5
v -5.5 4 4.5
v -4.5 4 4.5
v -2.5 4 4.5
v 2.5 4 4.5
v 4.5 4 4.5
v 5.5 4 4.5
v -3.5 4 3.5
v -2.5 4 3.5
v -1.5 4 3.5
v 1.5 4 3.5
v 2.5 4 3.5
v 3.5 4 3.5
v -6.5 4 2.5
v -5.5 4 2.5
v -4.5 4 2.5
v -3.5 4 2.5
v -2.5 4 2.5
v -1.5 4 2.5
v 1.5 4 2.5
v 2.5 4 2.5
v 3.5 4 2.5
v 4.5 4 2.5
v 5.5 4 2.5
v 6.5 4 2.5
v -3.5 4 1.5
v -2.5 4 1.5
v 2.5 4 1.5
v 3.5 4 1.5
v -0.5 4 0.5
v 0.5 4 0.5
v -0.5 4 -0.5
v 0.5 4 -0.5
v -3.5 4 -1.5
v -2.5 4 -1.5
v 2.5 4 -1.5
v 3.5 4 -1.5
v -6.5 4 -2.5
v -5.5 4 -2.5
v -4.5 4 -2.5
v -3.5 4 -2.5
v -2.5 4 -2.5
v -1.5 4 -2.5
v 1.5 4 -2.5
v 2.5 4 -2.5
v 3.5 4 -2.5
v 4.5 4 -2.5
v 5.5 4 -2.5
v 6.5 4 -2.5
v -3.5 4 -3.5
v -2.5 4 -3.5
v -1.5 4 -3.5
v 1.5 4 -3.5
v 2.5 4 -3.5
v 3.5 4 -3.5
v -5.5 4 -4.5
v -4.5 4 -4.5
v -2.5 4 -4.5
v 2.5 4 -4.5
v 4.5 4 -4.5
v 5.5 4 -4.5
v -4.5 4 -5.5
v -2.5 4 -5.5
v 2.5 4 -5.5
v 4.5 4 -5.5
v -2.5 4 -6.5
v 2.5 4 -6.5
v -2.5 6 4.5
v 2.5 6 4.5
v -3.5 6 3.5
v -2.5 6 3.5
v -1.5 6 3.5
v 1.5 6 3.5
v 2.5 6 3.5
v 3.5 6 3.5
v -4.5 6 2.5
v -3.5 6 2.5
v -2.5 6 2.5
v -1.5 6 2.5
v 1.5 6 2.5
v 2.5 6 2.5
v 3.5 6 2.5
v 4.5 6 2.5
v -3.5 6 1.5
v -2.5 6 1.5
v 2.5 6 1.5
v 3.5 6 1.5
v -3.5 6 -1.5
v -2.5 6 -1.5
v 2.5 6 -1.5
v 3.5 6 -1.5
v -4.5 6 -2.5
v -3.5 6 -2.5
v -2.5 6 -2.5
v -1.5 6 -2.5
v 1.5 6 -2.5
v 2.5 6 -2.5
v 3.5 6 -2.5
v 4.5 6 -2.5
v -3.5 6 -3.5
v -2.5 6 -3.5
v -1.5 6 -3.5
v 1.5 6 -3.5
v 2.5 6 -3.5
v 3.5 6 -3.5
v -2.5 6 -4.5
v 2.5 6 -4.5

# faces
f 3/3/1 2/3/1 1/3/1
f 4/3/1 2/3/1 3/3/1
f 9/3/1 6/3/1 5/3/1
f 10/3/1 6/3/1 9/3/1
f 11/3/1 8/3/1 7/3/1
f 12/3/1 8/3/1 11/3/1
f 13/2/1 11/2/1 10/2/1
f 14/2/1 11/2/1 13/2/1
f 19/3/1 16/3/1 15/3/1
f 20/3/1 16/3/1 19/3/1
f 23/3/1 18/3/1 17/3/1
f 24/3/1 18/3/1 23/3/1
f 25/2/1 21/2/1 20/2/1
f 26/2/1 21/2/1 25/2/1
f 27/2/1 23/2/1 22/2/1
f 28/2/1 23/2/1 27/2/1
f 29/1/1 27/1/1 26/1/1
f 30/1/1 27/1/1 29/1/1
f 35/2/1 32/2/1 31/2/1
f 36/2/1 32/2/1 35/2/1
f 39/2/1 34/2/1 33/2/1
f 40/2/1 34/2/1 39/2/1
f 41/1/1 37/1/1 36/1/1
f 42/1/1 37/1/1 41/1/1
f 43/1/1 39/1/1 38/1/1
f 44/1/1 39/1/1 43/1/1
f 49/3/1 46/3/1 45/3/1
f 50/3/1 46/3/1 49/3/1
f 53/3/1 48/3/1 47/3/1
f 54/3/1 48/3/1 53/3/1
f 55/2/1 51/2/1 50/2/1
f 56/2/1 51/2/1 55/2/1
f 59/2/1 53/2/1 52/2/1
f 60/2/1 53/2/1 59/2/1
f 61/1/1 57/1/1 56/1/1
f 62/1/1 57/1/1 61/1/1
f 65/1/1 59/1/1 58/1/1
f 66/1/1 59/1/1 65/1/1
f 67/4/1 64/4/1 63/4/1
f 68/4/1 64/4/1 67/4/1
f 73/4/1 70/4/1 69/4/1
f 74/4/1 70/4/1 73/4/1
f 75/4/1 72/4/1 71/4/1
f 76/4/1 72/4/1 75/4/1
f 81/3/1 78/3/1 77/3/1
f 82/3/1 78/3/1 81/3/1
f 85/3/1 80/3/1 79/3/1
f 86/3/1 80/3/1 85/3/1
f 87/2/1 83/2/1 82/2/1
f 88/2/1 83/2/1 87/2/1
f 91/2/1 85/2/1 84/2/1
f 92/2/1 85/2/1 91/2/1
f 93/1/1 89/1/1 88/1/1
f 94/1/1 89/1/1 93/1/1
f 99/1/1 91/1/1 90/1/1
f 100/1/1 91/1/1 99/1/1
f 101/4/1 96/4/1 95/4/1
f 102/4/1 96/4/1 101/4/1
f 103/4/1 98/4/1 97/4/1
f 104/4/1 98/4/1 103/4/1
f 107/3/1 106/3/1 105/3/1
f 108/3/1 106/3/1 107/3/1
f 109/2/1 108/2/1 107/2/1
f 110/2/1 108/2/1 109/2/1
f 111/1/1 110/1/1 109/1/1
f 112/1/1 110/1/1 111/1/1
f 113/2/1 112/2/1 111/2/1
f 114/2/1 112/2/1 113/2/1
f 119/4/1 116/4/1 115/4/1
f 120/4/1 116/4/1 119/4/1
f 121/4/1 118/4/1 117/4/1
f 122/4/1 118/4/1 121/4/1
f 127/4/1 124/4/1 123/4/1
f 128/4/1 124/4/1 127/4/1
f 129/4/1 126/4/1 125/4/1
f 130/4/1 126/4/1 129/4/1
f 133/4/1 132/4/1 131/4/1
f 134/4/1 132/4/1 133/4/1
f 135/4/2 136/4/2 137/4/2
f 137/4/2 136/4/2 138/4/2
f 139/4/2 140/4/2 143/4/2
f 143/4/2 140/4/2 144/4/2
f 141/4/2 142/4/2 145/4/2
f 145/4/2 142/4/2 146/4/2
f 147/4/2 148/4/2 151/4/2
f 151/4/2 148/4/2 152/4/2
f 149/4/2 150/4/2 153/4/2
f 153/4/2 150/4/2 154/4/2
f 155/3/2 156/3/2 157/3/2
f 157/3/2 156/3/2 158/3/2
f 157/2/2 158/2/2 159/2/2
f 159/2/2 158/2/2 160/2/2
f 159/1/2 160/1/2 161/1/2
f 161/1/2 160/1/2 162/1/2
f 161/2/2 162/2/2 163/2/2
f 163/2/2 162/2/2 164/2/2
f 165/3/2 166/3/2 169/3/2
f 169/3/2 166/3/2 170/3/2
f 167/3/2 168/3/2 173/3/2
f 173/3/2 168/3/2 174/3/2
f 170/2/2 171/2/2 175/2/2
f 175/2/2 171/2/2 176/2/2
f 172/2/2 173/2/2 179/2/2
f 179/2/2 173/2/2 180/2/2
f 176/1/2 177/1/2 181/1/2
f 181/1/2 177/1/2 182/1/2
f 178/1/2 179/1/2 187/1/2
f 187/1/2 179/1/2 188/1/2
f 183/4/2 184/4/2 189/4/2
f 189/4/2 184/4/2 190/4/2
f 185/4/2 186/4/2 191/4/2
f 191/4/2 186/4/2 192/4/2
f 193/4/2 194/4/2 197/4/2
f 197/4/2 194/4/2 198/4/2
f 195/4/2 196/4/2 199/4/2
f 199/4/2 196/4/2 200/4/2
f 201/3/2 202/3/2 205/3/2
f 205/3/2 202/3/2 206/3/2
f 203/3/2 204/3/2 209/3/2
f 209/3/2 204/3/2 210/3/2
f 206/2/2 207/2/2 211/2/2
f 211/2/2 207/2/2 212/2/2
f 208/2/2 209/2/2 215/2/2
f 215/2/2 209/2/2 216/2/2
f 212/1/2 213/1/2 217/1/2
f 217/1/2 213/1/2 218/1/2
f 214/1/2 215/1/2 221/1/2
f 221/1/2 215/1/2 222/1/2
f 219/4/2 220/4/2 223/4/2
f 223/4/2 220/4/2 224/4/2
f 225/2/2 226/2/2 229/2/2
f 229/2/2 226/2/2 230/2/2
f 227/2/2 228/2/2 233/2/2
f 233/2/2 228/2/2 234/2/2
f 230/1/2 231/1/2 235/1/2
f 235/1/2 231/1/2 236/1/2
f 232/1/2 233/1/2 237/1/2
f 237/1/2 233/1/2 238/1/2
f 239/3/2 240/3/2 243/3/2
f 243/3/2 240/3/2 244/3/2
f 241/3/2 242/3/2 247/3/2
f 247/3/2 242/3/2 248/3/2
f 244/2/2 245/2/2 249/2/2
f 249/2/2 245/2/2 250/2/2
f 246/2/2 247/2/2 251/2/2
f 251/2/2 247/2/2 252/2/2
f 250/1/2 251/1/2 253/1/2
f 253/1/2 251/1/2 254/1/2
f 255/3/2 256/3/2 259/3/2
f 259/3/2 256/3/2 260/3/2
f 257/3/2 258/3/2 261/3/2
f 261/3/2 258/3/2 262/3/2
f 260/2/2 261/2/2 263/2/2
f 263/2/2 261/2/2 264/2/2
f 265/3/2 266/3/2 267/3/2
f 267/3/2 266/3/2 268/3/2
f 271/3/3 270/3/3 269/3/3
f 272/3/3 270/3/3 271/3/3
f 275/3/3 274/3/3 273/3/3
f 276/3/3 274/3/3 275/3/3
f 279/2/3 277/2/3 276/2/3
f 280/2/3 277/2/3 279/2/3
f 281/3/3 279/3/3 278/3/3
f 282/3/3 279/3/3 281/3/3
f 285/3/3 284/3/3 283/3/3
f 286/3/3 284/3/3 285/3/3
f 288/2/3 287/2/3 286/2/3
f 289/2/3 287/2/3 288/2/3
f 292/1/3 290/1/3 289/1/3
f 293/1/3 290/1/3 292/1/3
f 295/2/3 292/2/3 291/2/3
f 296/2/3 292/2/3 295/2/3
f 297/3/3 295/3/3 294/3/3
f 298/3/3 295/3/3 297/3/3
f 301/2/3 300/2/3 299/2/3
f 302/2/3 300/2/3 301/2/3
f 304/1/3 303/1/3 302/1/3
f 305/1/3 303/1/3 304/1/3
f 309/1/3 307/1/3 306/1/3
f 310/1/3 307/1/3 309/1/3
f 311/2/3 309/2/3 308/2/3
f 312/2/3 309/2/3 311/2/3
f 315/3/3 314/3/3 313/3/3
f 316/3/3 314/3/3 315/3/3
f 318/2/3 317/2/3 316/2/3
f 319/2/3 317/2/3 318/2/3
f 321/1/3 320/1/3 319/1/3
f 322/1/3 320/1/3 321/1/3
f 325/4/3 324/4/3 323/4/3
f 326/4/3 324/4/3 325/4/3
f 330/1/3 328/1/3 327/1/3
f 331/1/3 328/1/3 330/1/3
f 333/2/3 330/2/3 329/2/3
f 334/2/3 330/2/3 333/2/3
f 335/3/3 333/3/3 332/3/3
f 336/3/3 333/3/3 335/3/3
f 339/4/3 338/4/3 337/4/3
f 340/4/3 338/4/3 339/4/3
f 343/4/3 342/4/3 341/4/3
f 344/4/3 342/4/3 343/4/3
f 347/3/3 346/3/3 345/3/3
f 348/3/3 346/3/3 347/3/3
f 350/2/3 349/2/3 348/2/3
f 351/2/3 349/2/3 350/2/3
f 353/1/3 352/1/3 351/1/3
f 354/1/3 352/1/3 353/1/3
f 357/4/3 356/4/3 355/4/3
f 358/4/3 356/4/3 357/4/3
f 361/4/3 360/4/3 359/4/3
f 362/4/3 360/4/3 361/4/3
f 366/1/3 364/1/3 363/1/3
f 367/1/3 364/1/3 366/1/3
f 369/2/3 366/2/3 365/2/3
f 370/2/3 366/2/3 369/2/3
f 371/3/3 369/3/3 368/3/3
f 372/3/3 369/3/3 371/3/3
f 378/3/3 374/3/3 373/3/3
f 379/2/3 375/2/3 374/2/3
f 379/3/3 374/3/3 378/3/3
f 380/1/3 376/1/3 375/1/3
f 380/2/3 375/2/3 379/2/3
f 381/2/3 377/2/3 376/2/3
f 381/1/3 376/1/3 380/1/3
f 382/2/3 377/2/3 381/2/3
f 385/4/3 384/4/3 383/4/3
f 386/4/3 384/4/3 385/4/3
f 389/4/3 388/4/3 387/4/3
f 390/4/3 388/4/3 389/4/3
f 393/4/3 392/4/3 391/4/3
f 394/4/3 392/4/3 393/4/3
f 397/4/3 396/4/3 395/4/3
f 398/4/3 396/4/3 397/4/3
f 401/4/3 400/4/3 399/4/3
f 402/4/3 400/4/3 401/4/3
f 403/4/4 404/4/4 405/4/4
f 405/4/4 404/4/4 406/4/4
f 407/4/4 408/4/4 409/4/4
f 409/4/4 408/4/4 410/4/4
f 411/4/4 412/4/4 413/4/4
f 413/4/4 412/4/4 414/4/4
f 415/4/4 416/4/4 417/4/4
f 417/4/4 416/4/4 418/4/4
f 419/4/4 420/4/4 421/4/4
f 421/4/4 420/4/4 422/4/4
f 423/3/4 424/3/4 428/3/4
f 424/2/4 425/2/4 429/2/4
f 428/3/4 424/3/4 429/3/4
f 425/1/4 426/1/4 430/1/4
f 429/2/4 425/2/4 430/2/4
f 426/2/4 427/2/4 431/2/4
f 430/1/4 426/1/4 431/1/4
f 431/2/4 427/2/4 432/2/4
f 433/3/4 434/3/4 435/3/4
f 435/3/4 434/3/4 436/3/4
f 436/2/4 437/2/4 438/2/4
f 438/2/4 437/2/4 439/2/4
f 439/1/4 440/1/4 441/1/4
f 441/1/4 440/1/4 442/1/4
f 443/4/4 444/4/4 445/4/4
f 445/4/4 444/4/4 446/4/4
f 447/4/4 448/4/4 449/4/4
f 449/4/4 448/4/4 450/4/4
f 451/1/4 452/1/4 454/1/4
f 454/1/4 452/1/4 455/1/4
f 453/2/4 454/2/4 457/2/4
f 457/2/4 454/2/4 458/2/4
f 456/3/4 457/3/4 459/3/4
f 459/3/4 457/3/4 460/3/4
f 461/4/4 462/4/4 463/4/4
f 463/4/4 462/4/4 464/4/4
f 465/4/4 466/4/4 467/4/4
f 467/4/4 466/4/4 468/4/4
f 469/3/4 470/3/4 471/3/4
f 471/3/4 470/3/4 472/3/4
f 472/2/4 473/2/4 474/2/4
f 474/2/4 473/2/4 475/2/4
f 475/1/4 476/1/4 477/1/4
f 477/1/4 476/1/4 478/1/4
f 479/4/4 480/4/4 481/4/4
f 481/4/4 480/4/4 482/4/4
f 483/1/4 484/1/4 486/1/4
f 486/1/4 484/1/4 487/1/4
f 485/2/4 486/2/4 489/2/4
f 489/2/4 486/2/4 490/2/4
f 488/3/4 489/3/4 491/3/4
f 491/3/4 489/3/4 492/3/4
f 493/2/4 494/2/4 495/2/4
f 495/2/4 494/2/4 496/2/4
f 496/1/4 497/1/4 498/1/4
f 498/1/4 497/1/4 499/1/4
f 500/1/4 501/1/4 503/1/4
f 503/1/4 501/1/4 504/1/4
f 502/2/4 503/2/4 505/2/4
f 505/2/4 503/2/4 506/2/4
f 507/3/4 508/3/4 509/3/4
f 509/3/4 508/3/4 510/3/4
f 510/2/4 511/2/4 512/2/4
f 512/2/4 511/2/4 513/2/4
f 513/1/4 514/1/4 516/1/4
f 516/1/4 514/1/4 517/1/4
f 515/2/4 516/2/4 519/2/4
f 519/2/4 516/2/4 520/2/4
f 518/3/4 519/3/4 521/3/4
f 521/3/4 519/3/4 522/3/4
f 523/3/4 524/3/4 525/3/4
f 525/3/4 524/3/4 526/3/4
f 526/2/4 527/2/4 529/2/4
f 529/2/4 527/2/4 530/2/4
f 528/3/4 529/3/4 531/3/4
f 531/3/4 529/3/4 532/3/4
f 533/3/4 534/3/4 535/3/4
f 535/3/4 534/3/4 536/3/4
f 540/3/5 538/3/5 537/3/5
f 541/3/5 538/3/5 540/3/5
f 544/3/5 540/3/5 539/3/5
f 544/3/5 542/3/5 541/3/5
f 544/3/5 541/3/5 540/3/5
f 545/3/5 542/3/5 544/3/5
f 548/3/5 544/3/5 543/3/5
f 548/3/5 546/3/5 545/3/5
f 548/3/5 545/3/5 544/3/5
f 549/3/5 546/3/5 548/3/5
f 552/3/5 548/3/5 547/3/5
f 552/3/5 550/3/5 549/3/5
f 552/3/5 549/3/5 548/3/5
f 553/3/5 550/3/5 552/3/5
f 555/3/5 552/3/5 551/3/5
f 555/3/5 554/3/5 553/3/5
f 555/3/5 553/3/5 552/3/5
f 556/3/5 554/3/5 555/3/5
f 557/3/5 555/3/5 551/3/5
f 558/3/5 554/3/5 556/3/5
f 559/3/5 557/3/5 551/3/5
f 559/3/5 558/3/5 557/3/5
f 560/3/5 558/3/5 559/3/5
f 561/3/5 554/3/5 558/3/5
f 561/3/5 558/3/5 560/3/5
f 562/3/5 554/3/5 561/3/5
f 563/3/5 561/3/5 560/3/5
f 564/3/5 561/3/5 563/3/5
f 565/3/5 561/3/5 564/3/5
f 566/3/5 561/3/5 565/3/5
f 567/3/5 565/3/5 564/3/5
f 568/3/5 565/3/5 567/3/5
f 569/3/5 565/3/5 568/3/5
f 570/3/5 565/3/5 569/3/5
f 571/3/5 569/3/5 568/3/5
f 572/3/5 569/3/5 571/3/5
f 573/3/5 569/3/5 572/3/5
f 574/3/5 569/3/5 573/3/5
f 575/3/5 573/3/5 572/3/5
f 576/3/5 573/3/5 575/3/5
f 577/3/6 578/3/6 580/3/6
f 580/3/6 578/3/6 581/3/6
f 579/3/6 580/3/6 584/3/6
f 584/3/6 580/3/6 585/3/6
f 581/3/6 582/3/6 586/3/6
f 586/3/6 582/3/6 587/3/6
f 583/3/6 584/3/6 589/3/6
f 589/3/6 584/3/6 590/3/6
f 587/3/6 588/3/6 591/3/6
f 591/3/6 588/3/6 592/3/6
f 583/3/6 589/3/6 594/3/6
f 594/3/6 589/3/6 595/3/6
f 592/3/6 588/3/6 596/3/6
f 596/3/6 588/3/6 597/3/6
f 593/3/6 594/3/6 600/3/6
f 600/3/6 594/3/6 601/3/6
f 597/3/6 598/3/6 602/3/6
f 602/3/6 598/3/6 603/3/6
f 599/3/6 600/3/6 605/3/6
f 605/3/6 600/3/6 606/3/6
f 603/3/6 604/3/6 609/3/6
f 609/3/6 604/3/6 610/3/6
f 606/3/6 607/3/6 611/3/6
f 611/3/6 607/3/6 612/3/6
f 608/3/6 609/3/6 615/3/6
f 615/3/6 609/3/6 616/3/6
f 612/3/6 613/3/6 617/3/6
f 614/3/6 615/3/6 620/3/6
f 617/3/6 618/3/6 621/3/6
f 612/3/6 617/3/6 621/3/6
f 621/3/6 618/3/6 622/3/6
f 619/3/6 620/3/6 625/3/6
f 620/3/6 615/3/6 626/3/6
f 625/3/6 620/3/6 626/3/6
f 622/3/6 623/3/6 627/3/6
f 627/3/6 623/3/6 628/3/6
f 624/3/6 625/3/6 629/3/6
f 629/3/6 625/3/6 630/3/6
f 628/3/6 629/3/6 631/3/6
f 631/3/6 629/3/6 632/3/6
f 633/2/6 634/2/6 636/2/6
f 636/2/6 634/2/6 637/2/6
f 635/2/6 636/2/6 640/2/6
f 640/2/6 636/2/6 641/2/6
f 637/2/6 638/2/6 642/2/6
f 642/2/6 638/2/6 643/2/6
f 639/2/6 640/2/6 646/2/6
f 646/2/6 640/2/6 647/2/6
f 643/2/6 644/2/6 648/2/6
f 648/2/6 644/2/6 649/2/6
f 645/2/6 646/2/6 652/2/6
f 652/2/6 646/2/6 653/2/6
f 649/2/6 650/2/6 654/2/6
f 654/2/6 650/2/6 655/2/6
f 651/2/6 652/2/6 657/2/6
f 657/2/6 652/2/6 658/2/6
f 655/2/6 656/2/6 661/2/6
f 661/2/6 656/2/6 662/2/6
f 658/2/6 659/2/6 663/2/6
f 663/2/6 659/2/6 664/2/6
f 660/2/6 661/2/6 667/2/6
f 667/2/6 661/2/6 668/2/6
f 664/2/6 665/2/6 669/2/6
f 669/2/6 665/2/6 670/2/6
f 666/2/6 667/2/6 673/2/6
f 673/2/6 667/2/6 674/2/6
f 670/2/6 671/2/6 675/2/6
f 675/2/6 671/2/6 676/2/6
f 672/2/6 673/2/6 677/2/6
f 677/2/6 673/2/6 678/2/6
f 676/2/6 677/2/6 679/2/6
f 679/2/6 677/2/6 680/2/6
f 681/1/6 682/1/6 684/1/6
f 684/1/6 682/1/6 685/1/6
f 683/1/6 684/1/6 688/1/6
f 685/1/6 686/1/6 688/1/6
f 684/1/6 685/1/6 688/1/6
f 688/1/6 686/1/6 689/1/6
f 689/1/6 686/1/6 690/1/6
f 690/1/6 686/1/6 691/1/6
f 687/1/6 688/1/6 693/1/6
f 688/1/6 689/1/6 693/1/6
f 693/1/6 689/1/6 694/1/6
f 691/1/6 692/1/6 697/1/6
f 690/1/6 691/1/6 697/1/6
f 697/1/6 692/1/6 698/1/6
f 687/1/6 693/1/6 700/1/6
f 700/1/6 693/1/6 701/1/6
f 701/1/6 693/1/6 702/1/6
f 695/2/6 696/2/6 704/2/6
f 704/2/6 696/2/6 705/2/6
f 698/1/6 692/1/6 707/1/6
f 707/1/6 692/1/6 708/1/6
f 708/1/6 692/1/6 709/1/6
f 705/2/6 706/2/6 712/2/6
f 703/2/6 704/2/6 712/2/6
f 704/2/6 705/2/6 712/2/6
f 712/2/6 706/2/6 713/2/6
f 711/2/6 712/2/6 715/2/6
f 713/2/6 714/2/6 715/2/6
f 712/2/6 713/2/6 715/2/6
f 715/2/6 714/2/6 716/2/6
f 711/2/6 715/2/6 717/2/6
f 716/2/6 714/2/6 718/2/6
f 711/2/6 717/2/6 719/2/6
f 717/2/6 718/2/6 719/2/6
f 719/2/6 718/2/6 720/2/6
f 718/2/6 714/2/6 721/2/6
f 720/2/6 718/2/6 721/2/6
f 721/2/6 714/2/6 722/2/6
f 699/1/6 700/1/6 723/1/6
f 700/1/6 701/1/6 723/1/6
f 723/1/6 701/1/6 724/1/6
f 724/1/6 701/1/6 725/1/6
f 720/2/6 721/2/6 727/2/6
f 727/2/6 721/2/6 728/2/6
f 728/2/6 721/2/6 729/2/6
f 729/2/6 721/2/6 730/2/6
f 709/1/6 710/1/6 732/1/6
f 708/1/6 709/1/6 732/1/6
f 732/1/6 710/1/6 733/1/6
f 733/1/6 710/1/6 734/1/6
f 725/1/6 726/1/6 735/1/6
f 724/1/6 725/1/6 735/1/6
f 728/2/6 729/2/6 737/2/6
f 737/2/6 729/2/6 738/2/6
f 732/1/6 733/1/6 740/1/6
f 731/1/6 732/1/6 740/1/6
f 735/1/6 736/1/6 741/1/6
f 724/1/6 735/1/6 741/1/6
f 741/1/6 736/1/6 742/1/6
f 742/1/6 736/1/6 743/1/6
f 739/1/6 740/1/6 744/1/6
f 740/1/6 733/1/6 745/1/6
f 744/1/6 740/1/6 745/1/6
f 745/1/6 733/1/6 746/1/6
f 742/1/6 743/1/6 747/1/6
f 743/1/6 744/1/6 747/1/6
f 744/1/6 745/1/6 747/1/6
f 747/1/6 745/1/6 748/1/6
f 748/1/6 745/1/6 749/1/6
f 749/1/6 745/1/6 750/1/6
f 748/1/6 749/1/6 751/1/6
f 751/1/6 749/1/6 752/1/6
f 753/4/6 754/4/6 756/4/6
f 756/4/6 754/4/6 757/4/6
f 757/4/6 754/4/6 758/4/6
f 758/4/6 754/4/6 759/4/6
f 755/4/6 756/4/6 762/4/6
f 756/4/6 757/4/6 762/4/6
f 762/4/6 757/4/6 763/4/6
f 763/4/6 757/4/6 764/4/6
f 758/4/6 759/4/6 765/4/6
f 759/4/6 760/4/6 765/4/6
f 765/4/6 760/4/6 766/4/6
f 766/4/6 760/4/6 767/4/6
f 762/4/6 763/4/6 769/4/6
f 761/4/6 762/4/6 769/4/6
f 769/4/6 763/4/6 770/4/6
f 767/4/6 768/4/6 771/4/6
f 766/4/6 767/4/6 771/4/6
f 771/4/6 768/4/6 772/4/6
f 761/4/6 769/4/6 773/4/6
f 772/4/6 768/4/6 776/4/6
f 773/4/6 774/4/6 777/4/6
f 761/4/6 773/4/6 777/4/6
f 777/4/6 774/4/6 778/4/6
f 778/4/6 774/4/6 779/4/6
f 775/4/6 776/4/6 782/4/6
f 776/4/6 768/4/6 783/4/6
f 782/4/6 776/4/6 783/4/6
f 783/4/6 768/4/6 784/4/6
f 779/4/6 780/4/6 785/4/6
f 778/4/6 779/4/6 785/4/6
f 785/4/6 780/4/6 786/4/6
f 786/4/6 780/4/6 787/4/6
f 781/4/6 782/4/6 788/4/6
f 782/4/6 783/4/6 788/4/6
f 788/4/6 783/4/6 789/4/6
f 789/4/6 783/4/6 790/4/6
f 786/4/6 787/4/6 791/4/6
f 788/4/6 789/4/6 791/4/6
f 787/4/6 788/4/6 791/4/6
f 791/4/6 789/4/6 792/4/6
