# MagicaVoxel @ Ephtracy

# group
g top

# material
mtllib top.mtl
usemtl palette

# normals
vn -1 0 0
vn 1 0 0
vn 0 0 1
vn 0 0 -1
vn 0 -1 0
vn 0 1 0

# texcoords
vt 0.869141 0.5

# verts
v -57 0 -47
v -57 0 -60
v -57 120 -47
v -57 120 -60
v -56 0 -39
v -56 0 -47
v -56 120 -39
v -56 120 -47
v -55 0 -34
v -55 0 -39
v -55 120 -34
v -55 120 -39
v -54 0 -29
v -54 0 -34
v -54 120 -29
v -54 120 -34
v -53 0 -26
v -53 0 -29
v -53 120 -26
v -53 120 -29
v -52 0 -22
v -52 0 -26
v -52 120 -22
v -52 120 -26
v -51 0 -19
v -51 0 -22
v -51 120 -19
v -51 120 -22
v -50 0 -17
v -50 0 -19
v -50 120 -17
v -50 120 -19
v -49 0 -14
v -49 0 -17
v -49 120 -14
v -49 120 -17
v -48 0 -12
v -48 0 -14
v -48 120 -12
v -48 120 -14
v -47 0 -9
v -47 0 -12
v -47 120 -9
v -47 120 -12
v -46 0 -7
v -46 0 -9
v -46 120 -7
v -46 120 -9
v -45 0 -5
v -45 0 -7
v -45 120 -5
v -45 120 -7
v -44 0 -3
v -44 0 -5
v -44 120 -3
v -44 120 -5
v -43 0 -1
v -43 0 -3
v -43 120 -1
v -43 120 -3
v -42 0 -0
v -42 0 -1
v -42 120 -0
v -42 120 -1
v -41 0 2
v -41 0 -0
v -41 120 2
v -41 120 -0
v -40 0 4
v -40 0 2
v -40 120 4
v -40 120 2
v -39 0 5
v -39 0 4
v -39 120 5
v -39 120 4
v -38 0 7
v -38 0 5
v -38 120 7
v -38 120 5
v -37 0 8
v -37 0 7
v -37 120 8
v -37 120 7
v -36 0 10
v -36 0 8
v -36 120 10
v -36 120 8
v -35 0 11
v -35 0 10
v -35 120 11
v -35 120 10
v -34 0 12
v -34 0 11
v -34 120 12
v -34 120 11
v -33 0 14
v -33 0 12
v -33 120 14
v -33 120 12
v -32 0 15
v -32 0 14
v -32 120 15
v -32 120 14
v -31 0 16
v -31 0 15
v -31 120 16
v -31 120 15
v -30 0 17
v -30 0 16
v -30 120 17
v -30 120 16
v -29 0 18
v -29 0 17
v -29 120 18
v -29 120 17
v -28 0 20
v -28 0 18
v -28 120 20
v -28 120 18
v -27 0 21
v -27 0 20
v -27 120 21
v -27 120 20
v -26 0 22
v -26 0 21
v -26 120 22
v -26 120 21
v -25 0 23
v -25 0 22
v -25 120 23
v -25 120 22
v -24 0 24
v -24 0 23
v -24 120 24
v -24 120 23
v -23 0 25
v -23 0 24
v -23 120 25
v -23 120 24
v -22 0 26
v -22 0 25
v -22 120 26
v -22 120 25
v -21 0 27
v -21 0 26
v -21 120 27
v -21 120 26
v -20 0 28
v -20 0 27
v -20 120 28
v -20 120 27
v -19 0 29
v -19 0 28
v -19 120 29
v -19 120 28
v -17 0 30
v -17 0 29
v -17 120 30
v -17 120 29
v -16 0 31
v -16 0 30
v -16 120 31
v -16 120 30
v -15 0 32
v -15 0 31
v -15 120 32
v -15 120 31
v -14 0 33
v -14 0 32
v -14 120 33
v -14 120 32
v -13 0 34
v -13 0 33
v -13 120 34
v -13 120 33
v -11 0 35
v -11 0 34
v -11 120 35
v -11 120 34
v -10 0 36
v -10 0 35
v -10 120 36
v -10 120 35
v -9 0 37
v -9 0 36
v -9 120 37
v -9 120 36
v -7 0 38
v -7 0 37
v -7 120 38
v -7 120 37
v -6 0 39
v -6 0 38
v -6 120 39
v -6 120 38
v -4 0 40
v -4 0 39
v -4 120 40
v -4 120 39
v -3 0 41
v -3 0 40
v -3 120 41
v -3 120 40
v -1 0 42
v -1 0 41
v -1 120 42
v -1 120 41
v 1 0 43
v 1 0 42
v 1 120 43
v 1 120 42
v 2 0 44
v 2 0 43
v 2 120 44
v 2 120 43
v 4 0 45
v 4 0 44
v 4 120 45
v 4 120 44
v 6 0 46
v 6 0 45
v 6 120 46
v 6 120 45
v 8 0 47
v 8 0 46
v 8 120 47
v 8 120 46
v 10 0 48
v 10 0 47
v 10 120 48
v 10 120 47
v 13 0 49
v 13 0 48
v 13 120 49
v 13 120 48
v 15 0 50
v 15 0 49
v 15 120 50
v 15 120 49
v 18 0 51
v 18 0 50
v 18 120 51
v 18 120 50
v 20 0 52
v 20 0 51
v 20 120 52
v 20 120 51
v 23 0 53
v 23 0 52
v 23 120 53
v 23 120 52
v 27 0 54
v 27 0 53
v 27 120 54
v 27 120 53
v 30 0 55
v 30 0 54
v 30 120 55
v 30 120 54
v 35 0 56
v 35 0 55
v 35 120 56
v 35 120 55
v 40 0 57
v 40 0 56
v 40 120 57
v 40 120 56
v 48 0 58
v 48 0 57
v 48 120 58
v 48 120 57
v 59 0 -57
v 59 0 -58
v 59 120 -57
v 59 120 -58
v 58 0 -57
v 58 0 -58
v 58 120 -57
v 58 120 -58
v 60 0 58
v 60 0 -60
v 60 120 58
v 60 120 -60
v 48 0 58
v 48 120 58
v 60 0 58
v 60 120 58
v 40 0 57
v 40 120 57
v 48 0 57
v 48 120 57
v 35 0 56
v 35 120 56
v 40 0 56
v 40 120 56
v 30 0 55
v 30 120 55
v 35 0 55
v 35 120 55
v 27 0 54
v 27 120 54
v 30 0 54
v 30 120 54
v 23 0 53
v 23 120 53
v 27 0 53
v 27 120 53
v 20 0 52
v 20 120 52
v 23 0 52
v 23 120 52
v 18 0 51
v 18 120 51
v 20 0 51
v 20 120 51
v 15 0 50
v 15 120 50
v 18 0 50
v 18 120 50
v 13 0 49
v 13 120 49
v 15 0 49
v 15 120 49
v 10 0 48
v 10 120 48
v 13 0 48
v 13 120 48
v 8 0 47
v 8 120 47
v 10 0 47
v 10 120 47
v 6 0 46
v 6 120 46
v 8 0 46
v 8 120 46
v 4 0 45
v 4 120 45
v 6 0 45
v 6 120 45
v 2 0 44
v 2 120 44
v 4 0 44
v 4 120 44
v 1 0 43
v 1 120 43
v 2 0 43
v 2 120 43
v -1 0 42
v -1 120 42
v 1 0 42
v 1 120 42
v -3 0 41
v -3 120 41
v -1 0 41
v -1 120 41
v -4 0 40
v -4 120 40
v -3 0 40
v -3 120 40
v -6 0 39
v -6 120 39
v -4 0 39
v -4 120 39
v -7 0 38
v -7 120 38
v -6 0 38
v -6 120 38
v -9 0 37
v -9 120 37
v -7 0 37
v -7 120 37
v -10 0 36
v -10 120 36
v -9 0 36
v -9 120 36
v -11 0 35
v -11 120 35
v -10 0 35
v -10 120 35
v -13 0 34
v -13 120 34
v -11 0 34
v -11 120 34
v -14 0 33
v -14 120 33
v -13 0 33
v -13 120 33
v -15 0 32
v -15 120 32
v -14 0 32
v -14 120 32
v -16 0 31
v -16 120 31
v -15 0 31
v -15 120 31
v -17 0 30
v -17 120 30
v -16 0 30
v -16 120 30
v -19 0 29
v -19 120 29
v -17 0 29
v -17 120 29
v -20 0 28
v -20 120 28
v -19 0 28
v -19 120 28
v -21 0 27
v -21 120 27
v -20 0 27
v -20 120 27
v -22 0 26
v -22 120 26
v -21 0 26
v -21 120 26
v -23 0 25
v -23 120 25
v -22 0 25
v -22 120 25
v -24 0 24
v -24 120 24
v -23 0 24
v -23 120 24
v -25 0 23
v -25 120 23
v -24 0 23
v -24 120 23
v -26 0 22
v -26 120 22
v -25 0 22
v -25 120 22
v -27 0 21
v -27 120 21
v -26 0 21
v -26 120 21
v -28 0 20
v -28 120 20
v -27 0 20
v -27 120 20
v -29 0 18
v -29 120 18
v -28 0 18
v -28 120 18
v -30 0 17
v -30 120 17
v -29 0 17
v -29 120 17
v -31 0 16
v -31 120 16
v -30 0 16
v -30 120 16
v -32 0 15
v -32 120 15
v -31 0 15
v -31 120 15
v -33 0 14
v -33 120 14
v -32 0 14
v -32 120 14
v -34 0 12
v -34 120 12
v -33 0 12
v -33 120 12
v -35 0 11
v -35 120 11
v -34 0 11
v -34 120 11
v -36 0 10
v -36 120 10
v -35 0 10
v -35 120 10
v -37 0 8
v -37 120 8
v -36 0 8
v -36 120 8
v -38 0 7
v -38 120 7
v -37 0 7
v -37 120 7
v -39 0 5
v -39 120 5
v -38 0 5
v -38 120 5
v -40 0 4
v -40 120 4
v -39 0 4
v -39 120 4
v -41 0 2
v -41 120 2
v -40 0 2
v -40 120 2
v -42 0 -0
v -42 120 -0
v -41 0 -0
v -41 120 -0
v -43 0 -1
v -43 120 -1
v -42 0 -1
v -42 120 -1
v -44 0 -3
v -44 120 -3
v -43 0 -3
v -43 120 -3
v -45 0 -5
v -45 120 -5
v -44 0 -5
v -44 120 -5
v -46 0 -7
v -46 120 -7
v -45 0 -7
v -45 120 -7
v -47 0 -9
v -47 120 -9
v -46 0 -9
v -46 120 -9
v -48 0 -12
v -48 120 -12
v -47 0 -12
v -47 120 -12
v -49 0 -14
v -49 120 -14
v -48 0 -14
v -48 120 -14
v -50 0 -17
v -50 120 -17
v -49 0 -17
v -49 120 -17
v -51 0 -19
v -51 120 -19
v -50 0 -19
v -50 120 -19
v -52 0 -22
v -52 120 -22
v -51 0 -22
v -51 120 -22
v -53 0 -26
v -53 120 -26
v -52 0 -26
v -52 120 -26
v -54 0 -29
v -54 120 -29
v -53 0 -29
v -53 120 -29
v -55 0 -34
v -55 120 -34
v -54 0 -34
v -54 120 -34
v -56 0 -39
v -56 120 -39
v -55 0 -39
v -55 120 -39
v -57 0 -47
v -57 120 -47
v -56 0 -47
v -56 120 -47
v 58 0 -58
v 58 120 -58
v 59 0 -58
v 59 120 -58
v 58 0 -57
v 58 120 -57
v 59 0 -57
v 59 120 -57
v -57 0 -60
v -57 120 -60
v 60 0 -60
v 60 120 -60
v 48 0 58
v 60 0 58
v 40 0 57
v 48 0 57
v 35 0 56
v 40 0 56
v 30 0 55
v 35 0 55
v 27 0 54
v 30 0 54
v 23 0 53
v 27 0 53
v 20 0 52
v 23 0 52
v 18 0 51
v 20 0 51
v 15 0 50
v 18 0 50
v 13 0 49
v 15 0 49
v 10 0 48
v 13 0 48
v 8 0 47
v 10 0 47
v 6 0 46
v 8 0 46
v 4 0 45
v 6 0 45
v 2 0 44
v 4 0 44
v 1 0 43
v 2 0 43
v -1 0 42
v 1 0 42
v -3 0 41
v -1 0 41
v -4 0 40
v -3 0 40
v -6 0 39
v -4 0 39
v -7 0 38
v -6 0 38
v -9 0 37
v -7 0 37
v -10 0 36
v -9 0 36
v -11 0 35
v -10 0 35
v -13 0 34
v -11 0 34
v -14 0 33
v -13 0 33
v -15 0 32
v -14 0 32
v -16 0 31
v -15 0 31
v -17 0 30
v -16 0 30
v -19 0 29
v -17 0 29
v -20 0 28
v -19 0 28
v -21 0 27
v -20 0 27
v -22 0 26
v -21 0 26
v -23 0 25
v -22 0 25
v -24 0 24
v -23 0 24
v -25 0 23
v -24 0 23
v -26 0 22
v -25 0 22
v -27 0 21
v -26 0 21
v -28 0 20
v -27 0 20
v -29 0 18
v -28 0 18
v -30 0 17
v -29 0 17
v -31 0 16
v -30 0 16
v -32 0 15
v -31 0 15
v -33 0 14
v -32 0 14
v -34 0 12
v -33 0 12
v -35 0 11
v -34 0 11
v -36 0 10
v -35 0 10
v -37 0 8
v -36 0 8
v -38 0 7
v -37 0 7
v -39 0 5
v -38 0 5
v -40 0 4
v -39 0 4
v -41 0 2
v -40 0 2
v -42 0 -0
v -41 0 -0
v -43 0 -1
v -42 0 -1
v -44 0 -3
v -43 0 -3
v -45 0 -5
v -44 0 -5
v -46 0 -7
v -45 0 -7
v -47 0 -9
v -46 0 -9
v -48 0 -12
v -47 0 -12
v -49 0 -14
v -48 0 -14
v -50 0 -17
v -49 0 -17
v -51 0 -19
v -50 0 -19
v -52 0 -22
v -51 0 -22
v -53 0 -26
v -52 0 -26
v -54 0 -29
v -53 0 -29
v -55 0 -34
v -54 0 -34
v -56 0 -39
v -55 0 -39
v -57 0 -47
v -56 0 -47
v 58 0 -57
v 59 0 -57
v 58 0 -58
v 59 0 -58
v -57 0 -60
v 60 0 -60
v 48 120 58
v 60 120 58
v 40 120 57
v 48 120 57
v 35 120 56
v 40 120 56
v 30 120 55
v 35 120 55
v 27 120 54
v 30 120 54
v 23 120 53
v 27 120 53
v 20 120 52
v 23 120 52
v 18 120 51
v 20 120 51
v 15 120 50
v 18 120 50
v 13 120 49
v 15 120 49
v 10 120 48
v 13 120 48
v 8 120 47
v 10 120 47
v 6 120 46
v 8 120 46
v 4 120 45
v 6 120 45
v 2 120 44
v 4 120 44
v 1 120 43
v 2 120 43
v -1 120 42
v 1 120 42
v -3 120 41
v -1 120 41
v -4 120 40
v -3 120 40
v -6 120 39
v -4 120 39
v -7 120 38
v -6 120 38
v -9 120 37
v -7 120 37
v -10 120 36
v -9 120 36
v -11 120 35
v -10 120 35
v -13 120 34
v -11 120 34
v -14 120 33
v -13 120 33
v -15 120 32
v -14 120 32
v -16 120 31
v -15 120 31
v -17 120 30
v -16 120 30
v -19 120 29
v -17 120 29
v -20 120 28
v -19 120 28
v -21 120 27
v -20 120 27
v -22 120 26
v -21 120 26
v -23 120 25
v -22 120 25
v -24 120 24
v -23 120 24
v -25 120 23
v -24 120 23
v -26 120 22
v -25 120 22
v -27 120 21
v -26 120 21
v -28 120 20
v -27 120 20
v -29 120 18
v -28 120 18
v -30 120 17
v -29 120 17
v -31 120 16
v -30 120 16
v -32 120 15
v -31 120 15
v -33 120 14
v -32 120 14
v -34 120 12
v -33 120 12
v -35 120 11
v -34 120 11
v -36 120 10
v -35 120 10
v -37 120 8
v -36 120 8
v -38 120 7
v -37 120 7
v -39 120 5
v -38 120 5
v -40 120 4
v -39 120 4
v -41 120 2
v -40 120 2
v -42 120 -0
v -41 120 -0
v -43 120 -1
v -42 120 -1
v -44 120 -3
v -43 120 -3
v -45 120 -5
v -44 120 -5
v -46 120 -7
v -45 120 -7
v -47 120 -9
v -46 120 -9
v -48 120 -12
v -47 120 -12
v -49 120 -14
v -48 120 -14
v -50 120 -17
v -49 120 -17
v -51 120 -19
v -50 120 -19
v -52 120 -22
v -51 120 -22
v -53 120 -26
v -52 120 -26
v -54 120 -29
v -53 120 -29
v -55 120 -34
v -54 120 -34
v -56 120 -39
v -55 120 -39
v -57 120 -47
v -56 120 -47
v 58 120 -57
v 59 120 -57
v 58 120 -58
v 59 120 -58
v -57 120 -60
v 60 120 -60

# faces
f 3/1/1 2/1/1 1/1/1
f 4/1/1 2/1/1 3/1/1
f 7/1/1 6/1/1 5/1/1
f 8/1/1 6/1/1 7/1/1
f 11/1/1 10/1/1 9/1/1
f 12/1/1 10/1/1 11/1/1
f 15/1/1 14/1/1 13/1/1
f 16/1/1 14/1/1 15/1/1
f 19/1/1 18/1/1 17/1/1
f 20/1/1 18/1/1 19/1/1
f 23/1/1 22/1/1 21/1/1
f 24/1/1 22/1/1 23/1/1
f 27/1/1 26/1/1 25/1/1
f 28/1/1 26/1/1 27/1/1
f 31/1/1 30/1/1 29/1/1
f 32/1/1 30/1/1 31/1/1
f 35/1/1 34/1/1 33/1/1
f 36/1/1 34/1/1 35/1/1
f 39/1/1 38/1/1 37/1/1
f 40/1/1 38/1/1 39/1/1
f 43/1/1 42/1/1 41/1/1
f 44/1/1 42/1/1 43/1/1
f 47/1/1 46/1/1 45/1/1
f 48/1/1 46/1/1 47/1/1
f 51/1/1 50/1/1 49/1/1
f 52/1/1 50/1/1 51/1/1
f 55/1/1 54/1/1 53/1/1
f 56/1/1 54/1/1 55/1/1
f 59/1/1 58/1/1 57/1/1
f 60/1/1 58/1/1 59/1/1
f 63/1/1 62/1/1 61/1/1
f 64/1/1 62/1/1 63/1/1
f 67/1/1 66/1/1 65/1/1
f 68/1/1 66/1/1 67/1/1
f 71/1/1 70/1/1 69/1/1
f 72/1/1 70/1/1 71/1/1
f 75/1/1 74/1/1 73/1/1
f 76/1/1 74/1/1 75/1/1
f 79/1/1 78/1/1 77/1/1
f 80/1/1 78/1/1 79/1/1
f 83/1/1 82/1/1 81/1/1
f 84/1/1 82/1/1 83/1/1
f 87/1/1 86/1/1 85/1/1
f 88/1/1 86/1/1 87/1/1
f 91/1/1 90/1/1 89/1/1
f 92/1/1 90/1/1 91/1/1
f 95/1/1 94/1/1 93/1/1
f 96/1/1 94/1/1 95/1/1
f 99/1/1 98/1/1 97/1/1
f 100/1/1 98/1/1 99/1/1
f 103/1/1 102/1/1 101/1/1
f 104/1/1 102/1/1 103/1/1
f 107/1/1 106/1/1 105/1/1
f 108/1/1 106/1/1 107/1/1
f 111/1/1 110/1/1 109/1/1
f 112/1/1 110/1/1 111/1/1
f 115/1/1 114/1/1 113/1/1
f 116/1/1 114/1/1 115/1/1
f 119/1/1 118/1/1 117/1/1
f 120/1/1 118/1/1 119/1/1
f 123/1/1 122/1/1 121/1/1
f 124/1/1 122/1/1 123/1/1
f 127/1/1 126/1/1 125/1/1
f 128/1/1 126/1/1 127/1/1
f 131/1/1 130/1/1 129/1/1
f 132/1/1 130/1/1 131/1/1
f 135/1/1 134/1/1 133/1/1
f 136/1/1 134/1/1 135/1/1
f 139/1/1 138/1/1 137/1/1
f 140/1/1 138/1/1 139/1/1
f 143/1/1 142/1/1 141/1/1
f 144/1/1 142/1/1 143/1/1
f 147/1/1 146/1/1 145/1/1
f 148/1/1 146/1/1 147/1/1
f 151/1/1 150/1/1 149/1/1
f 152/1/1 150/1/1 151/1/1
f 155/1/1 154/1/1 153/1/1
f 156/1/1 154/1/1 155/1/1
f 159/1/1 158/1/1 157/1/1
f 160/1/1 158/1/1 159/1/1
f 163/1/1 162/1/1 161/1/1
f 164/1/1 162/1/1 163/1/1
f 167/1/1 166/1/1 165/1/1
f 168/1/1 166/1/1 167/1/1
f 171/1/1 170/1/1 169/1/1
f 172/1/1 170/1/1 171/1/1
f 175/1/1 174/1/1 173/1/1
f 176/1/1 174/1/1 175/1/1
f 179/1/1 178/1/1 177/1/1
f 180/1/1 178/1/1 179/1/1
f 183/1/1 182/1/1 181/1/1
f 184/1/1 182/1/1 183/1/1
f 187/1/1 186/1/1 185/1/1
f 188/1/1 186/1/1 187/1/1
f 191/1/1 190/1/1 189/1/1
f 192/1/1 190/1/1 191/1/1
f 195/1/1 194/1/1 193/1/1
f 196/1/1 194/1/1 195/1/1
f 199/1/1 198/1/1 197/1/1
f 200/1/1 198/1/1 199/1/1
f 203/1/1 202/1/1 201/1/1
f 204/1/1 202/1/1 203/1/1
f 207/1/1 206/1/1 205/1/1
f 208/1/1 206/1/1 207/1/1
f 211/1/1 210/1/1 209/1/1
f 212/1/1 210/1/1 211/1/1
f 215/1/1 214/1/1 213/1/1
f 216/1/1 214/1/1 215/1/1
f 219/1/1 218/1/1 217/1/1
f 220/1/1 218/1/1 219/1/1
f 223/1/1 222/1/1 221/1/1
f 224/1/1 222/1/1 223/1/1
f 227/1/1 226/1/1 225/1/1
f 228/1/1 226/1/1 227/1/1
f 231/1/1 230/1/1 229/1/1
f 232/1/1 230/1/1 231/1/1
f 235/1/1 234/1/1 233/1/1
f 236/1/1 234/1/1 235/1/1
f 239/1/1 238/1/1 237/1/1
f 240/1/1 238/1/1 239/1/1
f 243/1/1 242/1/1 241/1/1
f 244/1/1 242/1/1 243/1/1
f 247/1/1 246/1/1 245/1/1
f 248/1/1 246/1/1 247/1/1
f 251/1/1 250/1/1 249/1/1
f 252/1/1 250/1/1 251/1/1
f 255/1/1 254/1/1 253/1/1
f 256/1/1 254/1/1 255/1/1
f 259/1/1 258/1/1 257/1/1
f 260/1/1 258/1/1 259/1/1
f 263/1/1 262/1/1 261/1/1
f 264/1/1 262/1/1 263/1/1
f 267/1/1 266/1/1 265/1/1
f 268/1/1 266/1/1 267/1/1
f 271/1/1 270/1/1 269/1/1
f 272/1/1 270/1/1 271/1/1
f 275/1/1 274/1/1 273/1/1
f 276/1/1 274/1/1 275/1/1
f 277/1/2 278/1/2 279/1/2
f 279/1/2 278/1/2 280/1/2
f 281/1/2 282/1/2 283/1/2
f 283/1/2 282/1/2 284/1/2
f 287/1/3 286/1/3 285/1/3
f 288/1/3 286/1/3 287/1/3
f 291/1/3 290/1/3 289/1/3
f 292/1/3 290/1/3 291/1/3
f 295/1/3 294/1/3 293/1/3
f 296/1/3 294/1/3 295/1/3
f 299/1/3 298/1/3 297/1/3
f 300/1/3 298/1/3 299/1/3
f 303/1/3 302/1/3 301/1/3
f 304/1/3 302/1/3 303/1/3
f 307/1/3 306/1/3 305/1/3
f 308/1/3 306/1/3 307/1/3
f 311/1/3 310/1/3 309/1/3
f 312/1/3 310/1/3 311/1/3
f 315/1/3 314/1/3 313/1/3
f 316/1/3 314/1/3 315/1/3
f 319/1/3 318/1/3 317/1/3
f 320/1/3 318/1/3 319/1/3
f 323/1/3 322/1/3 321/1/3
f 324/1/3 322/1/3 323/1/3
f 327/1/3 326/1/3 325/1/3
f 328/1/3 326/1/3 327/1/3
f 331/1/3 330/1/3 329/1/3
f 332/1/3 330/1/3 331/1/3
f 335/1/3 334/1/3 333/1/3
f 336/1/3 334/1/3 335/1/3
f 339/1/3 338/1/3 337/1/3
f 340/1/3 338/1/3 339/1/3
f 343/1/3 342/1/3 341/1/3
f 344/1/3 342/1/3 343/1/3
f 347/1/3 346/1/3 345/1/3
f 348/1/3 346/1/3 347/1/3
f 351/1/3 350/1/3 349/1/3
f 352/1/3 350/1/3 351/1/3
f 355/1/3 354/1/3 353/1/3
f 356/1/3 354/1/3 355/1/3
f 359/1/3 358/1/3 357/1/3
f 360/1/3 358/1/3 359/1/3
f 363/1/3 362/1/3 361/1/3
f 364/1/3 362/1/3 363/1/3
f 367/1/3 366/1/3 365/1/3
f 368/1/3 366/1/3 367/1/3
f 371/1/3 370/1/3 369/1/3
f 372/1/3 370/1/3 371/1/3
f 375/1/3 374/1/3 373/1/3
f 376/1/3 374/1/3 375/1/3
f 379/1/3 378/1/3 377/1/3
f 380/1/3 378/1/3 379/1/3
f 383/1/3 382/1/3 381/1/3
f 384/1/3 382/1/3 383/1/3
f 387/1/3 386/1/3 385/1/3
f 388/1/3 386/1/3 387/1/3
f 391/1/3 390/1/3 389/1/3
f 392/1/3 390/1/3 391/1/3
f 395/1/3 394/1/3 393/1/3
f 396/1/3 394/1/3 395/1/3
f 399/1/3 398/1/3 397/1/3
f 400/1/3 398/1/3 399/1/3
f 403/1/3 402/1/3 401/1/3
f 404/1/3 402/1/3 403/1/3
f 407/1/3 406/1/3 405/1/3
f 408/1/3 406/1/3 407/1/3
f 411/1/3 410/1/3 409/1/3
f 412/1/3 410/1/3 411/1/3
f 415/1/3 414/1/3 413/1/3
f 416/1/3 414/1/3 415/1/3
f 419/1/3 418/1/3 417/1/3
f 420/1/3 418/1/3 419/1/3
f 423/1/3 422/1/3 421/1/3
f 424/1/3 422/1/3 423/1/3
f 427/1/3 426/1/3 425/1/3
f 428/1/3 426/1/3 427/1/3
f 431/1/3 430/1/3 429/1/3
f 432/1/3 430/1/3 431/1/3
f 435/1/3 434/1/3 433/1/3
f 436/1/3 434/1/3 435/1/3
f 439/1/3 438/1/3 437/1/3
f 440/1/3 438/1/3 439/1/3
f 443/1/3 442/1/3 441/1/3
f 444/1/3 442/1/3 443/1/3
f 447/1/3 446/1/3 445/1/3
f 448/1/3 446/1/3 447/1/3
f 451/1/3 450/1/3 449/1/3
f 452/1/3 450/1/3 451/1/3
f 455/1/3 454/1/3 453/1/3
f 456/1/3 454/1/3 455/1/3
f 459/1/3 458/1/3 457/1/3
f 460/1/3 458/1/3 459/1/3
f 463/1/3 462/1/3 461/1/3
f 464/1/3 462/1/3 463/1/3
f 467/1/3 466/1/3 465/1/3
f 468/1/3 466/1/3 467/1/3
f 471/1/3 470/1/3 469/1/3
f 472/1/3 470/1/3 471/1/3
f 475/1/3 474/1/3 473/1/3
f 476/1/3 474/1/3 475/1/3
f 479/1/3 478/1/3 477/1/3
f 480/1/3 478/1/3 479/1/3
f 483/1/3 482/1/3 481/1/3
f 484/1/3 482/1/3 483/1/3
f 487/1/3 486/1/3 485/1/3
f 488/1/3 486/1/3 487/1/3
f 491/1/3 490/1/3 489/1/3
f 492/1/3 490/1/3 491/1/3
f 495/1/3 494/1/3 493/1/3
f 496/1/3 494/1/3 495/1/3
f 499/1/3 498/1/3 497/1/3
f 500/1/3 498/1/3 499/1/3
f 503/1/3 502/1/3 501/1/3
f 504/1/3 502/1/3 503/1/3
f 507/1/3 506/1/3 505/1/3
f 508/1/3 506/1/3 507/1/3
f 511/1/3 510/1/3 509/1/3
f 512/1/3 510/1/3 511/1/3
f 515/1/3 514/1/3 513/1/3
f 516/1/3 514/1/3 515/1/3
f 519/1/3 518/1/3 517/1/3
f 520/1/3 518/1/3 519/1/3
f 523/1/3 522/1/3 521/1/3
f 524/1/3 522/1/3 523/1/3
f 527/1/3 526/1/3 525/1/3
f 528/1/3 526/1/3 527/1/3
f 531/1/3 530/1/3 529/1/3
f 532/1/3 530/1/3 531/1/3
f 535/1/3 534/1/3 533/1/3
f 536/1/3 534/1/3 535/1/3
f 539/1/3 538/1/3 537/1/3
f 540/1/3 538/1/3 539/1/3
f 543/1/3 542/1/3 541/1/3
f 544/1/3 542/1/3 543/1/3
f 547/1/3 546/1/3 545/1/3
f 548/1/3 546/1/3 547/1/3
f 551/1/3 550/1/3 549/1/3
f 552/1/3 550/1/3 551/1/3
f 555/1/3 554/1/3 553/1/3
f 556/1/3 554/1/3 555/1/3
f 559/1/3 558/1/3 557/1/3
f 560/1/3 558/1/3 559/1/3
f 561/1/4 562/1/4 563/1/4
f 563/1/4 562/1/4 564/1/4
f 565/1/4 566/1/4 567/1/4
f 567/1/4 566/1/4 568/1/4
f 572/1/5 570/1/5 569/1/5
f 574/1/5 572/1/5 571/1/5
f 576/1/5 574/1/5 573/1/5
f 578/1/5 576/1/5 575/1/5
f 580/1/5 578/1/5 577/1/5
f 582/1/5 580/1/5 579/1/5
f 584/1/5 582/1/5 581/1/5
f 586/1/5 584/1/5 583/1/5
f 588/1/5 586/1/5 585/1/5
f 590/1/5 588/1/5 587/1/5
f 592/1/5 590/1/5 589/1/5
f 594/1/5 592/1/5 591/1/5
f 596/1/5 594/1/5 593/1/5
f 598/1/5 596/1/5 595/1/5
f 600/1/5 598/1/5 597/1/5
f 602/1/5 600/1/5 599/1/5
f 604/1/5 602/1/5 601/1/5
f 606/1/5 604/1/5 603/1/5
f 608/1/5 606/1/5 605/1/5
f 610/1/5 608/1/5 607/1/5
f 612/1/5 610/1/5 609/1/5
f 614/1/5 612/1/5 611/1/5
f 616/1/5 614/1/5 613/1/5
f 618/1/5 616/1/5 615/1/5
f 620/1/5 618/1/5 617/1/5
f 622/1/5 620/1/5 619/1/5
f 624/1/5 622/1/5 621/1/5
f 626/1/5 624/1/5 623/1/5
f 628/1/5 626/1/5 625/1/5
f 630/1/5 628/1/5 627/1/5
f 632/1/5 630/1/5 629/1/5
f 634/1/5 632/1/5 631/1/5
f 636/1/5 634/1/5 633/1/5
f 638/1/5 636/1/5 635/1/5
f 640/1/5 638/1/5 637/1/5
f 642/1/5 640/1/5 639/1/5
f 644/1/5 642/1/5 641/1/5
f 646/1/5 644/1/5 643/1/5
f 648/1/5 646/1/5 645/1/5
f 650/1/5 648/1/5 647/1/5
f 652/1/5 650/1/5 649/1/5
f 654/1/5 652/1/5 651/1/5
f 656/1/5 654/1/5 653/1/5
f 658/1/5 656/1/5 655/1/5
f 660/1/5 658/1/5 657/1/5
f 662/1/5 660/1/5 659/1/5
f 664/1/5 662/1/5 661/1/5
f 666/1/5 664/1/5 663/1/5
f 668/1/5 666/1/5 665/1/5
f 670/1/5 668/1/5 667/1/5
f 672/1/5 670/1/5 669/1/5
f 674/1/5 672/1/5 671/1/5
f 676/1/5 674/1/5 673/1/5
f 678/1/5 676/1/5 675/1/5
f 680/1/5 678/1/5 677/1/5
f 682/1/5 680/1/5 679/1/5
f 684/1/5 682/1/5 681/1/5
f 686/1/5 684/1/5 683/1/5
f 688/1/5 686/1/5 685/1/5
f 690/1/5 688/1/5 687/1/5
f 692/1/5 690/1/5 689/1/5
f 694/1/5 692/1/5 691/1/5
f 696/1/5 694/1/5 693/1/5
f 698/1/5 696/1/5 695/1/5
f 700/1/5 698/1/5 697/1/5
f 702/1/5 700/1/5 699/1/5
f 704/1/5 702/1/5 701/1/5
f 705/1/5 570/1/5 572/1/5
f 705/1/5 704/1/5 703/1/5
f 705/1/5 702/1/5 704/1/5
f 705/1/5 572/1/5 574/1/5
f 705/1/5 700/1/5 702/1/5
f 705/1/5 574/1/5 576/1/5
f 705/1/5 698/1/5 700/1/5
f 705/1/5 576/1/5 578/1/5
f 705/1/5 696/1/5 698/1/5
f 705/1/5 578/1/5 580/1/5
f 705/1/5 694/1/5 696/1/5
f 705/1/5 580/1/5 582/1/5
f 705/1/5 692/1/5 694/1/5
f 705/1/5 582/1/5 584/1/5
f 705/1/5 690/1/5 692/1/5
f 705/1/5 584/1/5 586/1/5
f 705/1/5 688/1/5 690/1/5
f 705/1/5 586/1/5 588/1/5
f 705/1/5 686/1/5 688/1/5
f 705/1/5 588/1/5 590/1/5
f 705/1/5 684/1/5 686/1/5
f 705/1/5 590/1/5 592/1/5
f 705/1/5 682/1/5 684/1/5
f 705/1/5 592/1/5 594/1/5
f 705/1/5 680/1/5 682/1/5
f 705/1/5 594/1/5 596/1/5
f 705/1/5 678/1/5 680/1/5
f 705/1/5 596/1/5 598/1/5
f 705/1/5 676/1/5 678/1/5
f 705/1/5 598/1/5 600/1/5
f 705/1/5 674/1/5 676/1/5
f 705/1/5 600/1/5 602/1/5
f 705/1/5 672/1/5 674/1/5
f 705/1/5 602/1/5 604/1/5
f 705/1/5 670/1/5 672/1/5
f 705/1/5 604/1/5 606/1/5
f 705/1/5 668/1/5 670/1/5
f 705/1/5 606/1/5 608/1/5
f 705/1/5 666/1/5 668/1/5
f 705/1/5 608/1/5 610/1/5
f 705/1/5 664/1/5 666/1/5
f 705/1/5 610/1/5 612/1/5
f 705/1/5 662/1/5 664/1/5
f 705/1/5 612/1/5 614/1/5
f 705/1/5 660/1/5 662/1/5
f 705/1/5 614/1/5 616/1/5
f 705/1/5 658/1/5 660/1/5
f 705/1/5 616/1/5 618/1/5
f 705/1/5 656/1/5 658/1/5
f 705/1/5 618/1/5 620/1/5
f 705/1/5 654/1/5 656/1/5
f 705/1/5 620/1/5 622/1/5
f 705/1/5 652/1/5 654/1/5
f 705/1/5 622/1/5 624/1/5
f 705/1/5 650/1/5 652/1/5
f 705/1/5 624/1/5 626/1/5
f 705/1/5 648/1/5 650/1/5
f 705/1/5 626/1/5 628/1/5
f 705/1/5 646/1/5 648/1/5
f 705/1/5 628/1/5 630/1/5
f 705/1/5 644/1/5 646/1/5
f 705/1/5 630/1/5 632/1/5
f 705/1/5 642/1/5 644/1/5
f 705/1/5 632/1/5 634/1/5
f 705/1/5 640/1/5 642/1/5
f 705/1/5 634/1/5 636/1/5
f 705/1/5 638/1/5 640/1/5
f 705/1/5 636/1/5 638/1/5
f 706/1/5 570/1/5 705/1/5
f 707/1/5 705/1/5 703/1/5
f 708/1/5 570/1/5 706/1/5
f 709/1/5 707/1/5 703/1/5
f 709/1/5 708/1/5 707/1/5
f 710/1/5 570/1/5 708/1/5
f 710/1/5 708/1/5 709/1/5
f 711/1/6 712/1/6 714/1/6
f 713/1/6 714/1/6 716/1/6
f 715/1/6 716/1/6 718/1/6
f 717/1/6 718/1/6 720/1/6
f 719/1/6 720/1/6 722/1/6
f 721/1/6 722/1/6 724/1/6
f 723/1/6 724/1/6 726/1/6
f 725/1/6 726/1/6 728/1/6
f 727/1/6 728/1/6 730/1/6
f 729/1/6 730/1/6 732/1/6
f 731/1/6 732/1/6 734/1/6
f 733/1/6 734/1/6 736/1/6
f 735/1/6 736/1/6 738/1/6
f 737/1/6 738/1/6 740/1/6
f 739/1/6 740/1/6 742/1/6
f 741/1/6 742/1/6 744/1/6
f 743/1/6 744/1/6 746/1/6
f 745/1/6 746/1/6 748/1/6
f 747/1/6 748/1/6 750/1/6
f 749/1/6 750/1/6 752/1/6
f 751/1/6 752/1/6 754/1/6
f 753/1/6 754/1/6 756/1/6
f 755/1/6 756/1/6 758/1/6
f 757/1/6 758/1/6 760/1/6
f 759/1/6 760/1/6 762/1/6
f 761/1/6 762/1/6 764/1/6
f 763/1/6 764/1/6 766/1/6
f 765/1/6 766/1/6 768/1/6
f 767/1/6 768/1/6 770/1/6
f 769/1/6 770/1/6 772/1/6
f 771/1/6 772/1/6 774/1/6
f 773/1/6 774/1/6 776/1/6
f 775/1/6 776/1/6 778/1/6
f 777/1/6 778/1/6 780/1/6
f 779/1/6 780/1/6 782/1/6
f 781/1/6 782/1/6 784/1/6
f 783/1/6 784/1/6 786/1/6
f 785/1/6 786/1/6 788/1/6
f 787/1/6 788/1/6 790/1/6
f 789/1/6 790/1/6 792/1/6
f 791/1/6 792/1/6 794/1/6
f 793/1/6 794/1/6 796/1/6
f 795/1/6 796/1/6 798/1/6
f 797/1/6 798/1/6 800/1/6
f 799/1/6 800/1/6 802/1/6
f 801/1/6 802/1/6 804/1/6
f 803/1/6 804/1/6 806/1/6
f 805/1/6 806/1/6 808/1/6
f 807/1/6 808/1/6 810/1/6
f 809/1/6 810/1/6 812/1/6
f 811/1/6 812/1/6 814/1/6
f 813/1/6 814/1/6 816/1/6
f 815/1/6 816/1/6 818/1/6
f 817/1/6 818/1/6 820/1/6
f 819/1/6 820/1/6 822/1/6
f 821/1/6 822/1/6 824/1/6
f 823/1/6 824/1/6 826/1/6
f 825/1/6 826/1/6 828/1/6
f 827/1/6 828/1/6 830/1/6
f 829/1/6 830/1/6 832/1/6
f 831/1/6 832/1/6 834/1/6
f 833/1/6 834/1/6 836/1/6
f 835/1/6 836/1/6 838/1/6
f 837/1/6 838/1/6 840/1/6
f 839/1/6 840/1/6 842/1/6
f 841/1/6 842/1/6 844/1/6
f 843/1/6 844/1/6 846/1/6
f 714/1/6 712/1/6 847/1/6
f 845/1/6 846/1/6 847/1/6
f 846/1/6 844/1/6 847/1/6
f 716/1/6 714/1/6 847/1/6
f 844/1/6 842/1/6 847/1/6
f 718/1/6 716/1/6 847/1/6
f 842/1/6 840/1/6 847/1/6
f 720/1/6 718/1/6 847/1/6
f 840/1/6 838/1/6 847/1/6
f 722/1/6 720/1/6 847/1/6
f 838/1/6 836/1/6 847/1/6
f 724/1/6 722/1/6 847/1/6
f 836/1/6 834/1/6 847/1/6
f 726/1/6 724/1/6 847/1/6
f 834/1/6 832/1/6 847/1/6
f 728/1/6 726/1/6 847/1/6
f 832/1/6 830/1/6 847/1/6
f 730/1/6 728/1/6 847/1/6
f 830/1/6 828/1/6 847/1/6
f 732/1/6 730/1/6 847/1/6
f 828/1/6 826/1/6 847/1/6
f 734/1/6 732/1/6 847/1/6
f 826/1/6 824/1/6 847/1/6
f 736/1/6 734/1/6 847/1/6
f 824/1/6 822/1/6 847/1/6
f 738/1/6 736/1/6 847/1/6
f 822/1/6 820/1/6 847/1/6
f 740/1/6 738/1/6 847/1/6
f 820/1/6 818/1/6 847/1/6
f 742/1/6 740/1/6 847/1/6
f 818/1/6 816/1/6 847/1/6
f 744/1/6 742/1/6 847/1/6
f 816/1/6 814/1/6 847/1/6
f 746/1/6 744/1/6 847/1/6
f 814/1/6 812/1/6 847/1/6
f 748/1/6 746/1/6 847/1/6
f 812/1/6 810/1/6 847/1/6
f 750/1/6 748/1/6 847/1/6
f 810/1/6 808/1/6 847/1/6
f 752/1/6 750/1/6 847/1/6
f 808/1/6 806/1/6 847/1/6
f 754/1/6 752/1/6 847/1/6
f 806/1/6 804/1/6 847/1/6
f 756/1/6 754/1/6 847/1/6
f 804/1/6 802/1/6 847/1/6
f 758/1/6 756/1/6 847/1/6
f 802/1/6 800/1/6 847/1/6
f 760/1/6 758/1/6 847/1/6
f 800/1/6 798/1/6 847/1/6
f 762/1/6 760/1/6 847/1/6
f 798/1/6 796/1/6 847/1/6
f 764/1/6 762/1/6 847/1/6
f 796/1/6 794/1/6 847/1/6
f 766/1/6 764/1/6 847/1/6
f 794/1/6 792/1/6 847/1/6
f 768/1/6 766/1/6 847/1/6
f 792/1/6 790/1/6 847/1/6
f 770/1/6 768/1/6 847/1/6
f 790/1/6 788/1/6 847/1/6
f 772/1/6 770/1/6 847/1/6
f 788/1/6 786/1/6 847/1/6
f 774/1/6 772/1/6 847/1/6
f 786/1/6 784/1/6 847/1/6
f 776/1/6 774/1/6 847/1/6
f 784/1/6 782/1/6 847/1/6
f 778/1/6 776/1/6 847/1/6
f 782/1/6 780/1/6 847/1/6
f 780/1/6 778/1/6 847/1/6
f 847/1/6 712/1/6 848/1/6
f 845/1/6 847/1/6 849/1/6
f 848/1/6 712/1/6 850/1/6
f 845/1/6 849/1/6 851/1/6
f 849/1/6 850/1/6 851/1/6
f 850/1/6 712/1/6 852/1/6
f 851/1/6 850/1/6 852/1/6
