# MagicaVoxel @ Ephtracy

# group
g crt_stage3

# material
mtllib crt_stage3.mtl
usemtl palette

# normals
vn -1 0 0
vn 1 0 0
vn 0 0 1
vn 0 0 -1
vn 0 -1 0
vn 0 1 0

# texcoords
vt 0.0332031 0.5
vt 0.0605469 0.5
vt 0.435547 0.5
vt 0.521484 0.5
vt 0.533203 0.5
vt 0.587891 0.5
vt 0.591797 0.5
vt 0.611328 0.5
vt 0.634766 0.5
vt 0.869141 0.5
vt 0.951172 0.5
vt 0.958984 0.5
vt 0.962891 0.5

# verts
v -5 4 1
v -5 4 -0
v -5 6 1
v -5 6 -0
v -4 3 1
v -4 3 -0
v -4 4 3
v -4 4 1
v -4 4 -0
v -4 4 -2
v -4 6 3
v -4 6 1
v -4 6 -0
v -4 6 -2
v -4 7 1
v -4 7 -0
v -4 10 3
v -4 10 -2
v -4 11 2
v -4 11 1
v -4 12 2
v -4 12 1
v -4 12 -0
v -4 12 -1
v -4 13 3
v -4 13 2
v -4 13 -0
v -4 13 -1
v -4 13 -2
v -4 14 2
v -4 14 -1
v -3 2 3
v -3 2 2
v -3 2 -2
v -3 3 3
v -3 3 2
v -3 3 1
v -3 3 -0
v -3 3 -1
v -3 4 3
v -3 4 1
v -3 4 -0
v -3 4 -1
v -3 4 -2
v -3 6 3
v -3 6 2
v -3 6 1
v -3 6 -0
v -3 6 -1
v -3 6 -2
v -3 7 3
v -3 7 2
v -3 7 1
v -3 7 -0
v -3 7 -1
v -3 7 -2
v -3 8 3
v -3 8 -2
v -3 9 3
v -3 9 -2
v -3 10 3
v -3 10 -2
v -3 10 -3
v -3 12 4
v -3 12 3
v -3 13 3
v -3 13 2
v -3 13 -1
v -3 13 -2
v -3 13 -3
v -3 14 4
v -3 14 3
v -3 14 2
v -3 14 -1
v -3 15 3
v -3 15 2
v -3 15 -2
v -3 16 3
v -3 16 2
v -3 16 -2
v -2 0 1
v -2 0 -0
v -2 1 1
v -2 1 -0
v -2 2 1
v -2 2 -0
v -2 9 -2
v -2 9 -3
v -2 10 -2
v -2 10 -3
v -2 13 -2
v -2 13 -3
v -2 14 -2
v -2 14 -3
v -2 16 2
v -2 16 1
v -2 16 -0
v -2 16 -1
v -2 17 2
v -2 17 1
v -2 17 -0
v -2 17 -1
v -1 8 2
v -1 8 -0
v -1 9 2
v -1 9 -0
v -1 11 4
v -1 11 3
v -1 13 4
v -1 13 3
v -1 14 4
v -1 14 3
v -1 15 4
v -1 15 3
v -1 17 1
v -1 17 -0
v -1 17 -1
v -1 17 -2
v -1 17 -4
v -1 18 1
v -1 18 -0
v -1 18 -1
v -1 18 -2
v -1 19 -0
v -1 19 -2
v -1 19 -4
v 1 0 1
v 1 0 -0
v 1 1 1
v 1 1 -0
v 1 2 1
v 1 2 -0
v 2 11 4
v 2 11 3
v 2 12 4
v 2 12 3
v -2 12 4
v -2 12 3
v -2 13 4
v -2 13 3
v -1 0 1
v -1 0 -0
v -1 1 1
v -1 1 -0
v -1 2 1
v -1 2 -0
v 0 11 4
v 0 11 3
v 0 12 4
v 0 12 3
v 0 18 -1
v 0 18 -2
v 0 19 -1
v 0 19 -2
v 1 8 2
v 1 8 -0
v 1 9 2
v 1 9 -0
v 1 17 1
v 1 17 -1
v 1 17 -2
v 1 17 -4
v 1 18 1
v 1 18 -0
v 1 19 -0
v 1 19 -1
v 1 19 -2
v 1 19 -4
v 2 0 1
v 2 0 -0
v 2 1 1
v 2 1 -0
v 2 2 1
v 2 2 -0
v 2 9 -2
v 2 9 -3
v 2 10 -2
v 2 10 -3
v 2 13 -2
v 2 13 -3
v 2 14 4
v 2 14 3
v 2 14 -2
v 2 14 -3
v 2 15 4
v 2 15 3
v 2 16 2
v 2 16 -0
v 2 16 -1
v 2 17 2
v 2 17 -1
v 3 2 3
v 3 2 2
v 3 2 1
v 3 2 -2
v 3 3 2
v 3 3 1
v 3 3 -0
v 3 4 1
v 3 4 -0
v 3 5 -0
v 3 5 -1
v 3 6 -0
v 3 6 -1
v 3 7 1
v 3 7 -0
v 3 8 3
v 3 8 -2
v 3 9 3
v 3 9 -2
v 3 10 3
v 3 10 2
v 3 10 -0
v 3 10 -2
v 3 10 -3
v 3 11 4
v 3 11 3
v 3 11 1
v 3 11 -0
v 3 12 2
v 3 12 1
v 3 13 3
v 3 13 2
v 3 13 -1
v 3 13 -2
v 3 13 -3
v 3 14 4
v 3 14 3
v 3 14 2
v 3 14 -1
v 3 15 3
v 3 15 -0
v 3 15 -1
v 3 15 -2
v 3 16 3
v 3 16 -0
v 3 16 -1
v 3 16 -2
v 4 3 1
v 4 3 -0
v 4 4 1
v 4 4 -0
v 4 7 1
v 4 7 -0
v 4 10 3
v 4 10 2
v 4 10 -0
v 4 10 -2
v 4 11 1
v 4 11 -0
v 4 11 -1
v 4 12 2
v 4 12 1
v 4 13 3
v 4 13 2
v 4 13 -0
v 4 13 -1
v 4 13 -2
v 4 14 2
v 4 14 -1
v -3 12 4
v -3 14 4
v -2 12 4
v -2 13 4
v -1 11 4
v -1 13 4
v -1 14 4
v -1 15 4
v 0 11 4
v 0 12 4
v 0 13 4
v 0 14 4
v 1 12 4
v 1 14 4
v 2 11 4
v 2 12 4
v 2 14 4
v 2 15 4
v 3 11 4
v 3 14 4
v -4 4 3
v -4 6 3
v -4 10 3
v -4 13 3
v -3 2 3
v -3 3 3
v -3 4 3
v -3 6 3
v -3 7 3
v -3 8 3
v -3 9 3
v -3 10 3
v -3 12 3
v -3 13 3
v -3 14 3
v -3 15 3
v -3 16 3
v -2 2 3
v -2 3 3
v -2 6 3
v -2 7 3
v -2 8 3
v -2 10 3
v -2 11 3
v -2 12 3
v -2 13 3
v -2 15 3
v -2 16 3
v -1 3 3
v -1 4 3
v -1 10 3
v -1 11 3
v -1 13 3
v -1 14 3
v -1 15 3
v 0 3 3
v 0 4 3
v 0 9 3
v 0 10 3
v 0 11 3
v 0 12 3
v 1 5 3
v 1 6 3
v 1 10 3
v 1 11 3
v 1 12 3
v 2 5 3
v 2 6 3
v 2 7 3
v 2 8 3
v 2 10 3
v 2 11 3
v 2 12 3
v 2 14 3
v 2 15 3
v 3 2 3
v 3 8 3
v 3 9 3
v 3 10 3
v 3 11 3
v 3 13 3
v 3 14 3
v 3 15 3
v 3 16 3
v 4 10 3
v 4 13 3
v -4 13 2
v -4 14 2
v -3 13 2
v -3 14 2
v -2 16 2
v -2 17 2
v -1 8 2
v -1 9 2
v 0 9 2
v 0 16 2
v 0 17 2
v 1 8 2
v 1 9 2
v 1 16 2
v 1 17 2
v 2 16 2
v 2 17 2
v 3 13 2
v 3 14 2
v 4 13 2
v 4 14 2
v -5 4 1
v -5 6 1
v -4 3 1
v -4 4 1
v -4 6 1
v -4 7 1
v -3 3 1
v -3 4 1
v -3 6 1
v -3 7 1
v -2 0 1
v -2 1 1
v -2 2 1
v -1 0 1
v -1 1 1
v -1 2 1
v -1 17 1
v -1 18 1
v 0 17 1
v 1 0 1
v 1 1 1
v 1 2 1
v 1 17 1
v 1 18 1
v 2 0 1
v 2 1 1
v 2 2 1
v 3 3 1
v 3 4 1
v 3 7 1
v 3 11 1
v 3 12 1
v 4 3 1
v 4 4 1
v 4 7 1
v 4 11 1
v 4 12 1
v -1 18 -0
v -1 19 -0
v 1 18 -0
v 1 19 -0
v 3 10 -0
v 3 11 -0
v 4 10 -0
v 4 11 -0
v -1 17 -2
v -1 18 -2
v 0 18 -2
v 0 19 -2
v 1 17 -2
v 1 19 -2
v 3 10 2
v 3 12 2
v 4 10 2
v 4 12 2
v -5 4 -0
v -5 6 -0
v -4 3 -0
v -4 4 -0
v -4 6 -0
v -4 7 -0
v -3 3 -0
v -3 4 -0
v -3 6 -0
v -3 7 -0
v -2 0 -0
v -2 1 -0
v -2 2 -0
v -1 0 -0
v -1 1 -0
v -1 2 -0
v -1 8 -0
v -1 9 -0
v 0 9 -0
v 1 0 -0
v 1 1 -0
v 1 2 -0
v 1 8 -0
v 1 9 -0
v 2 0 -0
v 2 1 -0
v 2 2 -0
v 3 3 -0
v 3 4 -0
v 3 5 -0
v 3 6 -0
v 3 7 -0
v 4 3 -0
v 4 4 -0
v 4 7 -0
v -4 13 -1
v -4 14 -1
v -3 13 -1
v -3 14 -1
v -2 16 -1
v -2 17 -1
v -1 17 -1
v -1 18 -1
v 0 18 -1
v 0 19 -1
v 1 17 -1
v 1 19 -1
v 2 16 -1
v 2 17 -1
v 3 13 -1
v 3 14 -1
v 4 13 -1
v 4 14 -1
v -4 4 -2
v -4 6 -2
v -4 10 -2
v -4 13 -2
v -3 2 -2
v -3 4 -2
v -3 6 -2
v -3 7 -2
v -3 8 -2
v -3 9 -2
v -3 10 -2
v -3 13 -2
v -3 15 -2
v -3 16 -2
v -2 6 -2
v -2 7 -2
v -2 9 -2
v -2 10 -2
v -2 13 -2
v -2 14 -2
v -1 3 -2
v -1 4 -2
v 0 3 -2
v 0 4 -2
v 1 5 -2
v 1 6 -2
v 2 5 -2
v 2 6 -2
v 2 9 -2
v 2 10 -2
v 2 13 -2
v 2 14 -2
v 3 2 -2
v 3 8 -2
v 3 9 -2
v 3 10 -2
v 3 13 -2
v 3 15 -2
v 3 16 -2
v 4 10 -2
v 4 13 -2
v -3 10 -3
v -3 13 -3
v -2 9 -3
v -2 10 -3
v -2 12 -3
v -2 13 -3
v -2 14 -3
v -1 12 -3
v -1 13 -3
v 1 11 -3
v 1 13 -3
v 2 9 -3
v 2 10 -3
v 2 11 -3
v 2 13 -3
v 2 14 -3
v 3 10 -3
v 3 13 -3
v -1 17 -4
v -1 19 -4
v 1 17 -4
v 1 19 -4
v -2 0 1
v -1 0 1
v 1 0 1
v 2 0 1
v -2 0 -0
v -1 0 -0
v 1 0 -0
v 2 0 -0
v -3 2 3
v -2 2 3
v 3 2 3
v -3 2 2
v -2 2 2
v 2 2 2
v 3 2 2
v -2 2 1
v -1 2 1
v 1 2 1
v 2 2 1
v 3 2 1
v -2 2 -0
v -1 2 -0
v 1 2 -0
v 2 2 -0
v -3 2 -2
v 3 2 -2
v -4 3 1
v -3 3 1
v 3 3 1
v 4 3 1
v -4 3 -0
v -3 3 -0
v 3 3 -0
v 4 3 -0
v -4 4 3
v -3 4 3
v -5 4 1
v -4 4 1
v -3 4 1
v -5 4 -0
v -4 4 -0
v -3 4 -0
v -3 4 -1
v -4 4 -2
v -3 4 -2
v -3 9 3
v 0 9 3
v 3 9 3
v -1 9 2
v 0 9 2
v 1 9 2
v -1 9 -0
v 0 9 -0
v 1 9 -0
v 2 9 -0
v -2 9 -1
v 0 9 -1
v 1 9 -1
v 2 9 -1
v -3 9 -2
v -2 9 -2
v 2 9 -2
v 3 9 -2
v -2 9 -3
v 2 9 -3
v -4 10 3
v -3 10 3
v 3 10 3
v 4 10 3
v 3 10 2
v 4 10 2
v 3 10 -0
v 4 10 -0
v -4 10 -2
v -3 10 -2
v -2 10 -2
v 2 10 -2
v 3 10 -2
v 4 10 -2
v -3 10 -3
v -2 10 -3
v 2 10 -3
v 3 10 -3
v -1 11 4
v 0 11 4
v 2 11 4
v 3 11 4
v -1 11 3
v 0 11 3
v 2 11 3
v 3 11 3
v 3 11 1
v 4 11 1
v 3 11 -0
v 4 11 -0
v -3 12 4
v -2 12 4
v 0 12 4
v 1 12 4
v 2 12 4
v -3 12 3
v -2 12 3
v 0 12 3
v 1 12 3
v 2 12 3
v 3 12 2
v 4 12 2
v 3 12 1
v 4 12 1
v -2 13 4
v -1 13 4
v -2 13 3
v -1 13 3
v -1 17 -2
v 1 17 -2
v -1 17 -4
v 1 17 -4
v -1 18 -1
v 0 18 -1
v -1 18 -2
v 0 18 -2
v -4 6 3
v -3 6 3
v -3 6 2
v -5 6 1
v -4 6 1
v -3 6 1
v -5 6 -0
v -4 6 -0
v -3 6 -0
v -3 6 -1
v -4 6 -2
v -3 6 -2
v -4 7 1
v -3 7 1
v 3 7 1
v 4 7 1
v -4 7 -0
v -3 7 -0
v 3 7 -0
v 4 7 -0
v -3 8 3
v -2 8 3
v 2 8 3
v 3 8 3
v -1 8 2
v 1 8 2
v -1 8 -0
v 1 8 -0
v -2 8 -1
v 2 8 -1
v -3 8 -2
v 3 8 -2
v -4 13 3
v -3 13 3
v 3 13 3
v 4 13 3
v -4 13 2
v -3 13 2
v 3 13 2
v 4 13 2
v -4 13 -1
v -3 13 -1
v 3 13 -1
v 4 13 -1
v -4 13 -2
v -3 13 -2
v -2 13 -2
v 2 13 -2
v 3 13 -2
v 4 13 -2
v -3 13 -3
v -2 13 -3
v 2 13 -3
v 3 13 -3
v -3 14 4
v -1 14 4
v 2 14 4
v 3 14 4
v -3 14 3
v -1 14 3
v 2 14 3
v 3 14 3
v -4 14 2
v -3 14 2
v 3 14 2
v 4 14 2
v -4 14 -1
v -3 14 -1
v 3 14 -1
v 4 14 -1
v -2 14 -2
v 2 14 -2
v -2 14 -3
v 2 14 -3
v -1 15 4
v 2 15 4
v -1 15 3
v 2 15 3
v -3 16 3
v -2 16 3
v 3 16 3
v -3 16 2
v -2 16 2
v 0 16 2
v 1 16 2
v 2 16 2
v -2 16 1
v -2 16 -0
v 2 16 -0
v 3 16 -0
v -2 16 -1
v 2 16 -1
v 3 16 -1
v -3 16 -2
v 3 16 -2
v -2 17 2
v 0 17 2
v 1 17 2
v 2 17 2
v -2 17 1
v -1 17 1
v 0 17 1
v 1 17 1
v -2 17 -0
v -1 17 -0
v -2 17 -1
v -1 17 -1
v 1 17 -1
v 2 17 -1
v -1 18 1
v 1 18 1
v -1 18 -0
v 1 18 -0
v -1 19 -0
v 1 19 -0
v 0 19 -1
v 1 19 -1
v -1 19 -2
v 0 19 -2
v 1 19 -2
v -1 19 -4
v 1 19 -4

# faces
f 3/5/1 2/5/1 1/5/1
f 4/5/1 2/5/1 3/5/1
f 8/3/1 6/3/1 5/3/1
f 9/3/1 6/3/1 8/3/1
f 11/13/1 8/13/1 7/13/1
f 12/13/1 8/13/1 11/13/1
f 13/13/1 10/13/1 9/13/1
f 14/13/1 10/13/1 13/13/1
f 15/5/1 13/5/1 12/5/1
f 16/5/1 13/5/1 15/5/1
f 19/7/1 18/7/1 17/7/1
f 20/7/1 18/7/1 19/7/1
f 21/7/1 19/7/1 17/7/1
f 21/6/1 20/6/1 19/6/1
f 22/7/1 18/7/1 20/7/1
f 22/6/1 20/6/1 21/6/1
f 23/7/1 18/7/1 22/7/1
f 24/7/1 18/7/1 23/7/1
f 25/7/1 21/7/1 17/7/1
f 25/7/1 22/7/1 21/7/1
f 25/7/1 23/7/1 22/7/1
f 26/7/1 23/7/1 25/7/1
f 27/6/1 24/6/1 23/6/1
f 27/7/1 23/7/1 26/7/1
f 28/7/1 18/7/1 24/7/1
f 28/6/1 24/6/1 27/6/1
f 29/7/1 18/7/1 28/7/1
f 30/7/1 27/7/1 26/7/1
f 30/7/1 28/7/1 27/7/1
f 31/7/1 28/7/1 30/7/1
f 35/12/1 33/12/1 32/12/1
f 36/5/1 34/5/1 33/5/1
f 36/12/1 33/12/1 35/12/1
f 37/5/1 34/5/1 36/5/1
f 38/5/1 34/5/1 37/5/1
f 39/5/1 34/5/1 38/5/1
f 40/5/1 36/5/1 35/5/1
f 40/5/1 37/5/1 36/5/1
f 41/5/1 37/5/1 40/5/1
f 42/12/1 39/12/1 38/12/1
f 43/5/1 34/5/1 39/5/1
f 43/12/1 39/12/1 42/12/1
f 44/5/1 34/5/1 43/5/1
f 51/12/1 46/12/1 45/12/1
f 52/5/1 47/5/1 46/5/1
f 52/12/1 46/12/1 51/12/1
f 53/5/1 47/5/1 52/5/1
f 54/5/1 49/5/1 48/5/1
f 55/12/1 50/12/1 49/12/1
f 55/5/1 49/5/1 54/5/1
f 56/12/1 50/12/1 55/12/1
f 57/5/1 54/5/1 53/5/1
f 57/5/1 53/5/1 52/5/1
f 57/5/1 56/5/1 55/5/1
f 57/5/1 55/5/1 54/5/1
f 57/5/1 52/5/1 51/5/1
f 58/5/1 56/5/1 57/5/1
f 61/2/1 60/2/1 59/2/1
f 62/2/1 60/2/1 61/2/1
f 66/7/1 65/7/1 64/7/1
f 69/7/1 63/7/1 62/7/1
f 70/7/1 63/7/1 69/7/1
f 71/7/1 67/7/1 66/7/1
f 71/7/1 66/7/1 64/7/1
f 72/7/1 67/7/1 71/7/1
f 73/7/1 67/7/1 72/7/1
f 74/7/1 69/7/1 68/7/1
f 75/7/1 73/7/1 72/7/1
f 75/7/1 74/7/1 73/7/1
f 76/7/1 74/7/1 75/7/1
f 77/7/1 69/7/1 74/7/1
f 77/7/1 74/7/1 76/7/1
f 78/12/1 76/12/1 75/12/1
f 79/5/1 77/5/1 76/5/1
f 79/12/1 76/12/1 78/12/1
f 80/5/1 77/5/1 79/5/1
f 83/12/1 82/12/1 81/12/1
f 84/12/1 82/12/1 83/12/1
f 85/3/1 84/3/1 83/3/1
f 86/3/1 84/3/1 85/3/1
f 89/7/1 88/7/1 87/7/1
f 90/7/1 88/7/1 89/7/1
f 93/7/1 92/7/1 91/7/1
f 94/7/1 92/7/1 93/7/1
f 99/5/1 96/5/1 95/5/1
f 100/12/1 97/12/1 96/12/1
f 100/5/1 96/5/1 99/5/1
f 101/5/1 98/5/1 97/5/1
f 101/12/1 97/12/1 100/12/1
f 102/5/1 98/5/1 101/5/1
f 105/2/1 104/2/1 103/2/1
f 106/2/1 104/2/1 105/2/1
f 109/7/1 108/7/1 107/7/1
f 110/7/1 108/7/1 109/7/1
f 113/7/1 112/7/1 111/7/1
f 114/7/1 112/7/1 113/7/1
f 120/5/1 116/5/1 115/5/1
f 120/5/1 117/5/1 116/5/1
f 121/5/1 117/5/1 120/5/1
f 122/5/1 117/5/1 121/5/1
f 123/12/1 119/12/1 118/12/1
f 124/5/1 122/5/1 121/5/1
f 124/5/1 123/5/1 122/5/1
f 125/12/1 119/12/1 123/12/1
f 125/5/1 123/5/1 124/5/1
f 126/12/1 119/12/1 125/12/1
f 129/12/1 128/12/1 127/12/1
f 130/12/1 128/12/1 129/12/1
f 131/3/1 130/3/1 129/3/1
f 132/3/1 130/3/1 131/3/1
f 135/7/1 134/7/1 133/7/1
f 136/7/1 134/7/1 135/7/1
f 137/7/2 138/7/2 139/7/2
f 139/7/2 138/7/2 140/7/2
f 141/12/2 142/12/2 143/12/2
f 143/12/2 142/12/2 144/12/2
f 143/3/2 144/3/2 145/3/2
f 145/3/2 144/3/2 146/3/2
f 147/7/2 148/7/2 149/7/2
f 149/7/2 148/7/2 150/7/2
f 151/5/2 152/5/2 153/5/2
f 153/5/2 152/5/2 154/5/2
f 155/2/2 156/2/2 157/2/2
f 157/2/2 156/2/2 158/2/2
f 159/5/2 160/5/2 163/5/2
f 163/5/2 160/5/2 164/5/2
f 164/5/2 160/5/2 165/5/2
f 165/5/2 160/5/2 166/5/2
f 161/12/2 162/12/2 167/12/2
f 167/12/2 162/12/2 168/12/2
f 169/12/2 170/12/2 171/12/2
f 171/12/2 170/12/2 172/12/2
f 171/3/2 172/3/2 173/3/2
f 173/3/2 172/3/2 174/3/2
f 175/7/2 176/7/2 177/7/2
f 177/7/2 176/7/2 178/7/2
f 179/7/2 180/7/2 183/7/2
f 183/7/2 180/7/2 184/7/2
f 181/7/2 182/7/2 185/7/2
f 185/7/2 182/7/2 186/7/2
f 187/5/2 188/5/2 190/5/2
f 188/5/2 189/5/2 190/5/2
f 190/5/2 189/5/2 191/5/2
f 192/5/2 193/5/2 196/5/2
f 193/12/2 194/12/2 196/12/2
f 194/5/2 195/5/2 197/5/2
f 196/12/2 194/12/2 197/12/2
f 197/5/2 195/5/2 198/5/2
f 196/5/2 197/5/2 199/5/2
f 198/5/2 195/5/2 200/5/2
f 200/5/2 195/5/2 201/5/2
f 201/5/2 195/5/2 202/5/2
f 201/12/2 202/12/2 203/12/2
f 202/5/2 195/5/2 204/5/2
f 203/12/2 202/12/2 204/12/2
f 196/5/2 199/5/2 205/5/2
f 203/5/2 204/5/2 206/5/2
f 192/5/2 196/5/2 207/5/2
f 205/5/2 206/5/2 207/5/2
f 196/5/2 205/5/2 207/5/2
f 206/5/2 204/5/2 208/5/2
f 207/5/2 206/5/2 208/5/2
f 204/5/2 195/5/2 208/5/2
f 209/1/2 210/1/2 211/1/2
f 211/1/2 210/1/2 212/1/2
f 212/1/2 210/1/2 213/1/2
f 213/1/2 210/1/2 214/1/2
f 212/1/2 213/1/2 218/1/2
f 218/1/2 213/1/2 219/1/2
f 212/1/2 218/1/2 220/1/2
f 220/1/2 218/1/2 221/1/2
f 216/7/2 217/7/2 222/7/2
f 214/7/2 215/7/2 225/7/2
f 225/7/2 215/7/2 226/7/2
f 222/7/2 223/7/2 227/7/2
f 216/7/2 222/7/2 227/7/2
f 227/7/2 223/7/2 228/7/2
f 228/7/2 223/7/2 229/7/2
f 224/7/2 225/7/2 230/7/2
f 228/7/2 229/7/2 231/7/2
f 229/7/2 230/7/2 231/7/2
f 231/7/2 230/7/2 232/7/2
f 230/7/2 225/7/2 233/7/2
f 232/7/2 230/7/2 233/7/2
f 233/7/2 225/7/2 234/7/2
f 231/5/2 232/5/2 235/5/2
f 232/12/2 233/12/2 236/12/2
f 235/5/2 232/5/2 236/5/2
f 233/5/2 234/5/2 237/5/2
f 236/12/2 233/12/2 237/12/2
f 237/5/2 234/5/2 238/5/2
f 239/3/2 240/3/2 241/3/2
f 241/3/2 240/3/2 242/3/2
f 241/5/2 242/5/2 243/5/2
f 243/5/2 242/5/2 244/5/2
f 247/7/2 248/7/2 250/7/2
f 250/7/2 248/7/2 251/7/2
f 245/7/2 246/7/2 252/7/2
f 249/7/2 250/7/2 253/7/2
f 245/7/2 252/7/2 254/7/2
f 252/7/2 253/7/2 254/7/2
f 254/7/2 253/7/2 255/7/2
f 253/7/2 250/7/2 256/7/2
f 255/7/2 253/7/2 256/7/2
f 250/6/2 251/6/2 256/6/2
f 251/7/2 248/7/2 257/7/2
f 256/6/2 251/6/2 257/6/2
f 257/7/2 248/7/2 258/7/2
f 255/7/2 256/7/2 259/7/2
f 256/7/2 257/7/2 259/7/2
f 259/7/2 257/7/2 260/7/2
f 263/7/3 262/7/3 261/7/3
f 264/7/3 262/7/3 263/7/3
f 266/7/3 262/7/3 264/7/3
f 267/7/3 262/7/3 266/7/3
f 269/7/3 266/7/3 265/7/3
f 270/7/3 266/7/3 269/7/3
f 271/6/3 267/6/3 266/6/3
f 271/7/3 266/7/3 270/7/3
f 272/7/3 268/7/3 267/7/3
f 272/6/3 267/6/3 271/6/3
f 273/7/3 271/7/3 270/7/3
f 273/7/3 272/7/3 271/7/3
f 274/7/3 268/7/3 272/7/3
f 274/7/3 272/7/3 273/7/3
f 276/6/3 274/6/3 273/6/3
f 277/7/3 268/7/3 274/7/3
f 277/6/3 274/6/3 276/6/3
f 278/7/3 268/7/3 277/7/3
f 279/7/3 276/7/3 275/7/3
f 279/7/3 277/7/3 276/7/3
f 280/7/3 277/7/3 279/7/3
f 287/13/3 282/13/3 281/13/3
f 288/13/3 282/13/3 287/13/3
f 292/7/3 284/7/3 283/7/3
f 293/7/3 284/7/3 292/7/3
f 294/7/3 284/7/3 293/7/3
f 298/12/3 286/12/3 285/12/3
f 299/5/3 287/5/3 286/5/3
f 299/12/3 286/12/3 298/12/3
f 299/5/3 288/5/3 287/5/3
f 300/12/3 289/12/3 288/12/3
f 300/5/3 288/5/3 299/5/3
f 301/5/3 290/5/3 289/5/3
f 301/12/3 289/12/3 300/12/3
f 302/5/3 290/5/3 301/5/3
f 303/2/3 292/2/3 291/2/3
f 303/2/3 293/2/3 292/2/3
f 304/2/3 293/2/3 303/2/3
f 305/2/3 293/2/3 304/2/3
f 307/12/3 297/12/3 296/12/3
f 307/7/3 296/7/3 295/7/3
f 308/12/3 297/12/3 307/12/3
f 309/5/3 300/5/3 299/5/3
f 309/5/3 299/5/3 298/5/3
f 309/5/3 301/5/3 300/5/3
f 310/5/3 301/5/3 309/5/3
f 311/2/3 303/2/3 291/2/3
f 311/11/3 304/11/3 303/11/3
f 312/1/3 306/1/3 305/1/3
f 312/11/3 304/11/3 311/11/3
f 312/1/3 305/1/3 304/1/3
f 313/1/3 306/1/3 312/1/3
f 314/7/3 307/7/3 295/7/3
f 315/5/3 308/5/3 307/5/3
f 315/7/3 307/7/3 314/7/3
f 316/5/3 309/5/3 298/5/3
f 316/12/3 310/12/3 309/12/3
f 317/5/3 301/5/3 310/5/3
f 317/12/3 310/12/3 316/12/3
f 318/2/3 311/2/3 291/2/3
f 319/1/3 312/1/3 311/1/3
f 319/2/3 311/2/3 318/2/3
f 320/1/3 312/1/3 319/1/3
f 322/5/3 301/5/3 317/5/3
f 322/5/3 317/5/3 316/5/3
f 323/5/3 301/5/3 322/5/3
f 324/1/3 321/1/3 320/1/3
f 324/1/3 320/1/3 319/1/3
f 324/1/3 319/1/3 318/1/3
f 325/1/3 321/1/3 324/1/3
f 326/1/3 321/1/3 325/1/3
f 327/12/3 323/12/3 322/12/3
f 327/5/3 322/5/3 316/5/3
f 328/5/3 301/5/3 323/5/3
f 328/12/3 323/12/3 327/12/3
f 329/12/3 302/12/3 301/12/3
f 329/5/3 301/5/3 328/5/3
f 330/12/3 302/12/3 329/12/3
f 331/1/3 324/1/3 318/1/3
f 331/11/3 325/11/3 324/11/3
f 332/1/3 326/1/3 325/1/3
f 332/11/3 325/11/3 331/11/3
f 333/1/3 326/1/3 332/1/3
f 335/5/3 308/5/3 315/5/3
f 336/5/3 327/5/3 316/5/3
f 336/5/3 328/5/3 327/5/3
f 336/5/3 316/5/3 298/5/3
f 336/5/3 329/5/3 328/5/3
f 336/5/3 330/5/3 329/5/3
f 337/5/3 330/5/3 336/5/3
f 338/1/3 332/1/3 331/1/3
f 338/1/3 331/1/3 318/1/3
f 339/1/3 332/1/3 338/1/3
f 340/1/3 332/1/3 339/1/3
f 342/7/3 335/7/3 334/7/3
f 343/5/3 308/5/3 335/5/3
f 343/7/3 335/7/3 342/7/3
f 344/5/3 308/5/3 343/5/3
f 345/7/3 341/7/3 340/7/3
f 345/7/3 340/7/3 339/7/3
f 346/7/3 341/7/3 345/7/3
f 349/7/3 348/7/3 347/7/3
f 350/7/3 348/7/3 349/7/3
f 355/2/3 354/2/3 353/2/3
f 356/5/3 352/5/3 351/5/3
f 357/5/3 352/5/3 356/5/3
f 358/2/3 355/2/3 353/2/3
f 359/2/3 355/2/3 358/2/3
f 360/12/3 357/12/3 356/12/3
f 361/12/3 357/12/3 360/12/3
f 362/5/3 361/5/3 360/5/3
f 363/5/3 361/5/3 362/5/3
f 366/7/3 365/7/3 364/7/3
f 367/7/3 365/7/3 366/7/3
f 371/5/3 369/5/3 368/5/3
f 372/5/3 369/5/3 371/5/3
f 374/3/3 371/3/3 370/3/3
f 375/3/3 371/3/3 374/3/3
f 376/5/3 373/5/3 372/5/3
f 377/5/3 373/5/3 376/5/3
f 381/12/3 379/12/3 378/12/3
f 382/3/3 380/3/3 379/3/3
f 382/12/3 379/12/3 381/12/3
f 383/3/3 380/3/3 382/3/3
f 386/5/3 385/5/3 384/5/3
f 390/5/3 385/5/3 386/5/3
f 391/5/3 385/5/3 390/5/3
f 392/12/3 388/12/3 387/12/3
f 393/3/3 389/3/3 388/3/3
f 393/12/3 388/12/3 392/12/3
f 394/3/3 389/3/3 393/3/3
f 400/3/3 396/3/3 395/3/3
f 401/5/3 397/5/3 396/5/3
f 401/3/3 396/3/3 400/3/3
f 402/5/3 397/5/3 401/5/3
f 403/7/3 399/7/3 398/7/3
f 404/7/3 399/7/3 403/7/3
f 407/5/3 406/5/3 405/5/3
f 408/5/3 406/5/3 407/5/3
f 411/7/3 410/7/3 409/7/3
f 412/7/3 410/7/3 411/7/3
f 415/12/3 414/12/3 413/12/3
f 417/12/3 415/12/3 413/12/3
f 417/12/3 416/12/3 415/12/3
f 418/12/3 416/12/3 417/12/3
f 419/7/4 420/7/4 421/7/4
f 421/7/4 420/7/4 422/7/4
f 423/5/4 424/5/4 426/5/4
f 426/5/4 424/5/4 427/5/4
f 425/3/4 426/3/4 429/3/4
f 429/3/4 426/3/4 430/3/4
f 427/5/4 428/5/4 431/5/4
f 431/5/4 428/5/4 432/5/4
f 433/12/4 434/12/4 436/12/4
f 434/3/4 435/3/4 437/3/4
f 436/12/4 434/12/4 437/12/4
f 437/3/4 435/3/4 438/3/4
f 439/2/4 440/2/4 441/2/4
f 439/2/4 441/2/4 445/2/4
f 445/2/4 441/2/4 446/2/4
f 442/12/4 443/12/4 447/12/4
f 443/3/4 444/3/4 448/3/4
f 447/12/4 443/12/4 448/12/4
f 448/3/4 444/3/4 449/3/4
f 450/3/4 451/3/4 455/3/4
f 453/5/4 454/5/4 456/5/4
f 455/3/4 451/3/4 456/3/4
f 451/5/4 452/5/4 456/5/4
f 452/5/4 453/5/4 456/5/4
f 456/5/4 454/5/4 457/5/4
f 458/7/4 459/7/4 460/7/4
f 460/7/4 459/7/4 461/7/4
f 462/5/4 463/5/4 464/5/4
f 464/5/4 465/5/4 466/5/4
f 462/5/4 464/5/4 468/5/4
f 466/5/4 467/5/4 468/5/4
f 464/5/4 466/5/4 468/5/4
f 468/5/4 467/5/4 469/5/4
f 462/5/4 468/5/4 470/5/4
f 470/5/4 468/5/4 471/5/4
f 472/7/4 473/7/4 474/7/4
f 474/7/4 473/7/4 475/7/4
f 476/13/4 477/13/4 481/13/4
f 481/13/4 477/13/4 482/13/4
f 478/7/4 479/7/4 486/7/4
f 486/7/4 479/7/4 487/7/4
f 480/5/4 481/5/4 490/5/4
f 481/5/4 482/5/4 490/5/4
f 482/12/4 483/12/4 490/12/4
f 483/5/4 484/5/4 491/5/4
f 490/12/4 483/12/4 491/12/4
f 485/2/4 486/2/4 492/2/4
f 492/2/4 486/2/4 493/2/4
f 487/7/4 488/7/4 494/7/4
f 494/7/4 488/7/4 495/7/4
f 480/5/4 490/5/4 496/5/4
f 490/5/4 491/5/4 496/5/4
f 496/5/4 491/5/4 497/5/4
f 480/5/4 496/5/4 498/5/4
f 496/12/4 497/12/4 498/12/4
f 497/5/4 491/5/4 499/5/4
f 498/12/4 497/12/4 499/12/4
f 498/5/4 499/5/4 500/5/4
f 499/5/4 491/5/4 500/5/4
f 500/5/4 491/5/4 501/5/4
f 498/5/4 500/5/4 502/5/4
f 500/12/4 501/12/4 502/12/4
f 501/5/4 491/5/4 503/5/4
f 502/12/4 501/12/4 503/12/4
f 495/7/4 488/7/4 507/7/4
f 480/5/4 498/5/4 508/5/4
f 498/5/4 502/5/4 508/5/4
f 502/5/4 503/5/4 508/5/4
f 491/5/4 484/5/4 509/5/4
f 508/5/4 503/5/4 509/5/4
f 503/5/4 491/5/4 509/5/4
f 504/1/4 505/1/4 510/1/4
f 510/1/4 505/1/4 511/1/4
f 506/7/4 507/7/4 512/7/4
f 488/5/4 489/5/4 513/5/4
f 507/7/4 488/7/4 513/7/4
f 512/7/4 507/7/4 513/7/4
f 513/5/4 489/5/4 514/5/4
f 511/7/4 512/7/4 515/7/4
f 515/7/4 512/7/4 516/7/4
f 517/7/4 518/7/4 520/7/4
f 520/7/4 518/7/4 521/7/4
f 521/7/4 518/7/4 522/7/4
f 519/7/4 520/7/4 524/7/4
f 520/7/4 521/7/4 524/7/4
f 521/6/4 522/6/4 524/6/4
f 522/7/4 523/7/4 525/7/4
f 524/6/4 522/6/4 525/6/4
f 519/7/4 524/7/4 526/7/4
f 524/7/4 525/7/4 526/7/4
f 525/7/4 523/7/4 527/7/4
f 526/7/4 525/7/4 527/7/4
f 519/7/4 526/7/4 528/7/4
f 528/7/4 526/7/4 529/7/4
f 526/6/4 527/6/4 530/6/4
f 529/7/4 526/7/4 530/7/4
f 527/7/4 523/7/4 531/7/4
f 530/6/4 527/6/4 531/6/4
f 531/7/4 523/7/4 532/7/4
f 529/7/4 530/7/4 533/7/4
f 530/7/4 531/7/4 533/7/4
f 533/7/4 531/7/4 534/7/4
f 535/12/4 536/12/4 537/12/4
f 537/12/4 536/12/4 538/12/4
f 543/12/5 540/12/5 539/12/5
f 544/12/5 540/12/5 543/12/5
f 545/12/5 542/12/5 541/12/5
f 546/12/5 542/12/5 545/12/5
f 550/12/5 548/12/5 547/12/5
f 551/5/5 549/5/5 548/5/5
f 551/12/5 548/12/5 550/12/5
f 552/5/5 549/5/5 551/5/5
f 553/5/5 549/5/5 552/5/5
f 554/5/5 551/5/5 550/5/5
f 554/5/5 552/5/5 551/5/5
f 555/5/5 552/5/5 554/5/5
f 556/5/5 552/5/5 555/5/5
f 557/12/5 553/12/5 552/12/5
f 557/5/5 552/5/5 556/5/5
f 558/12/5 553/12/5 557/12/5
f 559/5/5 554/5/5 550/5/5
f 560/5/5 556/5/5 555/5/5
f 561/5/5 556/5/5 560/5/5
f 562/5/5 558/5/5 557/5/5
f 563/5/5 559/5/5 550/5/5
f 563/5/5 562/5/5 561/5/5
f 563/5/5 561/5/5 560/5/5
f 563/5/5 560/5/5 559/5/5
f 564/5/5 558/5/5 562/5/5
f 564/5/5 562/5/5 563/5/5
f 569/3/5 566/3/5 565/3/5
f 570/3/5 566/3/5 569/3/5
f 571/3/5 568/3/5 567/3/5
f 572/3/5 568/3/5 571/3/5
f 576/13/5 574/13/5 573/13/5
f 577/13/5 574/13/5 576/13/5
f 578/5/5 576/5/5 575/5/5
f 579/5/5 576/5/5 578/5/5
f 581/13/5 580/13/5 579/13/5
f 582/13/5 581/13/5 579/13/5
f 583/13/5 581/13/5 582/13/5
f 587/2/5 585/2/5 584/2/5
f 588/1/5 586/1/5 585/1/5
f 588/2/5 585/2/5 587/2/5
f 589/1/5 586/1/5 588/1/5
f 590/2/5 587/2/5 584/2/5
f 592/1/5 586/1/5 589/1/5
f 593/1/5 586/1/5 592/1/5
f 594/2/5 591/2/5 590/2/5
f 594/2/5 590/2/5 584/2/5
f 595/1/5 592/1/5 591/1/5
f 595/2/5 591/2/5 594/2/5
f 596/2/5 593/2/5 592/2/5
f 596/1/5 592/1/5 595/1/5
f 597/1/5 586/1/5 593/1/5
f 597/2/5 593/2/5 596/2/5
f 598/2/5 594/2/5 584/2/5
f 599/1/5 596/1/5 595/1/5
f 599/2/5 594/2/5 598/2/5
f 599/1/5 595/1/5 594/1/5
f 599/1/5 597/1/5 596/1/5
f 600/1/5 586/1/5 597/1/5
f 600/1/5 597/1/5 599/1/5
f 601/1/5 586/1/5 600/1/5
f 602/7/5 600/7/5 599/7/5
f 603/7/5 600/7/5 602/7/5
f 608/7/5 607/7/5 606/7/5
f 609/7/5 607/7/5 608/7/5
f 612/7/5 605/7/5 604/7/5
f 613/7/5 605/7/5 612/7/5
f 616/7/5 611/7/5 610/7/5
f 617/7/5 611/7/5 616/7/5
f 618/7/5 614/7/5 613/7/5
f 619/7/5 614/7/5 618/7/5
f 620/7/5 616/7/5 615/7/5
f 621/7/5 616/7/5 620/7/5
f 626/7/5 623/7/5 622/7/5
f 627/7/5 623/7/5 626/7/5
f 628/7/5 625/7/5 624/7/5
f 629/7/5 625/7/5 628/7/5
f 632/7/5 631/7/5 630/7/5
f 633/7/5 631/7/5 632/7/5
f 639/7/5 635/7/5 634/7/5
f 640/7/5 635/7/5 639/7/5
f 641/7/5 637/7/5 636/7/5
f 642/6/5 638/6/5 637/6/5
f 642/7/5 637/7/5 641/7/5
f 643/6/5 638/6/5 642/6/5
f 646/7/5 645/7/5 644/7/5
f 647/7/5 645/7/5 646/7/5
f 650/7/5 649/7/5 648/7/5
f 651/7/5 649/7/5 650/7/5
f 654/12/5 653/12/5 652/12/5
f 655/12/5 653/12/5 654/12/5
f 658/5/5 657/5/5 656/5/5
f 659/5/5 657/5/5 658/5/5
f 660/13/6 661/13/6 662/13/6
f 660/13/6 662/13/6 664/13/6
f 664/13/6 662/13/6 665/13/6
f 663/5/6 664/5/6 666/5/6
f 666/5/6 664/5/6 667/5/6
f 667/13/6 668/13/6 669/13/6
f 667/13/6 669/13/6 670/13/6
f 670/13/6 669/13/6 671/13/6
f 672/5/6 673/5/6 676/5/6
f 676/5/6 673/5/6 677/5/6
f 674/5/6 675/5/6 678/5/6
f 678/5/6 675/5/6 679/5/6
f 681/12/6 682/12/6 684/12/6
f 684/12/6 682/12/6 685/12/6
f 681/12/6 684/12/6 686/12/6
f 685/12/6 682/12/6 687/12/6
f 680/5/6 681/5/6 688/5/6
f 686/12/6 687/12/6 688/12/6
f 681/12/6 686/12/6 688/12/6
f 687/12/6 682/12/6 689/12/6
f 688/12/6 687/12/6 689/12/6
f 682/5/6 683/5/6 689/5/6
f 680/5/6 688/5/6 690/5/6
f 688/5/6 689/5/6 690/5/6
f 689/5/6 683/5/6 691/5/6
f 690/5/6 689/5/6 691/5/6
f 692/7/6 693/7/6 696/7/6
f 696/7/6 693/7/6 697/7/6
f 694/7/6 695/7/6 698/7/6
f 698/7/6 695/7/6 699/7/6
f 700/7/6 701/7/6 704/7/6
f 704/7/6 701/7/6 705/7/6
f 702/7/6 703/7/6 708/7/6
f 708/7/6 703/7/6 709/7/6
f 705/7/6 706/7/6 710/7/6
f 710/7/6 706/7/6 711/7/6
f 707/7/6 708/7/6 712/7/6
f 712/7/6 708/7/6 713/7/6
f 714/7/6 715/7/6 718/7/6
f 718/7/6 715/7/6 719/7/6
f 716/7/6 717/7/6 720/7/6
f 720/7/6 717/7/6 721/7/6
f 722/7/6 723/7/6 726/7/6
f 726/7/6 723/7/6 727/7/6
f 724/7/6 725/7/6 728/7/6
f 728/7/6 725/7/6 729/7/6
f 730/7/6 731/7/6 732/7/6
f 732/7/6 731/7/6 733/7/6
f 734/7/6 735/7/6 736/7/6
f 736/7/6 735/7/6 737/7/6
f 738/12/6 739/12/6 741/12/6
f 739/5/6 740/5/6 742/5/6
f 741/12/6 739/12/6 742/12/6
f 742/5/6 740/5/6 743/5/6
f 743/5/6 740/5/6 744/5/6
f 744/5/6 740/5/6 745/5/6
f 741/5/6 742/5/6 746/5/6
f 741/5/6 746/5/6 747/5/6
f 745/5/6 740/5/6 748/5/6
f 748/5/6 740/5/6 749/5/6
f 741/5/6 747/5/6 750/5/6
f 748/12/6 749/12/6 751/12/6
f 751/12/6 749/12/6 752/12/6
f 741/5/6 750/5/6 753/5/6
f 750/5/6 751/5/6 753/5/6
f 751/5/6 752/5/6 753/5/6
f 753/5/6 752/5/6 754/5/6
f 755/5/6 756/5/6 759/5/6
f 759/5/6 756/5/6 760/5/6
f 756/12/6 757/12/6 761/12/6
f 760/5/6 756/5/6 761/5/6
f 757/5/6 758/5/6 762/5/6
f 761/12/6 757/12/6 762/12/6
f 759/12/6 760/12/6 763/12/6
f 763/12/6 760/12/6 764/12/6
f 763/5/6 764/5/6 765/5/6
f 765/5/6 764/5/6 766/5/6
f 762/5/6 758/5/6 767/5/6
f 767/5/6 758/5/6 768/5/6
f 769/5/6 770/5/6 771/5/6
f 771/5/6 770/5/6 772/5/6
f 773/5/6 774/5/6 775/5/6
f 775/5/6 774/5/6 776/5/6
f 773/5/6 775/5/6 777/5/6
f 777/5/6 775/5/6 778/5/6
f 777/12/6 778/12/6 780/12/6
f 778/12/6 779/12/6 780/12/6
f 780/12/6 779/12/6 781/12/6
