# MagicaVoxel @ Ephtracy

# group
g crt_npc1

# material
mtllib crt_npc1.mtl
usemtl palette

# normals
vn -1 0 0
vn 1 0 0
vn 0 0 1
vn 0 0 -1
vn 0 -1 0
vn 0 1 0

# texcoords
vt 0.00195313 0.5
vt 0.0332031 0.5
vt 0.0605469 0.5
vt 0.142578 0.5
vt 0.177734 0.5
vt 0.431641 0.5
vt 0.435547 0.5
vt 0.521484 0.5
vt 0.611328 0.5
vt 0.634766 0.5
vt 0.646484 0.5
vt 0.716797 0.5
vt 0.869141 0.5
vt 0.876953 0.5
vt 0.990234 0.5
vt 0.994141 0.5

# verts
v -6 5 0.5
v -6 5 -0.5
v -6 6 0.5
v -6 6 -0.5
v -4 6 2.5
v -4 6 1.5
v -4 8 3.5
v -4 8 2.5
v -4 8 1.5
v -4 8 -2.5
v -4 11 3.5
v -4 11 2.5
v -4 12 2.5
v -4 12 -2.5
v -3 1 2.5
v -3 1 -2.5
v -3 2 2.5
v -3 2 -2.5
v -3 3 2.5
v -3 3 -2.5
v -3 5 0.5
v -3 5 -0.5
v -3 6 2.5
v -3 6 1.5
v -3 6 0.5
v -3 6 -0.5
v -3 7 1.5
v -3 7 -2.5
v -3 8 1.5
v -3 8 -2.5
v -3 8 -3.5
v -3 11 3.5
v -3 11 2.5
v -3 12 3.5
v -3 12 2.5
v -3 12 -2.5
v -3 12 -3.5
v -3 13 2.5
v -3 13 -2.5
v -2 0 0.5
v -2 0 -0.5
v -2 1 0.5
v -2 1 -0.5
v -2 7 -2.5
v -2 7 -3.5
v -2 8 -2.5
v -2 8 -3.5
v -2 9 4.5
v -2 9 3.5
v -2 10 3.5
v -2 12 4.5
v -2 12 3.5
v -2 12 2.5
v -2 13 3.5
v -2 13 2.5
v -2 13 1.5
v -2 13 -1.5
v -2 14 1.5
v -2 14 -1.5
v -1 2 -4.5
v -1 2 -5.5
v -1 10 -5.5
v -1 10 -6.5
v -1 11 -3.5
v -1 11 -4.5
v -1 12 -2.5
v -1 12 -3.5
v -1 13 -2.5
v -1 13 -3.5
v -1 13 -4.5
v -1 13 -5.5
v -1 13 -6.5
v -1 14 -3.5
v -1 14 -5.5
v 1 0 0.5
v 1 0 -0.5
v 1 1 0.5
v 1 1 -0.5
v 1 9 3.5
v 1 9 2.5
v 1 10 3.5
v 1 10 2.5
v 3 8 3.5
v 3 8 2.5
v 3 9 3.5
v 3 9 2.5
v -3 8 3.5
v -3 8 2.5
v -3 9 3.5
v -3 9 2.5
v -1 0 0.5
v -1 0 -0.5
v -1 1 0.5
v -1 1 -0.5
v -1 9 3.5
v -1 9 2.5
v -1 10 3.5
v -1 10 2.5
v 1 2 -4.5
v 1 2 -5.5
v 1 10 -5.5
v 1 10 -6.5
v 1 11 -3.5
v 1 11 -4.5
v 1 12 -2.5
v 1 12 -3.5
v 1 13 1.5
v 1 13 0.5
v 1 13 -2.5
v 1 13 -3.5
v 1 13 -4.5
v 1 13 -5.5
v 1 13 -6.5
v 1 14 1.5
v 1 14 0.5
v 1 14 -3.5
v 1 14 -5.5
v 2 0 0.5
v 2 0 -0.5
v 2 1 0.5
v 2 1 -0.5
v 2 7 -2.5
v 2 7 -3.5
v 2 8 -2.5
v 2 8 -3.5
v 2 9 4.5
v 2 9 3.5
v 2 10 3.5
v 2 12 4.5
v 2 12 3.5
v 2 12 2.5
v 2 13 3.5
v 2 13 2.5
v 2 13 0.5
v 2 13 -1.5
v 2 14 0.5
v 2 14 -1.5
v 3 1 2.5
v 3 1 -2.5
v 3 2 2.5
v 3 2 -2.5
v 3 3 2.5
v 3 3 -2.5
v 3 5 0.5
v 3 5 -0.5
v 3 6 2.5
v 3 6 1.5
v 3 6 0.5
v 3 6 -0.5
v 3 7 1.5
v 3 7 -2.5
v 3 8 -1.5
v 3 8 -2.5
v 3 8 -3.5
v 3 9 0.5
v 3 9 -1.5
v 3 10 1.5
v 3 10 0.5
v 3 11 3.5
v 3 11 2.5
v 3 12 3.5
v 3 12 2.5
v 3 12 -2.5
v 3 12 -3.5
v 3 13 2.5
v 3 13 -2.5
v 4 6 2.5
v 4 6 1.5
v 4 8 3.5
v 4 8 2.5
v 4 8 -1.5
v 4 8 -2.5
v 4 9 0.5
v 4 9 -1.5
v 4 10 1.5
v 4 10 0.5
v 4 11 3.5
v 4 11 2.5
v 4 12 2.5
v 4 12 -2.5
v 6 5 0.5
v 6 5 -0.5
v 6 6 0.5
v 6 6 -0.5
v -2 9 4.5
v -2 12 4.5
v 2 9 4.5
v 2 12 4.5
v -4 8 3.5
v -4 11 3.5
v -3 8 3.5
v -3 9 3.5
v -3 10 3.5
v -3 11 3.5
v -3 12 3.5
v -2 9 3.5
v -2 10 3.5
v -2 12 3.5
v -2 13 3.5
v 2 9 3.5
v 2 10 3.5
v 2 12 3.5
v 2 13 3.5
v 3 8 3.5
v 3 9 3.5
v 3 10 3.5
v 3 11 3.5
v 3 12 3.5
v 4 8 3.5
v 4 11 3.5
v -4 6 2.5
v -4 8 2.5
v -4 11 2.5
v -4 12 2.5
v -3 1 2.5
v -3 2 2.5
v -3 3 2.5
v -3 6 2.5
v -3 7 2.5
v -3 8 2.5
v -3 9 2.5
v -3 11 2.5
v -3 12 2.5
v -3 13 2.5
v -2 5 2.5
v -2 7 2.5
v -2 8 2.5
v -2 9 2.5
v -2 12 2.5
v -2 13 2.5
v -1 3 2.5
v -1 4 2.5
v -1 5 2.5
v -1 6 2.5
v -1 7 2.5
v -1 8 2.5
v -1 9 2.5
v -1 10 2.5
v 0 7 2.5
v 0 8 2.5
v 1 3 2.5
v 1 4 2.5
v 1 5 2.5
v 1 6 2.5
v 1 7 2.5
v 1 8 2.5
v 1 9 2.5
v 1 10 2.5
v 2 5 2.5
v 2 7 2.5
v 2 8 2.5
v 2 9 2.5
v 2 12 2.5
v 2 13 2.5
v 3 1 2.5
v 3 2 2.5
v 3 3 2.5
v 3 6 2.5
v 3 7 2.5
v 3 8 2.5
v 3 9 2.5
v 3 11 2.5
v 3 12 2.5
v 3 13 2.5
v 4 6 2.5
v 4 8 2.5
v 4 11 2.5
v 4 12 2.5
v -2 13 1.5
v -2 14 1.5
v 1 13 1.5
v 1 14 1.5
v -6 5 0.5
v -6 6 0.5
v -5 5 0.5
v -5 6 0.5
v -3 5 0.5
v -3 6 0.5
v -2 0 0.5
v -2 1 0.5
v -1 0 0.5
v -1 1 0.5
v 1 0 0.5
v 1 1 0.5
v 1 13 0.5
v 1 14 0.5
v 2 0 0.5
v 2 1 0.5
v 2 13 0.5
v 2 14 0.5
v 3 5 0.5
v 3 6 0.5
v 3 9 0.5
v 3 10 0.5
v 4 9 0.5
v 4 10 0.5
v 5 5 0.5
v 5 6 0.5
v 6 5 0.5
v 6 6 0.5
v 3 8 -1.5
v 3 9 -1.5
v 4 8 -1.5
v 4 9 -1.5
v -1 13 -3.5
v -1 14 -3.5
v 1 13 -3.5
v 1 14 -3.5
v -1 2 -4.5
v -1 11 -4.5
v 1 2 -4.5
v 1 11 -4.5
v -1 9 3.5
v -1 10 3.5
v 1 9 3.5
v 1 10 3.5
v -4 6 1.5
v -4 8 1.5
v -3 6 1.5
v -3 7 1.5
v -3 8 1.5
v 3 6 1.5
v 3 7 1.5
v 3 10 1.5
v 4 6 1.5
v 4 10 1.5
v -6 5 -0.5
v -6 6 -0.5
v -5 5 -0.5
v -5 6 -0.5
v -3 5 -0.5
v -3 6 -0.5
v -2 0 -0.5
v -2 1 -0.5
v -1 0 -0.5
v -1 1 -0.5
v 1 0 -0.5
v 1 1 -0.5
v 2 0 -0.5
v 2 1 -0.5
v 3 5 -0.5
v 3 6 -0.5
v 5 5 -0.5
v 5 6 -0.5
v 6 5 -0.5
v 6 6 -0.5
v -2 13 -1.5
v -2 14 -1.5
v 2 13 -1.5
v 2 14 -1.5
v -4 8 -2.5
v -4 12 -2.5
v -3 1 -2.5
v -3 2 -2.5
v -3 3 -2.5
v -3 7 -2.5
v -3 8 -2.5
v -3 12 -2.5
v -3 13 -2.5
v -2 7 -2.5
v -2 8 -2.5
v -1 12 -2.5
v -1 13 -2.5
v 1 12 -2.5
v 1 13 -2.5
v 2 7 -2.5
v 2 8 -2.5
v 3 1 -2.5
v 3 2 -2.5
v 3 3 -2.5
v 3 7 -2.5
v 3 8 -2.5
v 3 12 -2.5
v 3 13 -2.5
v 4 8 -2.5
v 4 12 -2.5
v -3 8 -3.5
v -3 12 -3.5
v -2 7 -3.5
v -2 8 -3.5
v -1 11 -3.5
v -1 12 -3.5
v 1 11 -3.5
v 1 12 -3.5
v 2 7 -3.5
v 2 8 -3.5
v 3 8 -3.5
v 3 12 -3.5
v -1 2 -5.5
v -1 10 -5.5
v -1 13 -5.5
v -1 14 -5.5
v 1 2 -5.5
v 1 10 -5.5
v 1 13 -5.5
v 1 14 -5.5
v -1 10 -6.5
v -1 13 -6.5
v 1 10 -6.5
v 1 13 -6.5
v -2 0 0.5
v -1 0 0.5
v 1 0 0.5
v 2 0 0.5
v -2 0 -0.5
v -1 0 -0.5
v 1 0 -0.5
v 2 0 -0.5
v -3 1 2.5
v 3 1 2.5
v -2 1 0.5
v -1 1 0.5
v 1 1 0.5
v 2 1 0.5
v -2 1 -0.5
v -1 1 -0.5
v 1 1 -0.5
v 2 1 -0.5
v -3 1 -2.5
v 3 1 -2.5
v -1 2 -4.5
v 1 2 -4.5
v -1 2 -5.5
v 1 2 -5.5
v -6 5 0.5
v -5 5 0.5
v -3 5 0.5
v 3 5 0.5
v 5 5 0.5
v 6 5 0.5
v -6 5 -0.5
v -5 5 -0.5
v -3 5 -0.5
v 3 5 -0.5
v 5 5 -0.5
v 6 5 -0.5
v -4 6 2.5
v -3 6 2.5
v 3 6 2.5
v 4 6 2.5
v -4 6 1.5
v -3 6 1.5
v 3 6 1.5
v 4 6 1.5
v -2 7 -2.5
v 2 7 -2.5
v -2 7 -3.5
v 2 7 -3.5
v -4 8 3.5
v -3 8 3.5
v 3 8 3.5
v 4 8 3.5
v -4 8 2.5
v -3 8 2.5
v 3 8 2.5
v 4 8 2.5
v -4 8 1.5
v -3 8 1.5
v 3 8 -1.5
v 4 8 -1.5
v -4 8 -2.5
v -3 8 -2.5
v -2 8 -2.5
v 2 8 -2.5
v 3 8 -2.5
v 4 8 -2.5
v -3 8 -3.5
v -2 8 -3.5
v 2 8 -3.5
v 3 8 -3.5
v -2 9 4.5
v 2 9 4.5
v -3 9 3.5
v -2 9 3.5
v -1 9 3.5
v 1 9 3.5
v 2 9 3.5
v 3 9 3.5
v -3 9 2.5
v -2 9 2.5
v -1 9 2.5
v 1 9 2.5
v 2 9 2.5
v 3 9 2.5
v 3 9 0.5
v 4 9 0.5
v 3 9 -1.5
v 4 9 -1.5
v -1 10 3.5
v 1 10 3.5
v -1 10 2.5
v 1 10 2.5
v 3 10 1.5
v 4 10 1.5
v 3 10 0.5
v 4 10 0.5
v -1 10 -5.5
v 1 10 -5.5
v -1 10 -6.5
v 1 10 -6.5
v -1 11 -3.5
v 1 11 -3.5
v -1 11 -4.5
v 1 11 -4.5
v -6 6 0.5
v -5 6 0.5
v -3 6 0.5
v 3 6 0.5
v 5 6 0.5
v 6 6 0.5
v -6 6 -0.5
v -5 6 -0.5
v -3 6 -0.5
v 3 6 -0.5
v 5 6 -0.5
v 6 6 -0.5
v -4 11 3.5
v -3 11 3.5
v 3 11 3.5
v 4 11 3.5
v -4 11 2.5
v -3 11 2.5
v 3 11 2.5
v 4 11 2.5
v -2 12 4.5
v 2 12 4.5
v -3 12 3.5
v -2 12 3.5
v 2 12 3.5
v 3 12 3.5
v -4 12 2.5
v -3 12 2.5
v -2 12 2.5
v 2 12 2.5
v 3 12 2.5
v 4 12 2.5
v -4 12 -2.5
v -3 12 -2.5
v -1 12 -2.5
v 1 12 -2.5
v 3 12 -2.5
v 4 12 -2.5
v -3 12 -3.5
v -1 12 -3.5
v 1 12 -3.5
v 3 12 -3.5
v -2 13 3.5
v 2 13 3.5
v -3 13 2.5
v -2 13 2.5
v 2 13 2.5
v 3 13 2.5
v -2 13 1.5
v 1 13 1.5
v 1 13 0.5
v 2 13 0.5
v -2 13 -1.5
v 2 13 -1.5
v -3 13 -2.5
v -1 13 -2.5
v 1 13 -2.5
v 3 13 -2.5
v -1 13 -3.5
v 1 13 -3.5
v -1 13 -5.5
v 1 13 -5.5
v -1 13 -6.5
v 1 13 -6.5
v -2 14 1.5
v 1 14 1.5
v 1 14 0.5
v 2 14 0.5
v -2 14 -1.5
v 2 14 -1.5
v -1 14 -3.5
v 1 14 -3.5
v -1 14 -5.5
v 1 14 -5.5

# faces
f 3/2/1 2/2/1 1/2/1
f 4/2/1 2/2/1 3/2/1
f 8/7/1 6/7/1 5/7/1
f 9/7/1 6/7/1 8/7/1
f 11/7/1 8/7/1 7/7/1
f 11/7/1 10/7/1 9/7/1
f 11/7/1 9/7/1 8/7/1
f 12/7/1 10/7/1 11/7/1
f 13/7/1 10/7/1 12/7/1
f 14/7/1 10/7/1 13/7/1
f 17/12/1 16/12/1 15/12/1
f 18/12/1 16/12/1 17/12/1
f 19/15/1 18/15/1 17/15/1
f 20/15/1 18/15/1 19/15/1
f 21/5/1 20/5/1 19/5/1
f 22/5/1 20/5/1 21/5/1
f 23/5/1 21/5/1 19/5/1
f 24/5/1 21/5/1 23/5/1
f 25/5/1 21/5/1 24/5/1
f 26/5/1 20/5/1 22/5/1
f 27/5/1 25/5/1 24/5/1
f 27/5/1 26/5/1 25/5/1
f 28/5/1 20/5/1 26/5/1
f 28/5/1 26/5/1 27/5/1
f 29/3/1 28/3/1 27/3/1
f 30/3/1 28/3/1 29/3/1
f 34/7/1 33/7/1 32/7/1
f 35/7/1 33/7/1 34/7/1
f 36/7/1 31/7/1 30/7/1
f 37/7/1 31/7/1 36/7/1
f 38/7/1 36/7/1 35/7/1
f 39/7/1 36/7/1 38/7/1
f 42/14/1 41/14/1 40/14/1
f 43/14/1 41/14/1 42/14/1
f 46/7/1 45/7/1 44/7/1
f 47/7/1 45/7/1 46/7/1
f 50/7/1 49/7/1 48/7/1
f 51/7/1 50/7/1 48/7/1
f 52/7/1 50/7/1 51/7/1
f 54/7/1 53/7/1 52/7/1
f 55/7/1 53/7/1 54/7/1
f 58/7/1 57/7/1 56/7/1
f 59/7/1 57/7/1 58/7/1
f 62/7/1 61/7/1 60/7/1
f 65/7/1 62/7/1 60/7/1
f 65/7/1 63/7/1 62/7/1
f 67/13/1 65/13/1 64/13/1
f 68/7/1 67/7/1 66/7/1
f 69/13/1 65/13/1 67/13/1
f 69/7/1 67/7/1 68/7/1
f 70/7/1 63/7/1 65/7/1
f 70/13/1 65/13/1 69/13/1
f 71/7/1 63/7/1 70/7/1
f 72/7/1 63/7/1 71/7/1
f 73/7/1 70/7/1 69/7/1
f 73/7/1 71/7/1 70/7/1
f 74/7/1 71/7/1 73/7/1
f 77/14/1 76/14/1 75/14/1
f 78/14/1 76/14/1 77/14/1
f 81/6/1 80/6/1 79/6/1
f 82/6/1 80/6/1 81/6/1
f 85/7/1 84/7/1 83/7/1
f 86/7/1 84/7/1 85/7/1
f 87/7/2 88/7/2 89/7/2
f 89/7/2 88/7/2 90/7/2
f 91/14/2 92/14/2 93/14/2
f 93/14/2 92/14/2 94/14/2
f 95/6/2 96/6/2 97/6/2
f 97/6/2 96/6/2 98/6/2
f 99/7/2 100/7/2 101/7/2
f 99/7/2 101/7/2 104/7/2
f 101/7/2 102/7/2 104/7/2
f 103/13/2 104/13/2 106/13/2
f 105/7/2 106/7/2 109/7/2
f 106/13/2 104/13/2 110/13/2
f 109/7/2 106/7/2 110/7/2
f 104/7/2 102/7/2 111/7/2
f 110/13/2 104/13/2 111/13/2
f 111/7/2 102/7/2 112/7/2
f 112/7/2 102/7/2 113/7/2
f 107/7/2 108/7/2 114/7/2
f 114/7/2 108/7/2 115/7/2
f 111/7/2 112/7/2 116/7/2
f 110/7/2 111/7/2 116/7/2
f 116/7/2 112/7/2 117/7/2
f 118/14/2 119/14/2 120/14/2
f 120/14/2 119/14/2 121/14/2
f 122/7/2 123/7/2 124/7/2
f 124/7/2 123/7/2 125/7/2
f 126/7/2 127/7/2 128/7/2
f 126/7/2 128/7/2 129/7/2
f 129/7/2 128/7/2 130/7/2
f 130/7/2 131/7/2 132/7/2
f 132/7/2 131/7/2 133/7/2
f 134/7/2 135/7/2 136/7/2
f 136/7/2 135/7/2 137/7/2
f 138/12/2 139/12/2 140/12/2
f 140/12/2 139/12/2 141/12/2
f 140/15/2 141/15/2 142/15/2
f 142/15/2 141/15/2 143/15/2
f 142/5/2 143/5/2 144/5/2
f 144/5/2 143/5/2 145/5/2
f 142/5/2 144/5/2 146/5/2
f 146/5/2 144/5/2 147/5/2
f 147/5/2 144/5/2 148/5/2
f 145/5/2 143/5/2 149/5/2
f 147/5/2 148/5/2 150/5/2
f 148/5/2 149/5/2 150/5/2
f 149/5/2 143/5/2 151/5/2
f 150/5/2 149/5/2 151/5/2
f 150/2/2 151/2/2 152/2/2
f 152/2/2 151/2/2 153/2/2
f 150/2/2 152/2/2 155/2/2
f 155/2/2 152/2/2 156/2/2
f 150/2/2 155/2/2 157/2/2
f 157/2/2 155/2/2 158/2/2
f 159/7/2 160/7/2 161/7/2
f 161/7/2 160/7/2 162/7/2
f 153/7/2 154/7/2 163/7/2
f 163/7/2 154/7/2 164/7/2
f 162/7/2 163/7/2 165/7/2
f 165/7/2 163/7/2 166/7/2
f 167/7/2 168/7/2 170/7/2
f 171/7/2 172/7/2 174/7/2
f 170/7/2 168/7/2 175/7/2
f 169/7/2 170/7/2 175/7/2
f 173/7/2 174/7/2 176/7/2
f 169/7/2 175/7/2 177/7/2
f 175/7/2 176/7/2 177/7/2
f 177/7/2 176/7/2 178/7/2
f 178/7/2 176/7/2 179/7/2
f 176/7/2 174/7/2 180/7/2
f 179/7/2 176/7/2 180/7/2
f 174/7/2 172/7/2 180/7/2
f 181/2/2 182/2/2 183/2/2
f 183/2/2 182/2/2 184/2/2
f 187/7/3 186/7/3 185/7/3
f 188/7/3 186/7/3 187/7/3
f 191/7/3 190/7/3 189/7/3
f 192/7/3 190/7/3 191/7/3
f 193/7/3 190/7/3 192/7/3
f 194/7/3 190/7/3 193/7/3
f 196/6/3 193/6/3 192/6/3
f 197/7/3 195/7/3 194/7/3
f 197/6/3 193/6/3 196/6/3
f 197/7/3 194/7/3 193/7/3
f 198/7/3 195/7/3 197/7/3
f 202/7/3 199/7/3 198/7/3
f 203/7/3 199/7/3 202/7/3
f 205/6/3 201/6/3 200/6/3
f 206/7/3 202/7/3 201/7/3
f 206/6/3 201/6/3 205/6/3
f 207/7/3 202/7/3 206/7/3
f 208/7/3 202/7/3 207/7/3
f 209/7/3 205/7/3 204/7/3
f 209/7/3 206/7/3 205/7/3
f 209/7/3 207/7/3 206/7/3
f 210/7/3 207/7/3 209/7/3
f 218/7/3 212/7/3 211/7/3
f 219/7/3 212/7/3 218/7/3
f 220/7/3 212/7/3 219/7/3
f 222/7/3 214/7/3 213/7/3
f 223/7/3 214/7/3 222/7/3
f 225/5/3 218/5/3 217/5/3
f 225/5/3 219/5/3 218/5/3
f 226/3/3 221/3/3 220/3/3
f 226/5/3 219/5/3 225/5/3
f 226/3/3 220/3/3 219/3/3
f 227/3/3 221/3/3 226/3/3
f 228/3/3 221/3/3 227/3/3
f 229/7/3 224/7/3 223/7/3
f 230/7/3 224/7/3 229/7/3
f 231/15/3 217/15/3 216/15/3
f 231/5/3 225/5/3 217/5/3
f 232/5/3 225/5/3 231/5/3
f 233/1/3 226/1/3 225/1/3
f 233/5/3 225/5/3 232/5/3
f 234/1/3 226/1/3 233/1/3
f 235/3/3 227/3/3 226/3/3
f 235/1/3 226/1/3 234/1/3
f 236/16/3 228/16/3 227/16/3
f 236/3/3 227/3/3 235/3/3
f 237/16/3 228/16/3 236/16/3
f 239/3/3 235/3/3 234/3/3
f 239/3/3 236/3/3 235/3/3
f 240/2/3 238/2/3 237/2/3
f 240/3/3 236/3/3 239/3/3
f 240/2/3 237/2/3 236/2/3
f 241/16/3 232/16/3 231/16/3
f 241/15/3 231/15/3 216/15/3
f 242/1/3 234/1/3 233/1/3
f 242/16/3 232/16/3 241/16/3
f 242/1/3 233/1/3 232/1/3
f 243/1/3 234/1/3 242/1/3
f 244/3/3 239/3/3 234/3/3
f 244/1/3 234/1/3 243/1/3
f 245/2/3 240/2/3 239/2/3
f 245/3/3 239/3/3 244/3/3
f 246/2/3 238/2/3 240/2/3
f 246/2/3 240/2/3 245/2/3
f 247/2/3 238/2/3 246/2/3
f 248/2/3 238/2/3 247/2/3
f 249/5/3 243/5/3 242/5/3
f 249/1/3 245/1/3 244/1/3
f 249/1/3 244/1/3 243/1/3
f 249/5/3 242/5/3 241/5/3
f 250/2/3 246/2/3 245/2/3
f 250/1/3 245/1/3 249/1/3
f 251/16/3 247/16/3 246/16/3
f 251/2/3 246/2/3 250/2/3
f 252/16/3 247/16/3 251/16/3
f 255/12/3 216/12/3 215/12/3
f 256/15/3 241/15/3 216/15/3
f 256/12/3 216/12/3 255/12/3
f 257/5/3 250/5/3 249/5/3
f 257/15/3 241/15/3 256/15/3
f 257/5/3 249/5/3 241/5/3
f 258/5/3 250/5/3 257/5/3
f 259/2/3 252/2/3 251/2/3
f 259/5/3 250/5/3 258/5/3
f 259/2/3 251/2/3 250/2/3
f 260/2/3 252/2/3 259/2/3
f 261/2/3 252/2/3 260/2/3
f 263/7/3 254/7/3 253/7/3
f 264/7/3 254/7/3 263/7/3
f 265/7/3 260/7/3 259/7/3
f 265/7/3 259/7/3 258/7/3
f 266/7/3 260/7/3 265/7/3
f 267/7/3 263/7/3 262/7/3
f 268/7/3 263/7/3 267/7/3
f 271/7/3 270/7/3 269/7/3
f 272/7/3 270/7/3 271/7/3
f 275/2/3 274/2/3 273/2/3
f 276/2/3 274/2/3 275/2/3
f 277/5/3 276/5/3 275/5/3
f 278/5/3 276/5/3 277/5/3
f 281/14/3 280/14/3 279/14/3
f 282/14/3 280/14/3 281/14/3
f 287/14/3 284/14/3 283/14/3
f 288/14/3 284/14/3 287/14/3
f 289/7/3 286/7/3 285/7/3
f 290/7/3 286/7/3 289/7/3
f 295/7/3 294/7/3 293/7/3
f 296/7/3 294/7/3 295/7/3
f 297/5/3 292/5/3 291/5/3
f 298/5/3 292/5/3 297/5/3
f 299/2/3 298/2/3 297/2/3
f 300/2/3 298/2/3 299/2/3
f 303/7/3 302/7/3 301/7/3
f 304/7/3 302/7/3 303/7/3
f 307/7/3 306/7/3 305/7/3
f 308/7/3 306/7/3 307/7/3
f 311/7/3 310/7/3 309/7/3
f 312/7/3 310/7/3 311/7/3
f 313/7/4 314/7/4 315/7/4
f 315/7/4 314/7/4 316/7/4
f 317/7/4 318/7/4 319/7/4
f 319/7/4 318/7/4 320/7/4
f 320/7/4 318/7/4 321/7/4
f 322/7/4 323/7/4 325/7/4
f 323/7/4 324/7/4 325/7/4
f 325/7/4 324/7/4 326/7/4
f 327/2/4 328/2/4 329/2/4
f 329/2/4 328/2/4 330/2/4
f 329/5/4 330/5/4 331/5/4
f 331/5/4 330/5/4 332/5/4
f 333/14/4 334/14/4 335/14/4
f 335/14/4 334/14/4 336/14/4
f 337/14/4 338/14/4 339/14/4
f 339/14/4 338/14/4 340/14/4
f 341/5/4 342/5/4 343/5/4
f 343/5/4 342/5/4 344/5/4
f 343/2/4 344/2/4 345/2/4
f 345/2/4 344/2/4 346/2/4
f 347/7/4 348/7/4 349/7/4
f 349/7/4 348/7/4 350/7/4
f 351/7/4 352/7/4 357/7/4
f 357/7/4 352/7/4 358/7/4
f 355/5/4 356/5/4 360/5/4
f 356/3/4 357/3/4 360/3/4
f 360/3/4 357/3/4 361/3/4
f 358/7/4 359/7/4 362/7/4
f 362/7/4 359/7/4 363/7/4
f 355/5/4 360/5/4 366/5/4
f 353/12/4 354/12/4 368/12/4
f 354/15/4 355/15/4 369/15/4
f 368/12/4 354/12/4 369/12/4
f 355/5/4 366/5/4 370/5/4
f 369/15/4 355/15/4 370/15/4
f 366/2/4 367/2/4 371/2/4
f 370/5/4 366/5/4 371/5/4
f 371/2/4 367/2/4 372/2/4
f 364/7/4 365/7/4 373/7/4
f 373/7/4 365/7/4 374/7/4
f 372/7/4 373/7/4 375/7/4
f 375/7/4 373/7/4 376/7/4
f 377/7/4 378/7/4 380/7/4
f 380/7/4 378/7/4 381/7/4
f 379/7/4 380/7/4 381/7/4
f 381/7/4 378/7/4 382/7/4
f 379/7/4 381/7/4 383/7/4
f 379/7/4 383/7/4 385/7/4
f 383/7/4 384/7/4 385/7/4
f 385/7/4 384/7/4 386/7/4
f 386/7/4 384/7/4 387/7/4
f 387/7/4 384/7/4 388/7/4
f 389/7/4 390/7/4 393/7/4
f 393/7/4 390/7/4 394/7/4
f 391/7/4 392/7/4 395/7/4
f 395/7/4 392/7/4 396/7/4
f 397/7/4 398/7/4 399/7/4
f 399/7/4 398/7/4 400/7/4
f 405/14/5 402/14/5 401/14/5
f 406/14/5 402/14/5 405/14/5
f 407/14/5 404/14/5 403/14/5
f 408/14/5 404/14/5 407/14/5
f 411/12/5 410/12/5 409/12/5
f 412/12/5 410/12/5 411/12/5
f 413/12/5 410/12/5 412/12/5
f 414/12/5 410/12/5 413/12/5
f 415/12/5 411/12/5 409/12/5
f 416/12/5 413/12/5 412/12/5
f 417/12/5 413/12/5 416/12/5
f 418/12/5 410/12/5 414/12/5
f 419/12/5 417/12/5 416/12/5
f 419/12/5 418/12/5 417/12/5
f 419/12/5 415/12/5 409/12/5
f 419/12/5 416/12/5 415/12/5
f 420/12/5 410/12/5 418/12/5
f 420/12/5 418/12/5 419/12/5
f 423/7/5 422/7/5 421/7/5
f 424/7/5 422/7/5 423/7/5
f 431/2/5 426/2/5 425/2/5
f 432/5/5 427/5/5 426/5/5
f 432/2/5 426/2/5 431/2/5
f 433/5/5 427/5/5 432/5/5
f 434/5/5 429/5/5 428/5/5
f 435/2/5 430/2/5 429/2/5
f 435/5/5 429/5/5 434/5/5
f 436/2/5 430/2/5 435/2/5
f 441/7/5 438/7/5 437/7/5
f 442/7/5 438/7/5 441/7/5
f 443/7/5 440/7/5 439/7/5
f 444/7/5 440/7/5 443/7/5
f 447/7/5 446/7/5 445/7/5
f 448/7/5 446/7/5 447/7/5
f 453/7/5 450/7/5 449/7/5
f 454/7/5 450/7/5 453/7/5
f 455/7/5 452/7/5 451/7/5
f 456/7/5 452/7/5 455/7/5
f 461/7/5 458/7/5 457/7/5
f 462/7/5 458/7/5 461/7/5
f 465/7/5 460/7/5 459/7/5
f 466/7/5 460/7/5 465/7/5
f 467/7/5 463/7/5 462/7/5
f 468/7/5 463/7/5 467/7/5
f 469/7/5 465/7/5 464/7/5
f 470/7/5 465/7/5 469/7/5
f 474/7/5 472/7/5 471/7/5
f 475/7/5 472/7/5 474/7/5
f 476/7/5 472/7/5 475/7/5
f 477/7/5 472/7/5 476/7/5
f 479/6/5 474/6/5 473/6/5
f 479/6/5 475/6/5 474/6/5
f 480/6/5 475/6/5 479/6/5
f 481/6/5 475/6/5 480/6/5
f 482/6/5 478/6/5 477/6/5
f 482/6/5 477/6/5 476/6/5
f 483/6/5 478/6/5 482/6/5
f 484/6/5 478/6/5 483/6/5
f 487/7/5 486/7/5 485/7/5
f 488/7/5 486/7/5 487/7/5
f 491/7/5 490/7/5 489/7/5
f 492/7/5 490/7/5 491/7/5
f 495/7/5 494/7/5 493/7/5
f 496/7/5 494/7/5 495/7/5
f 499/7/5 498/7/5 497/7/5
f 500/7/5 498/7/5 499/7/5
f 503/13/5 502/13/5 501/13/5
f 504/13/5 502/13/5 503/13/5
f 505/2/6 506/2/6 511/2/6
f 506/5/6 507/5/6 512/5/6
f 511/2/6 506/2/6 512/2/6
f 512/5/6 507/5/6 513/5/6
f 508/5/6 509/5/6 514/5/6
f 509/2/6 510/2/6 515/2/6
f 514/5/6 509/5/6 515/5/6
f 515/2/6 510/2/6 516/2/6
f 517/7/6 518/7/6 521/7/6
f 521/7/6 518/7/6 522/7/6
f 519/7/6 520/7/6 523/7/6
f 523/7/6 520/7/6 524/7/6
f 525/7/6 526/7/6 528/7/6
f 528/7/6 526/7/6 529/7/6
f 527/7/6 528/7/6 532/7/6
f 532/7/6 528/7/6 533/7/6
f 529/7/6 530/7/6 534/7/6
f 534/7/6 530/7/6 535/7/6
f 531/7/6 532/7/6 537/7/6
f 537/7/6 532/7/6 538/7/6
f 535/7/6 536/7/6 541/7/6
f 541/7/6 536/7/6 542/7/6
f 538/7/6 539/7/6 543/7/6
f 543/7/6 539/7/6 544/7/6
f 540/7/6 541/7/6 545/7/6
f 545/7/6 541/7/6 546/7/6
f 547/7/6 548/7/6 550/7/6
f 550/7/6 548/7/6 551/7/6
f 549/7/6 550/7/6 553/7/6
f 551/7/6 552/7/6 553/7/6
f 550/7/6 551/7/6 553/7/6
f 553/7/6 552/7/6 554/7/6
f 554/7/6 552/7/6 555/7/6
f 555/7/6 552/7/6 556/7/6
f 549/7/6 553/7/6 557/7/6
f 556/7/6 552/7/6 558/7/6
f 549/7/6 557/7/6 559/7/6
f 557/7/6 558/7/6 559/7/6
f 559/7/6 558/7/6 560/7/6
f 560/7/6 558/7/6 561/7/6
f 558/7/6 552/7/6 562/7/6
f 561/7/6 558/7/6 562/7/6
f 560/7/6 561/7/6 563/7/6
f 563/7/6 561/7/6 564/7/6
f 565/7/6 566/7/6 567/7/6
f 567/7/6 566/7/6 568/7/6
f 569/7/6 570/7/6 571/7/6
f 569/7/6 571/7/6 573/7/6
f 571/7/6 572/7/6 573/7/6
f 573/7/6 572/7/6 574/7/6
f 575/7/6 576/7/6 577/7/6
f 577/7/6 576/7/6 578/7/6
