# MagicaVoxel @ Ephtracy

# group
g arrow

# material
mtllib arrow.mtl
usemtl palette

# normals
vn -1 0 0
vn 1 0 0
vn 0 0 1
vn 0 0 -1
vn 0 -1 0
vn 0 1 0

# texcoords
vt 0.716797 0.5
vt 0.865234 0.5
vt 0.966797 0.5
vt 0.982422 0.5

# verts
v -5.5 2 25
v -5.5 2 22
v -5.5 2 -25
v -5.5 2 -27
v -5.5 2 -29
v -5.5 2 -31
v -5.5 3 25
v -5.5 3 22
v -5.5 3 -25
v -5.5 3 -27
v -5.5 3 -29
v -5.5 3 -31
v -4.5 2 26
v -4.5 2 25
v -4.5 2 -24
v -4.5 2 -25
v -4.5 3 26
v -4.5 3 25
v -4.5 3 -24
v -4.5 3 -25
v -3.5 2 28
v -3.5 2 26
v -3.5 2 -23
v -3.5 2 -24
v -3.5 3 28
v -3.5 3 26
v -3.5 3 -23
v -3.5 3 -24
v -2.5 1 26
v -2.5 1 23
v -2.5 2 29
v -2.5 2 28
v -2.5 2 26
v -2.5 2 23
v -2.5 2 -22
v -2.5 2 -23
v -2.5 3 29
v -2.5 3 28
v -2.5 3 26
v -2.5 3 23
v -2.5 3 -22
v -2.5 3 -23
v -2.5 4 26
v -2.5 4 23
v -1.5 0 26
v -1.5 0 23
v -1.5 1 29
v -1.5 1 26
v -1.5 1 23
v -1.5 1 21
v -1.5 1 -27
v -1.5 1 -28
v -1.5 2 29
v -1.5 2 26
v -1.5 2 21
v -1.5 2 -22
v -1.5 2 -27
v -1.5 2 -28
v -1.5 3 29
v -1.5 3 26
v -1.5 3 21
v -1.5 3 -22
v -1.5 3 -27
v -1.5 3 -28
v -1.5 4 29
v -1.5 4 26
v -1.5 4 23
v -1.5 4 21
v -1.5 4 -27
v -1.5 4 -28
v -1.5 5 26
v -1.5 5 23
v -0.5 1 21
v -0.5 1 -27
v -0.5 2 31
v -0.5 2 29
v -0.5 2 21
v -0.5 2 -27
v -0.5 3 31
v -0.5 3 29
v -0.5 3 21
v -0.5 3 -27
v -0.5 4 21
v -0.5 4 -27
v 2.5 2 -28
v 2.5 2 -29
v 2.5 3 -28
v 2.5 3 -29
v 3.5 2 -29
v 3.5 2 -30
v 3.5 3 -29
v 3.5 3 -30
v 4.5 2 23
v 4.5 2 22
v 4.5 2 -30
v 4.5 2 -31
v 4.5 3 23
v 4.5 3 22
v 4.5 3 -30
v 4.5 3 -31
v -4.5 2 23
v -4.5 2 22
v -4.5 2 -30
v -4.5 2 -31
v -4.5 3 23
v -4.5 3 22
v -4.5 3 -30
v -4.5 3 -31
v -3.5 2 -29
v -3.5 2 -30
v -3.5 3 -29
v -3.5 3 -30
v -2.5 2 -28
v -2.5 2 -29
v -2.5 3 -28
v -2.5 3 -29
v 0.5 1 21
v 0.5 1 -27
v 0.5 2 31
v 0.5 2 29
v 0.5 2 21
v 0.5 2 -27
v 0.5 3 31
v 0.5 3 29
v 0.5 3 21
v 0.5 3 -27
v 0.5 4 21
v 0.5 4 -27
v 1.5 0 26
v 1.5 0 23
v 1.5 1 29
v 1.5 1 26
v 1.5 1 23
v 1.5 1 21
v 1.5 1 -27
v 1.5 1 -28
v 1.5 2 29
v 1.5 2 26
v 1.5 2 21
v 1.5 2 -22
v 1.5 2 -27
v 1.5 2 -28
v 1.5 3 29
v 1.5 3 26
v 1.5 3 21
v 1.5 3 -22
v 1.5 3 -27
v 1.5 3 -28
v 1.5 4 29
v 1.5 4 26
v 1.5 4 23
v 1.5 4 21
v 1.5 4 -27
v 1.5 4 -28
v 1.5 5 26
v 1.5 5 23
v 2.5 1 26
v 2.5 1 23
v 2.5 2 29
v 2.5 2 28
v 2.5 2 26
v 2.5 2 23
v 2.5 2 -22
v 2.5 2 -23
v 2.5 3 29
v 2.5 3 28
v 2.5 3 26
v 2.5 3 23
v 2.5 3 -22
v 2.5 3 -23
v 2.5 4 26
v 2.5 4 23
v 3.5 2 28
v 3.5 2 26
v 3.5 2 -23
v 3.5 2 -24
v 3.5 3 28
v 3.5 3 26
v 3.5 3 -23
v 3.5 3 -24
v 4.5 2 26
v 4.5 2 25
v 4.5 2 -24
v 4.5 2 -25
v 4.5 3 26
v 4.5 3 25
v 4.5 3 -24
v 4.5 3 -25
v 5.5 2 25
v 5.5 2 22
v 5.5 2 -25
v 5.5 2 -27
v 5.5 2 -29
v 5.5 2 -31
v 5.5 3 25
v 5.5 3 22
v 5.5 3 -25
v 5.5 3 -27
v 5.5 3 -29
v 5.5 3 -31
v -0.5 2 31
v -0.5 3 31
v 0.5 2 31
v 0.5 3 31
v -2.5 2 29
v -2.5 3 29
v -1.5 1 29
v -1.5 2 29
v -1.5 3 29
v -1.5 4 29
v -0.5 2 29
v -0.5 3 29
v 0.5 2 29
v 0.5 3 29
v 1.5 1 29
v 1.5 2 29
v 1.5 3 29
v 1.5 4 29
v 2.5 2 29
v 2.5 3 29
v -3.5 2 28
v -3.5 3 28
v -2.5 2 28
v -2.5 3 28
v 2.5 2 28
v 2.5 3 28
v 3.5 2 28
v 3.5 3 28
v -4.5 2 26
v -4.5 3 26
v -3.5 2 26
v -3.5 3 26
v -2.5 1 26
v -2.5 2 26
v -2.5 3 26
v -2.5 4 26
v -1.5 0 26
v -1.5 1 26
v -1.5 2 26
v -1.5 3 26
v -1.5 4 26
v -1.5 5 26
v 1.5 0 26
v 1.5 1 26
v 1.5 2 26
v 1.5 3 26
v 1.5 4 26
v 1.5 5 26
v 2.5 1 26
v 2.5 2 26
v 2.5 3 26
v 2.5 4 26
v 3.5 2 26
v 3.5 3 26
v 4.5 2 26
v 4.5 3 26
v -5.5 2 25
v -5.5 3 25
v -4.5 2 25
v -4.5 3 25
v 4.5 2 25
v 4.5 3 25
v 5.5 2 25
v 5.5 3 25
v -2.5 2 -22
v -2.5 3 -22
v -1.5 2 -22
v -1.5 3 -22
v 1.5 2 -22
v 1.5 3 -22
v 2.5 2 -22
v 2.5 3 -22
v -3.5 2 -23
v -3.5 3 -23
v -2.5 2 -23
v -2.5 3 -23
v 2.5 2 -23
v 2.5 3 -23
v 3.5 2 -23
v 3.5 3 -23
v -4.5 2 -24
v -4.5 3 -24
v -3.5 2 -24
v -3.5 3 -24
v 3.5 2 -24
v 3.5 3 -24
v 4.5 2 -24
v 4.5 3 -24
v -5.5 2 -25
v -5.5 3 -25
v -4.5 2 -25
v -4.5 3 -25
v 4.5 2 -25
v 4.5 3 -25
v 5.5 2 -25
v 5.5 3 -25
v -1.5 1 -27
v -1.5 2 -27
v -1.5 3 -27
v -1.5 4 -27
v -0.5 1 -27
v -0.5 2 -27
v -0.5 3 -27
v -0.5 4 -27
v 0.5 1 -27
v 0.5 2 -27
v 0.5 3 -27
v 0.5 4 -27
v 1.5 1 -27
v 1.5 2 -27
v 1.5 3 -27
v 1.5 4 -27
v -4.5 2 23
v -4.5 3 23
v -2.5 1 23
v -2.5 2 23
v -2.5 3 23
v -2.5 4 23
v -1.5 0 23
v -1.5 1 23
v -1.5 4 23
v -1.5 5 23
v 1.5 0 23
v 1.5 1 23
v 1.5 4 23
v 1.5 5 23
v 2.5 1 23
v 2.5 2 23
v 2.5 3 23
v 2.5 4 23
v 4.5 2 23
v 4.5 3 23
v -5.5 2 22
v -5.5 3 22
v -4.5 2 22
v -4.5 3 22
v 4.5 2 22
v 4.5 3 22
v 5.5 2 22
v 5.5 3 22
v -1.5 1 21
v -1.5 2 21
v -1.5 3 21
v -1.5 4 21
v -0.5 1 21
v -0.5 2 21
v -0.5 3 21
v -0.5 4 21
v 0.5 1 21
v 0.5 2 21
v 0.5 3 21
v 0.5 4 21
v 1.5 1 21
v 1.5 2 21
v 1.5 3 21
v 1.5 4 21
v -2.5 2 -28
v -2.5 3 -28
v -1.5 1 -28
v -1.5 2 -28
v -1.5 3 -28
v -1.5 4 -28
v 1.5 1 -28
v 1.5 2 -28
v 1.5 3 -28
v 1.5 4 -28
v 2.5 2 -28
v 2.5 3 -28
v -3.5 2 -29
v -3.5 3 -29
v -2.5 2 -29
v -2.5 3 -29
v 2.5 2 -29
v 2.5 3 -29
v 3.5 2 -29
v 3.5 3 -29
v -4.5 2 -30
v -4.5 3 -30
v -3.5 2 -30
v -3.5 3 -30
v 3.5 2 -30
v 3.5 3 -30
v 4.5 2 -30
v 4.5 3 -30
v -5.5 2 -31
v -5.5 3 -31
v -4.5 2 -31
v -4.5 3 -31
v 4.5 2 -31
v 4.5 3 -31
v 5.5 2 -31
v 5.5 3 -31
v -1.5 0 26
v 1.5 0 26
v -1.5 0 23
v 1.5 0 23
v -1.5 1 29
v 1.5 1 29
v -2.5 1 26
v -1.5 1 26
v 1.5 1 26
v 2.5 1 26
v -2.5 1 23
v -1.5 1 23
v 1.5 1 23
v 2.5 1 23
v -1.5 1 21
v -0.5 1 21
v 0.5 1 21
v 1.5 1 21
v -1.5 1 -27
v -0.5 1 -27
v 0.5 1 -27
v 1.5 1 -27
v -1.5 1 -28
v 1.5 1 -28
v -0.5 2 31
v 0.5 2 31
v -2.5 2 29
v -1.5 2 29
v -0.5 2 29
v 0.5 2 29
v 1.5 2 29
v 2.5 2 29
v -3.5 2 28
v -2.5 2 28
v 2.5 2 28
v 3.5 2 28
v -4.5 2 26
v -3.5 2 26
v -2.5 2 26
v -1.5 2 26
v 1.5 2 26
v 2.5 2 26
v 3.5 2 26
v 4.5 2 26
v -5.5 2 25
v -4.5 2 25
v 4.5 2 25
v 5.5 2 25
v -4.5 2 23
v -2.5 2 23
v 2.5 2 23
v 4.5 2 23
v -5.5 2 22
v -4.5 2 22
v 4.5 2 22
v 5.5 2 22
v -1.5 2 21
v -0.5 2 21
v 0.5 2 21
v 1.5 2 21
v -2.5 2 -22
v -1.5 2 -22
v 1.5 2 -22
v 2.5 2 -22
v -3.5 2 -23
v -2.5 2 -23
v 2.5 2 -23
v 3.5 2 -23
v -4.5 2 -24
v -3.5 2 -24
v -2.5 2 -24
v -1.5 2 -24
v 1.5 2 -24
v 2.5 2 -24
v 3.5 2 -24
v 4.5 2 -24
v -5.5 2 -25
v -4.5 2 -25
v -3.5 2 -25
v -2.5 2 -25
v 2.5 2 -25
v 3.5 2 -25
v 4.5 2 -25
v 5.5 2 -25
v -4.5 2 -26
v -3.5 2 -26
v -2.5 2 -26
v -1.5 2 -26
v 1.5 2 -26
v 2.5 2 -26
v 3.5 2 -26
v 4.5 2 -26
v -5.5 2 -27
v -4.5 2 -27
v -3.5 2 -27
v -2.5 2 -27
v -1.5 2 -27
v -0.5 2 -27
v 0.5 2 -27
v 1.5 2 -27
v 2.5 2 -27
v 3.5 2 -27
v 4.5 2 -27
v 5.5 2 -27
v -4.5 2 -28
v -3.5 2 -28
v -2.5 2 -28
v -1.5 2 -28
v 1.5 2 -28
v 2.5 2 -28
v 3.5 2 -28
v 4.5 2 -28
v -5.5 2 -29
v -4.5 2 -29
v -3.5 2 -29
v -2.5 2 -29
v 2.5 2 -29
v 3.5 2 -29
v 4.5 2 -29
v 5.5 2 -29
v -4.5 2 -30
v -3.5 2 -30
v 3.5 2 -30
v 4.5 2 -30
v -5.5 2 -31
v -4.5 2 -31
v 4.5 2 -31
v 5.5 2 -31
v -0.5 3 31
v 0.5 3 31
v -2.5 3 29
v -1.5 3 29
v -0.5 3 29
v 0.5 3 29
v 1.5 3 29
v 2.5 3 29
v -3.5 3 28
v -2.5 3 28
v 2.5 3 28
v 3.5 3 28
v -4.5 3 26
v -3.5 3 26
v -2.5 3 26
v -1.5 3 26
v 1.5 3 26
v 2.5 3 26
v 3.5 3 26
v 4.5 3 26
v -5.5 3 25
v -4.5 3 25
v 4.5 3 25
v 5.5 3 25
v -4.5 3 23
v -2.5 3 23
v 2.5 3 23
v 4.5 3 23
v -5.5 3 22
v -4.5 3 22
v 4.5 3 22
v 5.5 3 22
v -1.5 3 21
v -0.5 3 21
v 0.5 3 21
v 1.5 3 21
v -2.5 3 -22
v -1.5 3 -22
v 1.5 3 -22
v 2.5 3 -22
v -3.5 3 -23
v -2.5 3 -23
v 2.5 3 -23
v 3.5 3 -23
v -4.5 3 -24
v -3.5 3 -24
v -2.5 3 -24
v -1.5 3 -24
v 1.5 3 -24
v 2.5 3 -24
v 3.5 3 -24
v 4.5 3 -24
v -5.5 3 -25
v -4.5 3 -25
v -3.5 3 -25
v -2.5 3 -25
v 2.5 3 -25
v 3.5 3 -25
v 4.5 3 -25
v 5.5 3 -25
v -4.5 3 -26
v -3.5 3 -26
v -2.5 3 -26
v -1.5 3 -26
v 1.5 3 -26
v 2.5 3 -26
v 3.5 3 -26
v 4.5 3 -26
v -5.5 3 -27
v -4.5 3 -27
v -3.5 3 -27
v -2.5 3 -27
v -1.5 3 -27
v -0.5 3 -27
v 0.5 3 -27
v 1.5 3 -27
v 2.5 3 -27
v 3.5 3 -27
v 4.5 3 -27
v 5.5 3 -27
v -4.5 3 -28
v -3.5 3 -28
v -2.5 3 -28
v -1.5 3 -28
v 1.5 3 -28
v 2.5 3 -28
v 3.5 3 -28
v 4.5 3 -28
v -5.5 3 -29
v -4.5 3 -29
v -3.5 3 -29
v -2.5 3 -29
v 2.5 3 -29
v 3.5 3 -29
v 4.5 3 -29
v 5.5 3 -29
v -4.5 3 -30
v -3.5 3 -30
v 3.5 3 -30
v 4.5 3 -30
v -5.5 3 -31
v -4.5 3 -31
v 4.5 3 -31
v 5.5 3 -31
v -1.5 4 29
v 1.5 4 29
v -2.5 4 26
v -1.5 4 26
v 1.5 4 26
v 2.5 4 26
v -2.5 4 23
v -1.5 4 23
v 1.5 4 23
v 2.5 4 23
v -1.5 4 21
v -0.5 4 21
v 0.5 4 21
v 1.5 4 21
v -1.5 4 -27
v -0.5 4 -27
v 0.5 4 -27
v 1.5 4 -27
v -1.5 4 -28
v 1.5 4 -28
v -1.5 5 26
v 1.5 5 26
v -1.5 5 23
v 1.5 5 23

# faces
f 7/3/1 2/3/1 1/3/1
f 8/3/1 2/3/1 7/3/1
f 9/1/1 4/1/1 3/1/1
f 10/4/1 5/4/1 4/4/1
f 10/1/1 4/1/1 9/1/1
f 11/1/1 6/1/1 5/1/1
f 11/4/1 5/4/1 10/4/1
f 12/1/1 6/1/1 11/1/1
f 17/3/1 14/3/1 13/3/1
f 18/3/1 14/3/1 17/3/1
f 19/1/1 16/1/1 15/1/1
f 20/1/1 16/1/1 19/1/1
f 25/3/1 22/3/1 21/3/1
f 26/3/1 22/3/1 25/3/1
f 27/1/1 24/1/1 23/1/1
f 28/1/1 24/1/1 27/1/1
f 33/3/1 30/3/1 29/3/1
f 34/3/1 30/3/1 33/3/1
f 37/3/1 32/3/1 31/3/1
f 38/3/1 32/3/1 37/3/1
f 41/1/1 36/1/1 35/1/1
f 42/1/1 36/1/1 41/1/1
f 43/3/1 40/3/1 39/3/1
f 44/3/1 40/3/1 43/3/1
f 48/3/1 46/3/1 45/3/1
f 49/3/1 46/3/1 48/3/1
f 53/3/1 48/3/1 47/3/1
f 54/3/1 48/3/1 53/3/1
f 55/2/1 50/2/1 49/2/1
f 57/2/1 52/2/1 51/2/1
f 58/2/1 52/2/1 57/2/1
f 61/2/1 56/2/1 55/2/1
f 61/2/1 55/2/1 49/2/1
f 62/2/1 56/2/1 61/2/1
f 65/3/1 60/3/1 59/3/1
f 66/3/1 60/3/1 65/3/1
f 67/2/1 61/2/1 49/2/1
f 68/2/1 61/2/1 67/2/1
f 69/2/1 64/2/1 63/2/1
f 70/2/1 64/2/1 69/2/1
f 71/3/1 67/3/1 66/3/1
f 72/3/1 67/3/1 71/3/1
f 77/2/1 74/2/1 73/2/1
f 78/2/1 74/2/1 77/2/1
f 79/3/1 76/3/1 75/3/1
f 80/3/1 76/3/1 79/3/1
f 83/2/1 82/2/1 81/2/1
f 84/2/1 82/2/1 83/2/1
f 87/1/1 86/1/1 85/1/1
f 88/1/1 86/1/1 87/1/1
f 91/1/1 90/1/1 89/1/1
f 92/1/1 90/1/1 91/1/1
f 97/3/1 94/3/1 93/3/1
f 98/3/1 94/3/1 97/3/1
f 99/1/1 96/1/1 95/1/1
f 100/1/1 96/1/1 99/1/1
f 101/3/2 102/3/2 105/3/2
f 105/3/2 102/3/2 106/3/2
f 103/1/2 104/1/2 107/1/2
f 107/1/2 104/1/2 108/1/2
f 109/1/2 110/1/2 111/1/2
f 111/1/2 110/1/2 112/1/2
f 113/1/2 114/1/2 115/1/2
f 115/1/2 114/1/2 116/1/2
f 117/2/2 118/2/2 121/2/2
f 121/2/2 118/2/2 122/2/2
f 119/3/2 120/3/2 123/3/2
f 123/3/2 120/3/2 124/3/2
f 125/2/2 126/2/2 127/2/2
f 127/2/2 126/2/2 128/2/2
f 129/3/2 130/3/2 132/3/2
f 132/3/2 130/3/2 133/3/2
f 131/3/2 132/3/2 137/3/2
f 137/3/2 132/3/2 138/3/2
f 133/2/2 134/2/2 139/2/2
f 135/2/2 136/2/2 141/2/2
f 141/2/2 136/2/2 142/2/2
f 139/2/2 140/2/2 145/2/2
f 133/2/2 139/2/2 145/2/2
f 145/2/2 140/2/2 146/2/2
f 143/3/2 144/3/2 149/3/2
f 149/3/2 144/3/2 150/3/2
f 133/2/2 145/2/2 151/2/2
f 151/2/2 145/2/2 152/2/2
f 147/2/2 148/2/2 153/2/2
f 153/2/2 148/2/2 154/2/2
f 150/3/2 151/3/2 155/3/2
f 155/3/2 151/3/2 156/3/2
f 157/3/2 158/3/2 161/3/2
f 161/3/2 158/3/2 162/3/2
f 159/3/2 160/3/2 165/3/2
f 165/3/2 160/3/2 166/3/2
f 163/1/2 164/1/2 169/1/2
f 169/1/2 164/1/2 170/1/2
f 167/3/2 168/3/2 171/3/2
f 171/3/2 168/3/2 172/3/2
f 173/3/2 174/3/2 177/3/2
f 177/3/2 174/3/2 178/3/2
f 175/1/2 176/1/2 179/1/2
f 179/1/2 176/1/2 180/1/2
f 181/3/2 182/3/2 185/3/2
f 185/3/2 182/3/2 186/3/2
f 183/1/2 184/1/2 187/1/2
f 187/1/2 184/1/2 188/1/2
f 189/3/2 190/3/2 195/3/2
f 195/3/2 190/3/2 196/3/2
f 191/1/2 192/1/2 197/1/2
f 192/4/2 193/4/2 198/4/2
f 197/1/2 192/1/2 198/1/2
f 193/1/2 194/1/2 199/1/2
f 198/4/2 193/4/2 199/4/2
f 199/1/2 194/1/2 200/1/2
f 203/3/3 202/3/3 201/3/3
f 204/3/3 202/3/3 203/3/3
f 208/3/3 206/3/3 205/3/3
f 209/3/3 206/3/3 208/3/3
f 211/3/3 208/3/3 207/3/3
f 211/3/3 210/3/3 209/3/3
f 211/3/3 209/3/3 208/3/3
f 212/3/3 210/3/3 211/3/3
f 213/3/3 211/3/3 207/3/3
f 214/3/3 210/3/3 212/3/3
f 215/3/3 213/3/3 207/3/3
f 215/3/3 214/3/3 213/3/3
f 216/3/3 214/3/3 215/3/3
f 217/3/3 210/3/3 214/3/3
f 217/3/3 214/3/3 216/3/3
f 218/3/3 210/3/3 217/3/3
f 219/3/3 217/3/3 216/3/3
f 220/3/3 217/3/3 219/3/3
f 223/3/3 222/3/3 221/3/3
f 224/3/3 222/3/3 223/3/3
f 227/3/3 226/3/3 225/3/3
f 228/3/3 226/3/3 227/3/3
f 231/3/3 230/3/3 229/3/3
f 232/3/3 230/3/3 231/3/3
f 238/3/3 234/3/3 233/3/3
f 239/3/3 234/3/3 238/3/3
f 240/3/3 236/3/3 235/3/3
f 241/3/3 236/3/3 240/3/3
f 243/3/3 238/3/3 237/3/3
f 244/3/3 238/3/3 243/3/3
f 247/3/3 242/3/3 241/3/3
f 248/3/3 242/3/3 247/3/3
f 249/3/3 245/3/3 244/3/3
f 250/3/3 245/3/3 249/3/3
f 251/3/3 247/3/3 246/3/3
f 252/3/3 247/3/3 251/3/3
f 255/3/3 254/3/3 253/3/3
f 256/3/3 254/3/3 255/3/3
f 259/3/3 258/3/3 257/3/3
f 260/3/3 258/3/3 259/3/3
f 263/3/3 262/3/3 261/3/3
f 264/3/3 262/3/3 263/3/3
f 267/1/3 266/1/3 265/1/3
f 268/1/3 266/1/3 267/1/3
f 271/1/3 270/1/3 269/1/3
f 272/1/3 270/1/3 271/1/3
f 275/1/3 274/1/3 273/1/3
f 276/1/3 274/1/3 275/1/3
f 279/1/3 278/1/3 277/1/3
f 280/1/3 278/1/3 279/1/3
f 283/1/3 282/1/3 281/1/3
f 284/1/3 282/1/3 283/1/3
f 287/1/3 286/1/3 285/1/3
f 288/1/3 286/1/3 287/1/3
f 291/1/3 290/1/3 289/1/3
f 292/1/3 290/1/3 291/1/3
f 295/1/3 294/1/3 293/1/3
f 296/1/3 294/1/3 295/1/3
f 301/2/3 298/2/3 297/2/3
f 302/2/3 298/2/3 301/2/3
f 303/2/3 300/2/3 299/2/3
f 304/2/3 300/2/3 303/2/3
f 309/2/3 306/2/3 305/2/3
f 310/2/3 306/2/3 309/2/3
f 311/2/3 308/2/3 307/2/3
f 312/2/3 308/2/3 311/2/3
f 313/3/4 314/3/4 316/3/4
f 316/3/4 314/3/4 317/3/4
f 315/3/4 316/3/4 320/3/4
f 317/3/4 318/3/4 320/3/4
f 316/3/4 317/3/4 320/3/4
f 320/3/4 318/3/4 321/3/4
f 319/3/4 320/3/4 323/3/4
f 323/3/4 320/3/4 324/3/4
f 321/3/4 322/3/4 325/3/4
f 325/3/4 322/3/4 326/3/4
f 324/3/4 325/3/4 327/3/4
f 327/3/4 325/3/4 328/3/4
f 328/3/4 325/3/4 329/3/4
f 329/3/4 325/3/4 330/3/4
f 328/3/4 329/3/4 331/3/4
f 331/3/4 329/3/4 332/3/4
f 333/3/4 334/3/4 335/3/4
f 335/3/4 334/3/4 336/3/4
f 337/3/4 338/3/4 339/3/4
f 339/3/4 338/3/4 340/3/4
f 341/2/4 342/2/4 345/2/4
f 345/2/4 342/2/4 346/2/4
f 343/2/4 344/2/4 347/2/4
f 347/2/4 344/2/4 348/2/4
f 349/2/4 350/2/4 353/2/4
f 353/2/4 350/2/4 354/2/4
f 351/2/4 352/2/4 355/2/4
f 355/2/4 352/2/4 356/2/4
f 357/1/4 358/1/4 360/1/4
f 360/1/4 358/1/4 361/1/4
f 359/2/4 360/2/4 363/2/4
f 361/2/4 362/2/4 363/2/4
f 360/2/4 361/2/4 363/2/4
f 363/2/4 362/2/4 364/2/4
f 364/2/4 362/2/4 365/2/4
f 365/2/4 362/2/4 366/2/4
f 364/1/4 365/1/4 367/1/4
f 367/1/4 365/1/4 368/1/4
f 369/1/4 370/1/4 371/1/4
f 371/1/4 370/1/4 372/1/4
f 373/1/4 374/1/4 375/1/4
f 375/1/4 374/1/4 376/1/4
f 377/1/4 378/1/4 379/1/4
f 379/1/4 378/1/4 380/1/4
f 381/1/4 382/1/4 383/1/4
f 383/1/4 382/1/4 384/1/4
f 385/1/4 386/1/4 387/1/4
f 387/1/4 386/1/4 388/1/4
f 389/1/4 390/1/4 391/1/4
f 391/1/4 390/1/4 392/1/4
f 395/3/5 394/3/5 393/3/5
f 396/3/5 394/3/5 395/3/5
f 400/3/5 398/3/5 397/3/5
f 401/3/5 398/3/5 400/3/5
f 403/3/5 400/3/5 399/3/5
f 404/3/5 400/3/5 403/3/5
f 405/3/5 402/3/5 401/3/5
f 406/3/5 402/3/5 405/3/5
f 407/2/5 405/2/5 404/2/5
f 408/2/5 405/2/5 407/2/5
f 409/2/5 405/2/5 408/2/5
f 410/2/5 405/2/5 409/2/5
f 412/2/5 409/2/5 408/2/5
f 413/2/5 409/2/5 412/2/5
f 415/2/5 412/2/5 411/2/5
f 415/2/5 414/2/5 413/2/5
f 415/2/5 413/2/5 412/2/5
f 416/2/5 414/2/5 415/2/5
f 421/3/5 418/3/5 417/3/5
f 422/3/5 418/3/5 421/3/5
f 426/3/5 420/3/5 419/3/5
f 427/3/5 424/3/5 423/3/5
f 430/3/5 426/3/5 425/3/5
f 431/3/5 420/3/5 426/3/5
f 431/3/5 426/3/5 430/3/5
f 432/3/5 420/3/5 431/3/5
f 433/3/5 428/3/5 427/3/5
f 433/3/5 427/3/5 423/3/5
f 434/3/5 428/3/5 433/3/5
f 435/3/5 428/3/5 434/3/5
f 438/3/5 430/3/5 429/3/5
f 438/3/5 431/3/5 430/3/5
f 439/3/5 436/3/5 435/3/5
f 439/3/5 435/3/5 434/3/5
f 441/3/5 438/3/5 437/3/5
f 441/3/5 431/3/5 438/3/5
f 442/3/5 431/3/5 441/3/5
f 443/3/5 440/3/5 439/3/5
f 443/3/5 439/3/5 434/3/5
f 444/3/5 440/3/5 443/3/5
f 445/3/5 441/3/5 437/3/5
f 446/3/5 441/3/5 445/3/5
f 447/3/5 440/3/5 444/3/5
f 448/3/5 440/3/5 447/3/5
f 454/2/5 450/2/5 449/2/5
f 455/2/5 452/2/5 451/2/5
f 458/1/5 454/1/5 453/1/5
f 459/1/5 456/1/5 455/1/5
f 462/1/5 458/1/5 457/1/5
f 463/1/5 454/1/5 458/1/5
f 463/1/5 458/1/5 462/1/5
f 464/2/5 450/2/5 454/2/5
f 464/1/5 454/1/5 463/1/5
f 465/1/5 460/1/5 459/1/5
f 465/2/5 455/2/5 451/2/5
f 465/1/5 459/1/5 455/1/5
f 466/1/5 460/1/5 465/1/5
f 467/1/5 460/1/5 466/1/5
f 470/1/5 463/1/5 462/1/5
f 470/1/5 462/1/5 461/1/5
f 471/1/5 463/1/5 470/1/5
f 472/4/5 464/4/5 463/4/5
f 472/1/5 463/1/5 471/1/5
f 473/1/5 468/1/5 467/1/5
f 473/1/5 467/1/5 466/1/5
f 473/4/5 466/4/5 465/4/5
f 474/1/5 468/1/5 473/1/5
f 475/1/5 468/1/5 474/1/5
f 477/1/5 471/1/5 470/1/5
f 477/1/5 470/1/5 469/1/5
f 478/4/5 472/4/5 471/4/5
f 478/1/5 471/1/5 477/1/5
f 479/4/5 464/4/5 472/4/5
f 479/4/5 472/4/5 478/4/5
f 480/2/5 450/2/5 464/2/5
f 480/4/5 464/4/5 479/4/5
f 481/2/5 465/2/5 451/2/5
f 481/4/5 473/4/5 465/4/5
f 481/4/5 474/4/5 473/4/5
f 482/4/5 474/4/5 481/4/5
f 483/1/5 476/1/5 475/1/5
f 483/4/5 474/4/5 482/4/5
f 483/1/5 475/1/5 474/1/5
f 484/1/5 476/1/5 483/1/5
f 485/1/5 477/1/5 469/1/5
f 486/4/5 479/4/5 478/4/5
f 486/1/5 477/1/5 485/1/5
f 486/4/5 478/4/5 477/4/5
f 487/4/5 479/4/5 486/4/5
f 488/1/5 480/1/5 479/1/5
f 488/4/5 479/4/5 487/4/5
f 489/2/5 450/2/5 480/2/5
f 489/1/5 480/1/5 488/1/5
f 490/2/5 450/2/5 489/2/5
f 491/2/5 481/2/5 451/2/5
f 492/1/5 482/1/5 481/1/5
f 492/2/5 481/2/5 491/2/5
f 493/4/5 484/4/5 483/4/5
f 493/1/5 482/1/5 492/1/5
f 493/4/5 483/4/5 482/4/5
f 494/4/5 484/4/5 493/4/5
f 495/1/5 476/1/5 484/1/5
f 495/4/5 484/4/5 494/4/5
f 496/1/5 476/1/5 495/1/5
f 497/4/5 487/4/5 486/4/5
f 497/4/5 486/4/5 485/4/5
f 498/1/5 488/1/5 487/1/5
f 498/4/5 487/4/5 497/4/5
f 498/1/5 489/1/5 488/1/5
f 499/1/5 489/1/5 498/1/5
f 500/1/5 489/1/5 499/1/5
f 501/1/5 494/1/5 493/1/5
f 501/1/5 493/1/5 492/1/5
f 502/1/5 494/1/5 501/1/5
f 503/4/5 496/4/5 495/4/5
f 503/1/5 494/1/5 502/1/5
f 503/4/5 495/4/5 494/4/5
f 504/4/5 496/4/5 503/4/5
f 505/4/5 497/4/5 485/4/5
f 506/1/5 499/1/5 498/1/5
f 506/4/5 497/4/5 505/4/5
f 506/1/5 498/1/5 497/1/5
f 507/1/5 499/1/5 506/1/5
f 508/1/5 499/1/5 507/1/5
f 509/1/5 504/1/5 503/1/5
f 509/1/5 503/1/5 502/1/5
f 510/1/5 504/1/5 509/1/5
f 511/4/5 496/4/5 504/4/5
f 511/1/5 504/1/5 510/1/5
f 512/4/5 496/4/5 511/4/5
f 513/1/5 507/1/5 506/1/5
f 513/1/5 506/1/5 505/1/5
f 514/1/5 507/1/5 513/1/5
f 515/1/5 512/1/5 511/1/5
f 515/1/5 511/1/5 510/1/5
f 516/1/5 512/1/5 515/1/5
f 517/1/5 513/1/5 505/1/5
f 518/1/5 513/1/5 517/1/5
f 519/1/5 512/1/5 516/1/5
f 520/1/5 512/1/5 519/1/5
f 521/3/6 522/3/6 525/3/6
f 525/3/6 522/3/6 526/3/6
f 523/3/6 524/3/6 530/3/6
f 527/3/6 528/3/6 531/3/6
f 529/3/6 530/3/6 534/3/6
f 530/3/6 524/3/6 535/3/6
f 534/3/6 530/3/6 535/3/6
f 535/3/6 524/3/6 536/3/6
f 531/3/6 532/3/6 537/3/6
f 527/3/6 531/3/6 537/3/6
f 537/3/6 532/3/6 538/3/6
f 538/3/6 532/3/6 539/3/6
f 533/3/6 534/3/6 542/3/6
f 534/3/6 535/3/6 542/3/6
f 539/3/6 540/3/6 543/3/6
f 538/3/6 539/3/6 543/3/6
f 541/3/6 542/3/6 545/3/6
f 542/3/6 535/3/6 545/3/6
f 545/3/6 535/3/6 546/3/6
f 543/3/6 544/3/6 547/3/6
f 538/3/6 543/3/6 547/3/6
f 547/3/6 544/3/6 548/3/6
f 541/3/6 545/3/6 549/3/6
f 549/3/6 545/3/6 550/3/6
f 548/3/6 544/3/6 551/3/6
f 551/3/6 544/3/6 552/3/6
f 553/2/6 554/2/6 558/2/6
f 555/2/6 556/2/6 559/2/6
f 557/1/6 558/1/6 562/1/6
f 559/1/6 560/1/6 563/1/6
f 561/1/6 562/1/6 566/1/6
f 562/1/6 558/1/6 567/1/6
f 566/1/6 562/1/6 567/1/6
f 558/2/6 554/2/6 568/2/6
f 567/1/6 558/1/6 568/1/6
f 563/1/6 564/1/6 569/1/6
f 555/2/6 559/2/6 569/2/6
f 559/1/6 563/1/6 569/1/6
f 569/1/6 564/1/6 570/1/6
f 570/1/6 564/1/6 571/1/6
f 566/1/6 567/1/6 574/1/6
f 565/1/6 566/1/6 574/1/6
f 574/1/6 567/1/6 575/1/6
f 567/4/6 568/4/6 576/4/6
f 575/1/6 567/1/6 576/1/6
f 571/1/6 572/1/6 577/1/6
f 570/1/6 571/1/6 577/1/6
f 569/4/6 570/4/6 577/4/6
f 577/1/6 572/1/6 578/1/6
f 578/1/6 572/1/6 579/1/6
f 574/1/6 575/1/6 581/1/6
f 573/1/6 574/1/6 581/1/6
f 575/4/6 576/4/6 582/4/6
f 581/1/6 575/1/6 582/1/6
f 576/4/6 568/4/6 583/4/6
f 582/4/6 576/4/6 583/4/6
f 568/2/6 554/2/6 584/2/6
f 583/4/6 568/4/6 584/4/6
f 555/2/6 569/2/6 585/2/6
f 569/4/6 577/4/6 585/4/6
f 577/4/6 578/4/6 585/4/6
f 585/4/6 578/4/6 586/4/6
f 579/1/6 580/1/6 587/1/6
f 586/4/6 578/4/6 587/4/6
f 578/1/6 579/1/6 587/1/6
f 587/1/6 580/1/6 588/1/6
f 573/1/6 581/1/6 589/1/6
f 582/4/6 583/4/6 590/4/6
f 589/1/6 581/1/6 590/1/6
f 581/4/6 582/4/6 590/4/6
f 590/4/6 583/4/6 591/4/6
f 583/1/6 584/1/6 592/1/6
f 591/4/6 583/4/6 592/4/6
f 584/2/6 554/2/6 593/2/6
f 592/1/6 584/1/6 593/1/6
f 593/2/6 554/2/6 594/2/6
f 555/2/6 585/2/6 595/2/6
f 585/1/6 586/1/6 596/1/6
f 595/2/6 585/2/6 596/2/6
f 587/4/6 588/4/6 597/4/6
f 596/1/6 586/1/6 597/1/6
f 586/4/6 587/4/6 597/4/6
f 597/4/6 588/4/6 598/4/6
f 588/1/6 580/1/6 599/1/6
f 598/4/6 588/4/6 599/4/6
f 599/1/6 580/1/6 600/1/6
f 590/4/6 591/4/6 601/4/6
f 589/4/6 590/4/6 601/4/6
f 591/1/6 592/1/6 602/1/6
f 601/4/6 591/4/6 602/4/6
f 592/1/6 593/1/6 602/1/6
f 602/1/6 593/1/6 603/1/6
f 603/1/6 593/1/6 604/1/6
f 597/1/6 598/1/6 605/1/6
f 596/1/6 597/1/6 605/1/6
f 605/1/6 598/1/6 606/1/6
f 599/4/6 600/4/6 607/4/6
f 606/1/6 598/1/6 607/1/6
f 598/4/6 599/4/6 607/4/6
f 607/4/6 600/4/6 608/4/6
f 589/4/6 601/4/6 609/4/6
f 602/1/6 603/1/6 610/1/6
f 609/4/6 601/4/6 610/4/6
f 601/1/6 602/1/6 610/1/6
f 610/1/6 603/1/6 611/1/6
f 611/1/6 603/1/6 612/1/6
f 607/1/6 608/1/6 613/1/6
f 606/1/6 607/1/6 613/1/6
f 613/1/6 608/1/6 614/1/6
f 608/4/6 600/4/6 615/4/6
f 614/1/6 608/1/6 615/1/6
f 615/4/6 600/4/6 616/4/6
f 610/1/6 611/1/6 617/1/6
f 609/1/6 610/1/6 617/1/6
f 617/1/6 611/1/6 618/1/6
f 615/1/6 616/1/6 619/1/6
f 614/1/6 615/1/6 619/1/6
f 619/1/6 616/1/6 620/1/6
f 609/1/6 617/1/6 621/1/6
f 621/1/6 617/1/6 622/1/6
f 620/1/6 616/1/6 623/1/6
f 623/1/6 616/1/6 624/1/6
f 625/3/6 626/3/6 628/3/6
f 628/3/6 626/3/6 629/3/6
f 627/3/6 628/3/6 631/3/6
f 631/3/6 628/3/6 632/3/6
f 629/3/6 630/3/6 633/3/6
f 633/3/6 630/3/6 634/3/6
f 632/2/6 633/2/6 635/2/6
f 635/2/6 633/2/6 636/2/6
f 636/2/6 633/2/6 637/2/6
f 637/2/6 633/2/6 638/2/6
f 636/2/6 637/2/6 640/2/6
f 640/2/6 637/2/6 641/2/6
f 639/2/6 640/2/6 643/2/6
f 641/2/6 642/2/6 643/2/6
f 640/2/6 641/2/6 643/2/6
f 643/2/6 642/2/6 644/2/6
f 645/3/6 646/3/6 647/3/6
f 647/3/6 646/3/6 648/3/6
