# MagicaVoxel @ Ephtracy

# group
g lava_dol

# material
mtllib lava_dol.mtl
usemtl palette

# normals
vn -1 0 0
vn 1 0 0
vn 0 0 1
vn 0 0 -1
vn 0 -1 0
vn 0 1 0

# texcoords
vt 0.833984 0.5
vt 0.837891 0.5
vt 0.853516 0.5
vt 0.962891 0.5
vt 0.994141 0.5

# verts
v -4 0 4
v -4 0 1
v -4 0 -1
v -4 1 4
v -4 1 1
v -4 1 -1
v -4 2 1
v -4 2 -0
v -4 2 -1
v -4 4 1
v -4 4 -0
v -4 4 -1
v -4 5 2
v -4 5 1
v -4 5 -0
v -4 5 -1
v -4 6 4
v -4 6 2
v -4 6 -0
v -4 6 -1
v -3 0 6
v -3 0 4
v -3 0 -1
v -3 0 -2
v -3 0 -3
v -3 1 4
v -3 1 -1
v -3 1 -2
v -3 2 -1
v -3 2 -3
v -3 3 6
v -3 3 5
v -3 3 -1
v -3 3 -2
v -3 3 -3
v -3 4 -1
v -3 5 -1
v -3 6 5
v -3 6 4
v -3 6 3
v -3 6 2
v -3 6 1
v -3 6 -0
v -3 6 -1
v -3 6 -2
v -3 9 3
v -3 9 2
v -3 9 1
v -3 9 -0
v -2 3 6
v -2 3 5
v -2 3 -2
v -2 3 -3
v -2 5 6
v -2 5 5
v -2 6 6
v -2 6 5
v -2 6 4
v -2 6 3
v -2 6 -0
v -2 6 -1
v -2 6 -2
v -2 6 -3
v -2 9 4
v -2 9 3
v -2 9 2
v -2 9 1
v -2 9 -0
v -2 9 -1
v -2 10 2
v -2 10 1
v -2 12 3
v -2 12 -0
v -1 6 5
v -1 6 4
v -1 6 -1
v -1 6 -2
v -1 7 5
v -1 7 4
v -1 9 5
v -1 9 4
v -1 9 3
v -1 9 -0
v -1 9 -1
v -1 9 -2
v -1 10 4
v -1 10 3
v -1 12 4
v -1 12 3
v -1 12 -0
v -1 12 -1
v -1 15 3
v -1 15 -0
v 0 15 2
v 0 15 1
v 0 18 2
v 0 18 1
v 1 6 2
v 1 6 1
v 1 8 2
v 1 8 1
v 1 9 2
v 1 9 1
v 1 11 2
v 1 11 1
v 1 12 2
v 1 12 1
v 1 13 2
v 1 13 1
v 1 14 2
v 1 14 1
v 0 6 2
v 0 6 1
v 0 8 2
v 0 8 1
v 0 9 2
v 0 9 1
v 0 11 2
v 0 11 1
v 0 12 2
v 0 12 1
v 0 14 2
v 0 14 1
v 1 15 2
v 1 15 1
v 1 18 2
v 1 18 1
v 2 6 5
v 2 6 4
v 2 6 -1
v 2 6 -2
v 2 8 -1
v 2 9 5
v 2 9 4
v 2 9 3
v 2 9 -0
v 2 9 -1
v 2 9 -2
v 2 10 3
v 2 11 -0
v 2 12 4
v 2 12 3
v 2 12 2
v 2 12 1
v 2 12 -0
v 2 12 -1
v 2 13 3
v 2 13 1
v 2 15 3
v 2 15 1
v 2 15 -0
v 3 0 -2
v 3 0 -3
v 3 3 6
v 3 3 5
v 3 3 -2
v 3 3 -3
v 3 5 -2
v 3 5 -3
v 3 6 6
v 3 6 5
v 3 6 4
v 3 6 3
v 3 6 -0
v 3 6 -1
v 3 6 -2
v 3 6 -3
v 3 8 3
v 3 8 -0
v 3 8 -1
v 3 9 4
v 3 9 3
v 3 9 1
v 3 9 -0
v 3 9 -1
v 3 10 3
v 3 10 2
v 3 11 2
v 3 11 1
v 3 11 -0
v 3 12 3
v 3 12 2
v 3 12 1
v 3 12 -0
v 4 0 6
v 4 0 4
v 4 3 6
v 4 3 5
v 4 3 -1
v 4 3 -2
v 4 6 5
v 4 6 4
v 4 6 3
v 4 6 -0
v 4 6 -1
v 4 6 -2
v 4 8 3
v 4 8 -0
v 4 9 3
v 4 9 -0
v 5 0 4
v 5 0 -2
v 5 3 -1
v 5 3 -2
v 5 6 4
v 5 6 -1
v -3 0 6
v -3 3 6
v -2 3 6
v -2 5 6
v -2 6 6
v 0 5 6
v 0 6 6
v 1 0 6
v 1 2 6
v 2 1 6
v 2 2 6
v 3 0 6
v 3 1 6
v 3 3 6
v 3 6 6
v 4 0 6
v 4 3 6
v -3 3 5
v -3 6 5
v -2 3 5
v -2 5 5
v -2 6 5
v -1 6 5
v -1 7 5
v -1 9 5
v 0 6 5
v 0 7 5
v 0 8 5
v 0 9 5
v 1 6 5
v 1 8 5
v 1 9 5
v 2 6 5
v 2 9 5
v 3 3 5
v 3 6 5
v 4 3 5
v 4 6 5
v -4 0 4
v -4 1 4
v -4 6 4
v -3 0 4
v -3 1 4
v -3 6 4
v -2 6 4
v -2 9 4
v -1 6 4
v -1 7 4
v -1 9 4
v -1 10 4
v -1 12 4
v 0 9 4
v 0 10 4
v 0 11 4
v 1 9 4
v 1 11 4
v 2 6 4
v 2 9 4
v 2 12 4
v 3 6 4
v 3 9 4
v 4 0 4
v 4 6 4
v 5 0 4
v 5 6 4
v -3 6 3
v -3 9 3
v -2 6 3
v -2 9 3
v -2 12 3
v -1 9 3
v -1 10 3
v -1 12 3
v -1 15 3
v 1 12 3
v 1 13 3
v 2 9 3
v 2 10 3
v 2 12 3
v 2 13 3
v 2 15 3
v 3 6 3
v 3 8 3
v 3 9 3
v 3 10 3
v 3 12 3
v 4 6 3
v 4 8 3
v 4 9 3
v 0 15 2
v 0 18 2
v 1 15 2
v 1 18 2
v 0 6 1
v 0 8 1
v 0 9 1
v 0 11 1
v 0 12 1
v 0 14 1
v 1 6 1
v 1 8 1
v 1 9 1
v 1 11 1
v 1 12 1
v 1 13 1
v 1 14 1
v 0 6 2
v 0 8 2
v 0 9 2
v 0 11 2
v 0 12 2
v 0 14 2
v 1 6 2
v 1 8 2
v 1 9 2
v 1 11 2
v 1 12 2
v 1 13 2
v 1 14 2
v 0 15 1
v 0 18 1
v 1 15 1
v 1 18 1
v -3 6 -0
v -3 9 -0
v -2 6 -0
v -2 9 -0
v -2 12 -0
v -1 9 -0
v -1 12 -0
v -1 15 -0
v 0 14 -0
v 0 15 -0
v 1 12 -0
v 1 14 -0
v 2 9 -0
v 2 11 -0
v 2 12 -0
v 2 15 -0
v 3 6 -0
v 3 8 -0
v 3 9 -0
v 3 11 -0
v 3 12 -0
v 4 6 -0
v 4 8 -0
v 4 9 -0
v -4 0 -1
v -4 1 -1
v -4 2 -1
v -4 4 -1
v -4 5 -1
v -4 6 -1
v -3 0 -1
v -3 1 -1
v -3 2 -1
v -3 3 -1
v -3 4 -1
v -3 5 -1
v -3 6 -1
v -2 6 -1
v -2 9 -1
v -1 6 -1
v -1 9 -1
v -1 12 -1
v 0 9 -1
v 0 10 -1
v 1 10 -1
v 1 12 -1
v 2 6 -1
v 2 8 -1
v 2 9 -1
v 2 12 -1
v 3 6 -1
v 3 8 -1
v 3 9 -1
v 4 3 -1
v 4 6 -1
v 5 3 -1
v 5 6 -1
v -3 3 -2
v -3 6 -2
v -2 3 -2
v -2 6 -2
v -1 6 -2
v -1 9 -2
v 0 8 -2
v 0 9 -2
v 1 6 -2
v 1 8 -2
v 2 6 -2
v 2 9 -2
v 3 0 -2
v 3 3 -2
v 3 5 -2
v 3 6 -2
v 4 3 -2
v 4 6 -2
v 5 0 -2
v 5 3 -2
v -3 0 -3
v -3 2 -3
v -3 3 -3
v -2 1 -3
v -2 2 -3
v -2 3 -3
v -2 6 -3
v -1 0 -3
v -1 1 -3
v 0 1 -3
v 0 2 -3
v 1 5 -3
v 1 6 -3
v 2 0 -3
v 2 1 -3
v 2 3 -3
v 2 5 -3
v 3 0 -3
v 3 3 -3
v 3 5 -3
v 3 6 -3
v -3 0 6
v 1 0 6
v 3 0 6
v 4 0 6
v 1 0 5
v 3 0 5
v -4 0 4
v -3 0 4
v 4 0 4
v 5 0 4
v -4 0 1
v -3 0 1
v -4 0 -1
v -3 0 -1
v -3 0 -2
v -1 0 -2
v 2 0 -2
v 3 0 -2
v 5 0 -2
v -3 0 -3
v -1 0 -3
v 2 0 -3
v 3 0 -3
v 0 8 2
v 1 8 2
v 0 8 1
v 1 8 1
v 0 11 2
v 1 11 2
v 0 11 1
v 1 11 1
v 0 14 2
v 1 14 2
v 0 14 1
v 1 14 1
v -3 3 6
v -2 3 6
v 3 3 6
v 4 3 6
v -3 3 5
v -2 3 5
v 3 3 5
v 4 3 5
v 4 3 -1
v 5 3 -1
v -3 3 -2
v -2 3 -2
v 4 3 -2
v 5 3 -2
v -3 3 -3
v -2 3 -3
v -2 6 6
v 0 6 6
v 3 6 6
v -3 6 5
v -2 6 5
v -1 6 5
v 0 6 5
v 1 6 5
v 2 6 5
v 3 6 5
v 4 6 5
v -4 6 4
v -3 6 4
v -2 6 4
v -1 6 4
v 2 6 4
v 3 6 4
v 4 6 4
v 5 6 4
v -3 6 3
v -2 6 3
v 3 6 3
v 4 6 3
v -4 6 2
v -3 6 2
v 0 6 2
v 1 6 2
v -3 6 1
v 0 6 1
v 1 6 1
v -4 6 -0
v -3 6 -0
v -2 6 -0
v 3 6 -0
v 4 6 -0
v -4 6 -1
v -3 6 -1
v -2 6 -1
v -1 6 -1
v 2 6 -1
v 3 6 -1
v 4 6 -1
v 5 6 -1
v -3 6 -2
v -2 6 -2
v -1 6 -2
v 1 6 -2
v 2 6 -2
v 3 6 -2
v 4 6 -2
v -2 6 -3
v 1 6 -3
v 3 6 -3
v -1 9 5
v 0 9 5
v 1 9 5
v 2 9 5
v -2 9 4
v -1 9 4
v 0 9 4
v 1 9 4
v 2 9 4
v 3 9 4
v -3 9 3
v -2 9 3
v -1 9 3
v 2 9 3
v 3 9 3
v 4 9 3
v -3 9 2
v -2 9 2
v 0 9 2
v 1 9 2
v -3 9 1
v -2 9 1
v 0 9 1
v 1 9 1
v 3 9 1
v -3 9 -0
v -2 9 -0
v -1 9 -0
v 2 9 -0
v 3 9 -0
v 4 9 -0
v -2 9 -1
v -1 9 -1
v 0 9 -1
v 2 9 -1
v 3 9 -1
v -1 9 -2
v 0 9 -2
v 2 9 -2
v -1 12 4
v 2 12 4
v -2 12 3
v -1 12 3
v 1 12 3
v 2 12 3
v 3 12 3
v 0 12 2
v 1 12 2
v 2 12 2
v 3 12 2
v 0 12 1
v 1 12 1
v 2 12 1
v 3 12 1
v -2 12 -0
v -1 12 -0
v 1 12 -0
v 2 12 -0
v 3 12 -0
v -1 12 -1
v 1 12 -1
v 2 12 -1
v -1 15 3
v 2 15 3
v 0 15 2
v 1 15 2
v 0 15 1
v 1 15 1
v 2 15 1
v -1 15 -0
v 0 15 -0
v 2 15 -0
v 0 18 2
v 1 18 2
v 0 18 1
v 1 18 1

# faces
f 4/1/1 2/1/1 1/1/1
f 5/3/1 3/3/1 2/3/1
f 5/1/1 2/1/1 4/1/1
f 6/3/1 3/3/1 5/3/1
f 7/5/1 5/5/1 4/5/1
f 7/1/1 6/1/1 5/1/1
f 8/1/1 6/1/1 7/1/1
f 9/1/1 6/1/1 8/1/1
f 10/5/1 7/5/1 4/5/1
f 10/5/1 8/5/1 7/5/1
f 11/2/1 9/2/1 8/2/1
f 11/5/1 8/5/1 10/5/1
f 12/2/1 9/2/1 11/2/1
f 13/5/1 10/5/1 4/5/1
f 14/3/1 11/3/1 10/3/1
f 14/5/1 10/5/1 13/5/1
f 15/5/1 12/5/1 11/5/1
f 15/3/1 11/3/1 14/3/1
f 16/5/1 12/5/1 15/5/1
f 17/5/1 13/5/1 4/5/1
f 18/3/1 14/3/1 13/3/1
f 18/5/1 13/5/1 17/5/1
f 18/3/1 15/3/1 14/3/1
f 19/4/1 16/4/1 15/4/1
f 19/3/1 15/3/1 18/3/1
f 20/4/1 16/4/1 19/4/1
f 26/5/1 22/5/1 21/5/1
f 27/5/1 24/5/1 23/5/1
f 28/3/1 25/3/1 24/3/1
f 28/5/1 24/5/1 27/5/1
f 29/3/1 28/3/1 27/3/1
f 30/3/1 25/3/1 28/3/1
f 30/3/1 28/3/1 29/3/1
f 31/5/1 26/5/1 21/5/1
f 32/5/1 26/5/1 31/5/1
f 33/1/1 30/1/1 29/1/1
f 34/1/1 30/1/1 33/1/1
f 35/1/1 30/1/1 34/1/1
f 36/5/1 34/5/1 33/5/1
f 37/5/1 34/5/1 36/5/1
f 38/5/1 26/5/1 32/5/1
f 39/5/1 26/5/1 38/5/1
f 44/5/1 34/5/1 37/5/1
f 45/5/1 34/5/1 44/5/1
f 46/5/1 41/5/1 40/5/1
f 47/3/1 42/3/1 41/3/1
f 47/5/1 41/5/1 46/5/1
f 48/5/1 43/5/1 42/5/1
f 48/3/1 42/3/1 47/3/1
f 49/5/1 43/5/1 48/5/1
f 54/5/1 51/5/1 50/5/1
f 55/5/1 51/5/1 54/5/1
f 56/3/1 55/3/1 54/3/1
f 57/3/1 55/3/1 56/3/1
f 62/5/1 53/5/1 52/5/1
f 63/5/1 53/5/1 62/5/1
f 64/5/1 59/5/1 58/5/1
f 65/5/1 59/5/1 64/5/1
f 68/5/1 61/5/1 60/5/1
f 69/5/1 61/5/1 68/5/1
f 70/3/1 67/3/1 66/3/1
f 70/5/1 66/5/1 65/5/1
f 71/5/1 68/5/1 67/5/1
f 71/3/1 67/3/1 70/3/1
f 72/5/1 70/5/1 65/5/1
f 72/5/1 71/5/1 70/5/1
f 73/5/1 68/5/1 71/5/1
f 73/5/1 71/5/1 72/5/1
f 78/3/1 75/3/1 74/3/1
f 79/3/1 75/3/1 78/3/1
f 80/5/1 79/5/1 78/5/1
f 81/5/1 79/5/1 80/5/1
f 84/5/1 77/5/1 76/5/1
f 85/5/1 77/5/1 84/5/1
f 86/2/1 82/2/1 81/2/1
f 87/2/1 82/2/1 86/2/1
f 88/5/1 87/5/1 86/5/1
f 89/5/1 87/5/1 88/5/1
f 90/5/1 84/5/1 83/5/1
f 91/5/1 84/5/1 90/5/1
f 92/5/1 90/5/1 89/5/1
f 93/5/1 90/5/1 92/5/1
f 96/5/1 95/5/1 94/5/1
f 97/5/1 95/5/1 96/5/1
f 100/5/1 99/5/1 98/5/1
f 101/5/1 99/5/1 100/5/1
f 104/5/1 103/5/1 102/5/1
f 105/5/1 103/5/1 104/5/1
f 108/1/1 107/1/1 106/1/1
f 109/1/1 107/1/1 108/1/1
f 110/5/1 109/5/1 108/5/1
f 111/5/1 109/5/1 110/5/1
f 112/5/2 113/5/2 114/5/2
f 114/5/2 113/5/2 115/5/2
f 116/5/2 117/5/2 118/5/2
f 118/5/2 117/5/2 119/5/2
f 120/5/2 121/5/2 122/5/2
f 122/5/2 121/5/2 123/5/2
f 124/5/2 125/5/2 126/5/2
f 126/5/2 125/5/2 127/5/2
f 130/3/2 131/3/2 132/3/2
f 128/5/2 129/5/2 133/5/2
f 133/5/2 129/5/2 134/5/2
f 132/3/2 131/3/2 137/3/2
f 137/3/2 131/3/2 138/3/2
f 134/5/2 135/5/2 139/5/2
f 136/3/2 137/3/2 140/3/2
f 134/5/2 139/5/2 141/5/2
f 141/5/2 139/5/2 142/5/2
f 140/3/2 137/3/2 145/3/2
f 145/3/2 137/3/2 146/3/2
f 143/1/2 144/1/2 147/1/2
f 142/1/2 143/1/2 147/1/2
f 144/3/2 145/3/2 148/3/2
f 147/1/2 144/1/2 148/1/2
f 147/5/2 148/5/2 149/5/2
f 148/3/2 145/3/2 150/3/2
f 149/5/2 148/5/2 150/5/2
f 150/3/2 145/3/2 151/3/2
f 152/5/2 153/5/2 156/5/2
f 156/5/2 153/5/2 157/5/2
f 156/2/2 157/2/2 158/2/2
f 158/2/2 157/2/2 159/2/2
f 154/5/2 155/5/2 160/5/2
f 160/5/2 155/5/2 161/5/2
f 158/1/2 159/1/2 166/1/2
f 166/1/2 159/1/2 167/1/2
f 162/5/2 163/5/2 168/5/2
f 164/2/2 165/2/2 169/2/2
f 169/2/2 165/2/2 170/2/2
f 162/5/2 168/5/2 171/5/2
f 171/5/2 168/5/2 172/5/2
f 169/4/2 170/4/2 174/4/2
f 174/4/2 170/4/2 175/4/2
f 172/3/2 173/3/2 176/3/2
f 176/3/2 173/3/2 177/3/2
f 176/5/2 177/5/2 178/5/2
f 177/3/2 173/3/2 178/3/2
f 173/5/2 174/5/2 179/5/2
f 178/3/2 173/3/2 179/3/2
f 179/5/2 174/5/2 180/5/2
f 176/5/2 178/5/2 181/5/2
f 178/2/2 179/2/2 182/2/2
f 181/5/2 178/5/2 182/5/2
f 179/3/2 180/3/2 183/3/2
f 182/2/2 179/2/2 183/2/2
f 183/3/2 180/3/2 184/3/2
f 185/5/2 186/5/2 187/5/2
f 187/5/2 186/5/2 188/5/2
f 188/5/2 186/5/2 191/5/2
f 191/5/2 186/5/2 192/5/2
f 189/5/2 190/5/2 195/5/2
f 195/5/2 190/5/2 196/5/2
f 193/5/2 194/5/2 197/5/2
f 197/5/2 194/5/2 198/5/2
f 197/3/2 198/3/2 199/3/2
f 199/3/2 198/3/2 200/3/2
f 201/5/2 202/5/2 203/5/2
f 203/5/2 202/5/2 204/5/2
f 201/5/2 203/5/2 205/5/2
f 205/5/2 203/5/2 206/5/2
f 209/5/3 208/5/3 207/5/3
f 212/5/3 210/5/3 209/5/3
f 212/3/3 211/3/3 210/3/3
f 213/3/3 211/3/3 212/3/3
f 214/5/3 209/5/3 207/5/3
f 214/5/3 212/5/3 209/5/3
f 214/5/3 213/5/3 212/5/3
f 215/5/3 213/5/3 214/5/3
f 216/3/3 215/3/3 214/3/3
f 217/5/3 213/5/3 215/5/3
f 217/3/3 215/3/3 216/3/3
f 218/3/3 216/3/3 214/3/3
f 219/5/3 217/5/3 216/5/3
f 219/3/3 216/3/3 218/3/3
f 220/5/3 213/5/3 217/5/3
f 220/5/3 217/5/3 219/5/3
f 221/5/3 213/5/3 220/5/3
f 222/5/3 219/5/3 218/5/3
f 222/5/3 220/5/3 219/5/3
f 223/5/3 220/5/3 222/5/3
f 226/5/3 225/5/3 224/5/3
f 227/5/3 225/5/3 226/5/3
f 228/5/3 225/5/3 227/5/3
f 232/3/3 230/3/3 229/3/3
f 233/5/3 231/5/3 230/5/3
f 233/3/3 230/3/3 232/3/3
f 234/5/3 231/5/3 233/5/3
f 235/5/3 231/5/3 234/5/3
f 236/2/3 233/2/3 232/2/3
f 236/2/3 234/2/3 233/2/3
f 237/4/3 235/4/3 234/4/3
f 237/2/3 234/2/3 236/2/3
f 238/4/3 235/4/3 237/4/3
f 239/5/3 237/5/3 236/5/3
f 239/5/3 238/5/3 237/5/3
f 240/5/3 238/5/3 239/5/3
f 243/5/3 242/5/3 241/5/3
f 244/5/3 242/5/3 243/5/3
f 248/1/3 246/1/3 245/1/3
f 249/5/3 247/5/3 246/5/3
f 249/1/3 246/1/3 248/1/3
f 250/5/3 247/5/3 249/5/3
f 253/5/3 252/5/3 251/5/3
f 254/5/3 252/5/3 253/5/3
f 255/5/3 252/5/3 254/5/3
f 258/2/3 256/2/3 255/2/3
f 259/5/3 257/5/3 256/5/3
f 259/2/3 256/2/3 258/2/3
f 260/5/3 257/5/3 259/5/3
f 261/1/3 259/1/3 258/1/3
f 261/1/3 260/1/3 259/1/3
f 262/5/3 257/5/3 260/5/3
f 262/1/3 260/1/3 261/1/3
f 264/5/3 262/5/3 261/5/3
f 265/5/3 257/5/3 262/5/3
f 265/5/3 262/5/3 264/5/3
f 266/5/3 264/5/3 263/5/3
f 267/5/3 264/5/3 266/5/3
f 270/5/3 269/5/3 268/5/3
f 271/5/3 269/5/3 270/5/3
f 274/5/3 273/5/3 272/5/3
f 275/5/3 273/5/3 274/5/3
f 277/5/3 276/5/3 275/5/3
f 278/5/3 276/5/3 277/5/3
f 279/5/3 276/5/3 278/5/3
f 281/5/3 280/5/3 279/5/3
f 282/5/3 280/5/3 281/5/3
f 285/1/3 282/1/3 281/1/3
f 286/5/3 280/5/3 282/5/3
f 286/1/3 282/1/3 285/1/3
f 287/5/3 280/5/3 286/5/3
f 290/3/3 284/3/3 283/3/3
f 291/5/3 285/5/3 284/5/3
f 291/3/3 284/3/3 290/3/3
f 292/5/3 285/5/3 291/5/3
f 293/5/3 289/5/3 288/5/3
f 294/3/3 290/3/3 289/3/3
f 294/5/3 289/5/3 293/5/3
f 295/3/3 290/3/3 294/3/3
f 298/5/3 297/5/3 296/5/3
f 299/5/3 297/5/3 298/5/3
f 306/5/3 301/5/3 300/5/3
f 307/5/3 301/5/3 306/5/3
f 308/5/3 303/5/3 302/5/3
f 309/5/3 303/5/3 308/5/3
f 310/5/3 305/5/3 304/5/3
f 311/5/3 305/5/3 310/5/3
f 312/5/3 305/5/3 311/5/3
f 313/5/4 314/5/4 319/5/4
f 319/5/4 314/5/4 320/5/4
f 315/5/4 316/5/4 321/5/4
f 321/5/4 316/5/4 322/5/4
f 317/5/4 318/5/4 323/5/4
f 323/5/4 318/5/4 324/5/4
f 324/5/4 318/5/4 325/5/4
f 326/5/4 327/5/4 328/5/4
f 328/5/4 327/5/4 329/5/4
f 330/5/4 331/5/4 332/5/4
f 332/5/4 331/5/4 333/5/4
f 333/5/4 334/5/4 335/5/4
f 335/5/4 334/5/4 336/5/4
f 336/5/4 337/5/4 338/5/4
f 338/5/4 337/5/4 339/5/4
f 336/5/4 338/5/4 340/5/4
f 338/3/4 339/3/4 341/3/4
f 340/5/4 338/5/4 341/5/4
f 340/3/4 341/3/4 344/3/4
f 341/3/4 339/3/4 345/3/4
f 344/3/4 341/3/4 345/3/4
f 342/5/4 343/5/4 348/5/4
f 343/3/4 344/3/4 349/3/4
f 348/5/4 343/5/4 349/5/4
f 349/3/4 344/3/4 350/3/4
f 346/5/4 347/5/4 351/5/4
f 347/3/4 348/3/4 352/3/4
f 351/5/4 347/5/4 352/5/4
f 352/3/4 348/3/4 353/3/4
f 354/3/4 355/3/4 360/3/4
f 355/1/4 356/1/4 361/1/4
f 360/3/4 355/3/4 361/3/4
f 356/2/4 357/2/4 362/2/4
f 361/1/4 356/1/4 362/1/4
f 362/2/4 357/2/4 363/2/4
f 357/5/4 358/5/4 364/5/4
f 363/2/4 357/2/4 364/2/4
f 358/4/4 359/4/4 365/4/4
f 364/5/4 358/5/4 365/5/4
f 365/4/4 359/4/4 366/4/4
f 367/5/4 368/5/4 369/5/4
f 369/5/4 368/5/4 370/5/4
f 370/5/4 371/5/4 372/5/4
f 372/5/4 371/5/4 373/5/4
f 372/3/4 373/3/4 374/3/4
f 373/5/4 371/5/4 374/5/4
f 374/5/4 371/5/4 375/5/4
f 372/3/4 374/3/4 378/3/4
f 374/3/4 375/3/4 378/3/4
f 378/3/4 375/3/4 379/3/4
f 376/2/4 377/2/4 380/2/4
f 377/4/4 378/4/4 381/4/4
f 380/2/4 377/2/4 381/2/4
f 381/4/4 378/4/4 382/4/4
f 383/5/4 384/5/4 385/5/4
f 385/5/4 384/5/4 386/5/4
f 387/5/4 388/5/4 389/5/4
f 389/5/4 388/5/4 390/5/4
f 391/5/4 392/5/4 393/5/4
f 393/5/4 392/5/4 394/5/4
f 391/5/4 393/5/4 395/5/4
f 393/3/4 394/3/4 396/3/4
f 395/5/4 393/5/4 396/5/4
f 395/3/4 396/3/4 397/3/4
f 396/3/4 394/3/4 398/3/4
f 397/3/4 396/3/4 398/3/4
f 399/5/4 400/5/4 403/5/4
f 401/5/4 402/5/4 403/5/4
f 400/5/4 401/5/4 403/5/4
f 403/5/4 402/5/4 404/5/4
f 399/5/4 403/5/4 405/5/4
f 405/5/4 403/5/4 406/5/4
f 407/3/4 408/3/4 410/3/4
f 408/1/4 409/1/4 411/1/4
f 410/3/4 408/3/4 411/3/4
f 411/1/4 409/1/4 412/1/4
f 407/3/4 410/3/4 414/3/4
f 410/1/4 411/1/4 415/1/4
f 414/3/4 410/3/4 415/3/4
f 414/1/4 415/1/4 416/1/4
f 415/1/4 411/1/4 416/1/4
f 412/5/4 413/5/4 417/5/4
f 416/1/4 411/1/4 417/1/4
f 411/5/4 412/5/4 417/5/4
f 416/5/4 417/5/4 418/5/4
f 417/5/4 413/5/4 418/5/4
f 418/5/4 413/5/4 419/5/4
f 414/1/4 416/1/4 420/1/4
f 416/5/4 418/5/4 421/5/4
f 420/1/4 416/1/4 421/1/4
f 421/5/4 418/5/4 422/5/4
f 418/1/4 419/1/4 423/1/4
f 422/5/4 418/5/4 423/5/4
f 421/5/4 422/5/4 424/5/4
f 420/5/4 421/5/4 424/5/4
f 422/2/4 423/2/4 425/2/4
f 424/5/4 422/5/4 425/5/4
f 423/1/4 419/1/4 426/1/4
f 425/2/4 423/2/4 426/2/4
f 426/1/4 419/1/4 427/1/4
f 432/5/5 429/5/5 428/5/5
f 432/3/5 430/3/5 429/3/5
f 433/5/5 431/5/5 430/5/5
f 433/3/5 430/3/5 432/3/5
f 435/5/5 432/5/5 428/5/5
f 435/5/5 433/5/5 432/5/5
f 436/5/5 431/5/5 433/5/5
f 436/5/5 433/5/5 435/5/5
f 438/1/5 435/1/5 434/1/5
f 439/5/5 437/5/5 436/5/5
f 439/1/5 435/1/5 438/1/5
f 439/5/5 436/5/5 435/5/5
f 440/3/5 439/3/5 438/3/5
f 441/5/5 437/5/5 439/5/5
f 441/3/5 439/3/5 440/3/5
f 442/5/5 437/5/5 441/5/5
f 443/5/5 437/5/5 442/5/5
f 444/5/5 437/5/5 443/5/5
f 445/5/5 437/5/5 444/5/5
f 446/5/5 437/5/5 445/5/5
f 447/3/5 443/3/5 442/3/5
f 448/1/5 444/1/5 443/1/5
f 448/3/5 443/3/5 447/3/5
f 449/5/5 445/5/5 444/5/5
f 449/1/5 444/1/5 448/1/5
f 450/5/5 445/5/5 449/5/5
f 453/5/5 452/5/5 451/5/5
f 454/5/5 452/5/5 453/5/5
f 457/5/5 456/5/5 455/5/5
f 458/5/5 456/5/5 457/5/5
f 461/5/5 460/5/5 459/5/5
f 462/5/5 460/5/5 461/5/5
f 463/5/6 464/5/6 467/5/6
f 467/5/6 464/5/6 468/5/6
f 465/5/6 466/5/6 469/5/6
f 469/5/6 466/5/6 470/5/6
f 471/5/6 472/5/6 475/5/6
f 475/5/6 472/5/6 476/5/6
f 473/1/6 474/1/6 477/1/6
f 477/1/6 474/1/6 478/1/6
f 479/3/6 480/3/6 483/3/6
f 483/3/6 480/3/6 484/3/6
f 480/5/6 481/5/6 485/5/6
f 484/3/6 480/3/6 485/3/6
f 485/5/6 481/5/6 486/5/6
f 486/5/6 481/5/6 487/5/6
f 487/5/6 481/5/6 488/5/6
f 483/5/6 484/5/6 491/5/6
f 482/5/6 483/5/6 491/5/6
f 491/5/6 484/5/6 492/5/6
f 492/5/6 484/5/6 493/5/6
f 487/5/6 488/5/6 494/5/6
f 488/5/6 489/5/6 494/5/6
f 494/5/6 489/5/6 495/5/6
f 495/5/6 489/5/6 496/5/6
f 491/5/6 492/5/6 498/5/6
f 490/5/6 491/5/6 498/5/6
f 498/5/6 492/5/6 499/5/6
f 496/5/6 497/5/6 500/5/6
f 495/5/6 496/5/6 500/5/6
f 500/5/6 497/5/6 501/5/6
f 490/5/6 498/5/6 502/5/6
f 502/5/6 498/5/6 503/5/6
f 502/3/6 503/3/6 506/3/6
f 504/5/6 505/5/6 507/5/6
f 507/5/6 505/5/6 508/5/6
f 502/3/6 506/3/6 509/3/6
f 509/3/6 506/3/6 510/3/6
f 501/5/6 497/5/6 513/5/6
f 509/4/6 510/4/6 514/4/6
f 510/5/6 511/5/6 515/5/6
f 514/4/6 510/4/6 515/4/6
f 515/5/6 511/5/6 516/5/6
f 512/5/6 513/5/6 519/5/6
f 513/5/6 497/5/6 520/5/6
f 519/5/6 513/5/6 520/5/6
f 520/5/6 497/5/6 521/5/6
f 516/5/6 517/5/6 522/5/6
f 515/5/6 516/5/6 522/5/6
f 522/5/6 517/5/6 523/5/6
f 523/5/6 517/5/6 524/5/6
f 518/5/6 519/5/6 526/5/6
f 519/5/6 520/5/6 526/5/6
f 526/5/6 520/5/6 527/5/6
f 527/5/6 520/5/6 528/5/6
f 524/5/6 525/5/6 529/5/6
f 523/5/6 524/5/6 529/5/6
f 526/1/6 527/1/6 530/1/6
f 529/5/6 525/5/6 530/5/6
f 525/1/6 526/1/6 530/1/6
f 530/1/6 527/1/6 531/1/6
f 532/5/6 533/5/6 537/5/6
f 533/4/6 534/4/6 538/4/6
f 537/5/6 533/5/6 538/5/6
f 534/5/6 535/5/6 539/5/6
f 538/4/6 534/4/6 539/4/6
f 539/5/6 535/5/6 540/5/6
f 536/5/6 537/5/6 543/5/6
f 543/5/6 537/5/6 544/5/6
f 540/5/6 541/5/6 545/5/6
f 545/5/6 541/5/6 546/5/6
f 542/5/6 543/5/6 548/5/6
f 548/5/6 543/5/6 549/5/6
f 548/3/6 549/3/6 552/3/6
f 552/3/6 549/3/6 553/3/6
f 550/5/6 551/5/6 554/5/6
f 554/5/6 551/5/6 555/5/6
f 546/3/6 547/3/6 556/3/6
f 552/5/6 553/5/6 557/5/6
f 557/5/6 553/5/6 558/5/6
f 556/3/6 547/3/6 561/3/6
f 561/3/6 547/3/6 562/3/6
f 558/5/6 559/5/6 563/5/6
f 563/5/6 559/5/6 564/5/6
f 560/4/6 561/4/6 566/4/6
f 566/4/6 561/4/6 567/4/6
f 564/5/6 565/5/6 568/5/6
f 565/3/6 566/3/6 569/3/6
f 568/5/6 565/5/6 569/5/6
f 569/3/6 566/3/6 570/3/6
f 571/5/6 572/5/6 574/5/6
f 574/5/6 572/5/6 575/5/6
f 575/5/6 572/5/6 576/5/6
f 576/5/6 577/5/6 580/5/6
f 580/5/6 577/5/6 581/5/6
f 578/5/6 579/5/6 582/5/6
f 582/5/6 579/5/6 583/5/6
f 580/2/6 581/2/6 584/2/6
f 584/2/6 581/2/6 585/2/6
f 573/5/6 574/5/6 586/5/6
f 586/5/6 574/5/6 587/5/6
f 584/3/6 585/3/6 589/3/6
f 589/3/6 585/3/6 590/3/6
f 587/5/6 588/5/6 591/5/6
f 588/3/6 589/3/6 592/3/6
f 591/5/6 588/5/6 592/5/6
f 592/3/6 589/3/6 593/3/6
f 594/5/6 595/5/6 596/5/6
f 596/5/6 595/5/6 597/5/6
f 594/5/6 596/5/6 598/5/6
f 597/5/6 595/5/6 599/5/6
f 599/5/6 595/5/6 600/5/6
f 594/5/6 598/5/6 601/5/6
f 598/3/6 599/3/6 602/3/6
f 601/5/6 598/5/6 602/5/6
f 599/3/6 600/3/6 602/3/6
f 602/3/6 600/3/6 603/3/6
f 604/5/6 605/5/6 606/5/6
f 606/5/6 605/5/6 607/5/6
