# MagicaVoxel @ Ephtracy

# group
g balpan_10

# material
mtllib balpan_10.mtl
usemtl palette

# normals
vn -1 0 0
vn 1 0 0
vn 0 0 1
vn 0 0 -1
vn 0 -1 0
vn 0 1 0

# texcoords
vt 0.951172 0.5
vt 0.955078 0.5
vt 0.974609 0.5
vt 0.978516 0.5
vt 0.982422 0.5
vt 0.986328 0.5
vt 0.990234 0.5
vt 0.994141 0.5

# verts
v -30 0 1
v -30 0 -2
v -30 60 1
v -30 60 -2
v -24 6 1
v -24 6 -0
v -24 6 -1
v -24 53 1
v -24 53 -0
v -24 54 1
v -24 54 -0
v -24 54 -1
v -10 29 2
v -10 29 1
v -10 31 2
v -10 31 1
v -1 17 2
v -1 17 1
v -1 29 2
v -1 29 1
v -1 31 2
v -1 31 1
v -1 40 2
v -1 40 1
v 25 5 1
v 25 5 -1
v 25 12 1
v 25 12 -1
v 25 14 1
v 25 14 -1
v 25 55 1
v 25 55 -1
v -25 5 1
v -25 5 -1
v -25 55 1
v -25 55 -1
v 1 17 2
v 1 17 1
v 1 29 2
v 1 29 1
v 1 31 2
v 1 31 1
v 1 40 2
v 1 40 1
v 10 29 2
v 10 29 1
v 10 31 2
v 10 31 1
v 24 6 1
v 24 6 -0
v 24 6 -1
v 24 14 1
v 24 14 -0
v 24 15 1
v 24 15 -0
v 24 54 1
v 24 54 -0
v 24 54 -1
v 30 0 1
v 30 0 -2
v 30 10 1
v 30 10 -2
v 30 11 1
v 30 11 -2
v 30 60 1
v 30 60 -2
v -10 29 2
v -10 31 2
v -1 17 2
v -1 29 2
v -1 31 2
v -1 40 2
v 1 17 2
v 1 29 2
v 1 31 2
v 1 40 2
v 10 29 2
v 10 31 2
v -30 0 1
v -30 60 1
v -29 1 1
v -29 59 1
v -29 60 1
v -25 5 1
v -25 55 1
v -24 6 1
v -24 53 1
v -24 54 1
v -24 59 1
v -24 60 1
v -23 7 1
v -23 53 1
v -23 58 1
v -23 59 1
v -23 60 1
v -22 57 1
v -22 58 1
v -22 59 1
v -21 57 1
v -21 58 1
v -21 59 1
v -21 60 1
v -20 15 1
v -20 16 1
v -20 39 1
v -20 40 1
v -20 56 1
v -20 57 1
v -20 58 1
v -20 59 1
v -19 39 1
v -19 40 1
v -19 55 1
v -19 56 1
v -19 57 1
v -19 58 1
v -19 59 1
v -19 60 1
v -18 15 1
v -18 16 1
v -18 55 1
v -18 56 1
v -18 57 1
v -18 58 1
v -18 59 1
v -17 41 1
v -17 44 1
v -17 53 1
v -17 54 1
v -17 55 1
v -17 56 1
v -17 58 1
v -17 59 1
v -16 31 1
v -16 32 1
v -16 42 1
v -16 43 1
v -16 44 1
v -16 46 1
v -16 52 1
v -16 53 1
v -16 55 1
v -16 56 1
v -16 58 1
v -15 41 1
v -15 42 1
v -15 43 1
v -15 45 1
v -15 46 1
v -15 52 1
v -15 53 1
v -15 54 1
v -15 55 1
v -15 56 1
v -14 41 1
v -14 42 1
v -14 43 1
v -14 45 1
v -14 50 1
v -14 52 1
v -14 53 1
v -13 31 1
v -13 32 1
v -13 45 1
v -13 49 1
v -13 50 1
v -13 51 1
v -13 52 1
v -13 53 1
v -12 48 1
v -12 49 1
v -12 50 1
v -12 51 1
v -12 52 1
v -11 49 1
v -11 50 1
v -11 51 1
v -10 29 1
v -10 31 1
v -10 47 1
v -10 48 1
v -9 48 1
v -9 49 1
v -9 50 1
v -6 46 1
v -6 47 1
v -6 48 1
v -6 49 1
v -5 12 1
v -5 13 1
v -5 46 1
v -5 47 1
v -5 48 1
v -4 46 1
v -4 47 1
v -3 12 1
v -3 13 1
v -1 13 1
v -1 14 1
v -1 17 1
v -1 29 1
v -1 31 1
v -1 40 1
v 0 14 1
v 0 15 1
v 0 47 1
v 0 48 1
v 1 13 1
v 1 14 1
v 1 15 1
v 1 16 1
v 1 17 1
v 1 29 1
v 1 31 1
v 1 40 1
v 2 47 1
v 2 48 1
v 3 13 1
v 3 14 1
v 4 14 1
v 4 15 1
v 5 15 1
v 5 16 1
v 6 12 1
v 6 13 1
v 6 14 1
v 6 15 1
v 7 13 1
v 7 14 1
v 8 11 1
v 8 12 1
v 9 10 1
v 9 11 1
v 9 13 1
v 9 18 1
v 10 9 1
v 10 10 1
v 10 11 1
v 10 12 1
v 10 13 1
v 10 18 1
v 10 22 1
v 10 29 1
v 10 31 1
v 11 7 1
v 11 9 1
v 11 10 1
v 11 11 1
v 11 12 1
v 11 13 1
v 11 18 1
v 11 20 1
v 11 22 1
v 11 24 1
v 11 25 1
v 11 43 1
v 11 44 1
v 12 4 1
v 12 5 1
v 12 8 1
v 12 10 1
v 12 11 1
v 12 20 1
v 12 22 1
v 12 24 1
v 12 25 1
v 13 3 1
v 13 4 1
v 13 7 1
v 13 8 1
v 13 11 1
v 13 12 1
v 13 22 1
v 13 24 1
v 14 0 1
v 14 1 1
v 14 3 1
v 14 4 1
v 14 5 1
v 15 0 1
v 15 1 1
v 15 4 1
v 15 12 1
v 15 13 1
v 16 11 1
v 16 12 1
v 16 27 1
v 16 28 1
v 16 43 1
v 16 44 1
v 17 13 1
v 17 14 1
v 18 12 1
v 18 13 1
v 18 16 1
v 18 21 1
v 18 22 1
v 18 27 1
v 18 28 1
v 19 14 1
v 19 16 1
v 19 17 1
v 19 21 1
v 19 22 1
v 20 15 1
v 20 17 1
v 20 21 1
v 22 13 1
v 22 14 1
v 23 6 1
v 23 7 1
v 23 14 1
v 23 15 1
v 23 53 1
v 24 6 1
v 24 14 1
v 24 15 1
v 24 54 1
v 25 5 1
v 25 12 1
v 25 14 1
v 25 55 1
v 26 11 1
v 26 12 1
v 26 13 1
v 26 14 1
v 27 10 1
v 27 11 1
v 27 12 1
v 27 13 1
v 28 11 1
v 28 12 1
v 29 0 1
v 29 1 1
v 29 10 1
v 29 11 1
v 29 59 1
v 30 0 1
v 30 10 1
v 30 11 1
v 30 60 1
v -25 5 -1
v -25 55 -1
v -24 6 -1
v -24 54 -1
v 12 5 -1
v 14 5 -1
v 24 6 -1
v 24 54 -1
v 25 5 -1
v 25 12 -1
v 25 14 -1
v 25 55 -1
v -30 0 -2
v -30 60 -2
v -29 1 -2
v -29 59 -2
v -29 60 -2
v -25 5 -2
v -25 55 -2
v -24 6 -2
v -24 54 -2
v -24 59 -2
v -24 60 -2
v -23 59 -2
v -23 60 -2
v -22 58 -2
v -22 59 -2
v -21 57 -2
v -21 58 -2
v -21 59 -2
v -21 60 -2
v -20 58 -2
v -20 59 -2
v -19 57 -2
v -19 58 -2
v -19 59 -2
v -19 60 -2
v -18 56 -2
v -18 57 -2
v -18 58 -2
v -18 59 -2
v -17 56 -2
v -17 58 -2
v -17 59 -2
v 12 4 -2
v 12 5 -2
v 13 3 -2
v 13 4 -2
v 14 0 -2
v 14 1 -2
v 14 3 -2
v 14 4 -2
v 14 5 -2
v 15 0 -2
v 15 1 -2
v 15 4 -2
v 24 6 -2
v 24 54 -2
v 25 5 -2
v 25 12 -2
v 25 14 -2
v 25 55 -2
v 26 11 -2
v 26 12 -2
v 26 13 -2
v 26 14 -2
v 27 10 -2
v 27 11 -2
v 27 12 -2
v 27 13 -2
v 28 11 -2
v 28 12 -2
v 29 0 -2
v 29 1 -2
v 29 10 -2
v 29 11 -2
v 29 59 -2
v 30 0 -2
v 30 10 -2
v 30 11 -2
v 30 60 -2
v -30 0 1
v 14 0 1
v 15 0 1
v 29 0 1
v 30 0 1
v -30 0 -2
v 14 0 -2
v 15 0 -2
v 29 0 -2
v 30 0 -2
v -24 6 1
v 23 6 1
v 24 6 1
v -24 6 -0
v 23 6 -0
v 24 6 -0
v -24 6 -1
v 24 6 -1
v -1 17 2
v 1 17 2
v -1 17 1
v 1 17 1
v -10 29 2
v -1 29 2
v 1 29 2
v 10 29 2
v -10 29 1
v -1 29 1
v 1 29 1
v 10 29 1
v -25 55 1
v -19 55 1
v -18 55 1
v -17 55 1
v -16 55 1
v -15 55 1
v 25 55 1
v -19 55 -0
v -18 55 -0
v -17 55 -0
v -16 55 -0
v -15 55 -0
v -25 55 -1
v 25 55 -1
v -25 5 1
v 12 5 1
v 14 5 1
v 25 5 1
v -25 5 -1
v 12 5 -1
v 14 5 -1
v 25 5 -1
v -10 31 2
v -1 31 2
v 1 31 2
v 10 31 2
v -10 31 1
v -1 31 1
v 1 31 1
v 10 31 1
v -1 40 2
v 1 40 2
v -1 40 1
v 1 40 1
v -24 54 1
v -17 54 1
v -15 54 1
v 24 54 1
v -24 54 -0
v -17 54 -0
v -15 54 -0
v 24 54 -0
v -24 54 -1
v 24 54 -1
v -30 60 1
v -29 60 1
v -24 60 1
v -23 60 1
v -21 60 1
v -19 60 1
v 30 60 1
v -30 60 -2
v -29 60 -2
v -24 60 -2
v -23 60 -2
v -21 60 -2
v -19 60 -2
v 30 60 -2

# faces
f 3/7/1 2/7/1 1/7/1
f 4/7/1 2/7/1 3/7/1
f 8/5/1 6/5/1 5/5/1
f 9/4/1 7/4/1 6/4/1
f 9/5/1 6/5/1 8/5/1
f 10/3/1 9/3/1 8/3/1
f 11/4/1 7/4/1 9/4/1
f 11/3/1 9/3/1 10/3/1
f 12/4/1 7/4/1 11/4/1
f 15/8/1 14/8/1 13/8/1
f 16/8/1 14/8/1 15/8/1
f 19/8/1 18/8/1 17/8/1
f 20/8/1 18/8/1 19/8/1
f 23/8/1 22/8/1 21/8/1
f 24/8/1 22/8/1 23/8/1
f 27/6/1 26/6/1 25/6/1
f 28/6/1 26/6/1 27/6/1
f 29/2/1 28/2/1 27/2/1
f 30/2/1 28/2/1 29/2/1
f 31/6/1 30/6/1 29/6/1
f 32/6/1 30/6/1 31/6/1
f 33/6/2 34/6/2 35/6/2
f 35/6/2 34/6/2 36/6/2
f 37/8/2 38/8/2 39/8/2
f 39/8/2 38/8/2 40/8/2
f 41/8/2 42/8/2 43/8/2
f 43/8/2 42/8/2 44/8/2
f 45/8/2 46/8/2 47/8/2
f 47/8/2 46/8/2 48/8/2
f 49/3/2 50/3/2 52/3/2
f 50/4/2 51/4/2 53/4/2
f 52/3/2 50/3/2 53/3/2
f 52/5/2 53/5/2 54/5/2
f 53/4/2 51/4/2 55/4/2
f 54/5/2 53/5/2 55/5/2
f 54/3/2 55/3/2 56/3/2
f 55/4/2 51/4/2 57/4/2
f 56/3/2 55/3/2 57/3/2
f 57/4/2 51/4/2 58/4/2
f 59/5/2 60/5/2 61/5/2
f 61/5/2 60/5/2 62/5/2
f 61/2/2 62/2/2 63/2/2
f 63/2/2 62/2/2 64/2/2
f 63/5/2 64/5/2 65/5/2
f 65/5/2 64/5/2 66/5/2
f 70/8/3 68/8/3 67/8/3
f 71/8/3 68/8/3 70/8/3
f 73/8/3 70/8/3 69/8/3
f 73/8/3 72/8/3 71/8/3
f 73/8/3 71/8/3 70/8/3
f 74/8/3 72/8/3 73/8/3
f 75/8/3 72/8/3 74/8/3
f 76/8/3 72/8/3 75/8/3
f 77/8/3 75/8/3 74/8/3
f 78/8/3 75/8/3 77/8/3
f 81/7/3 80/7/3 79/7/3
f 82/7/3 80/7/3 81/7/3
f 83/7/3 80/7/3 82/7/3
f 84/6/3 82/6/3 81/6/3
f 85/6/3 82/6/3 84/6/3
f 89/5/3 83/5/3 82/5/3
f 89/6/3 82/6/3 85/6/3
f 90/5/3 83/5/3 89/5/3
f 91/5/3 87/5/3 86/5/3
f 92/3/3 88/3/3 87/3/3
f 92/5/3 87/5/3 91/5/3
f 93/6/3 89/6/3 85/6/3
f 94/1/3 90/1/3 89/1/3
f 94/6/3 89/6/3 93/6/3
f 95/1/3 90/1/3 94/1/3
f 96/6/3 93/6/3 85/6/3
f 97/1/3 94/1/3 93/1/3
f 97/6/3 93/6/3 96/6/3
f 98/2/3 95/2/3 94/2/3
f 98/1/3 94/1/3 97/1/3
f 99/6/3 96/6/3 85/6/3
f 99/1/3 97/1/3 96/1/3
f 100/2/3 98/2/3 97/2/3
f 100/1/3 97/1/3 99/1/3
f 101/2/3 95/2/3 98/2/3
f 101/2/3 98/2/3 100/2/3
f 102/2/3 95/2/3 101/2/3
f 103/4/3 92/4/3 91/4/3
f 104/4/3 92/4/3 103/4/3
f 105/4/3 92/4/3 104/4/3
f 106/4/3 92/4/3 105/4/3
f 107/6/3 99/6/3 85/6/3
f 108/2/3 100/2/3 99/2/3
f 108/6/3 99/6/3 107/6/3
f 108/2/3 101/2/3 100/2/3
f 109/2/3 101/2/3 108/2/3
f 110/7/3 102/7/3 101/7/3
f 110/2/3 101/2/3 109/2/3
f 111/5/3 106/5/3 105/5/3
f 111/4/3 105/4/3 104/4/3
f 112/4/3 92/4/3 106/4/3
f 112/5/3 106/5/3 111/5/3
f 113/6/3 107/6/3 85/6/3
f 114/1/3 108/1/3 107/1/3
f 114/6/3 107/6/3 113/6/3
f 115/2/3 109/2/3 108/2/3
f 115/1/3 108/1/3 114/1/3
f 116/7/3 110/7/3 109/7/3
f 116/2/3 109/2/3 115/2/3
f 117/7/3 102/7/3 110/7/3
f 117/7/3 110/7/3 116/7/3
f 118/7/3 102/7/3 117/7/3
f 119/4/3 103/4/3 91/4/3
f 119/3/3 104/3/3 103/3/3
f 120/4/3 111/4/3 104/4/3
f 120/3/3 104/3/3 119/3/3
f 120/4/3 112/4/3 111/4/3
f 121/1/3 114/1/3 113/1/3
f 122/2/3 115/2/3 114/2/3
f 122/1/3 114/1/3 121/1/3
f 123/7/3 116/7/3 115/7/3
f 123/2/3 115/2/3 122/2/3
f 123/7/3 117/7/3 116/7/3
f 124/7/3 117/7/3 123/7/3
f 125/5/3 118/5/3 117/5/3
f 125/7/3 117/7/3 124/7/3
f 126/4/3 92/4/3 112/4/3
f 126/4/3 112/4/3 120/4/3
f 126/4/3 120/4/3 119/4/3
f 127/4/3 92/4/3 126/4/3
f 128/3/3 88/3/3 92/3/3
f 128/4/3 92/4/3 127/4/3
f 129/3/3 88/3/3 128/3/3
f 130/2/3 122/2/3 121/2/3
f 131/7/3 124/7/3 123/7/3
f 131/2/3 122/2/3 130/2/3
f 131/7/3 123/7/3 122/7/3
f 132/5/3 125/5/3 124/5/3
f 132/7/3 124/7/3 131/7/3
f 133/5/3 118/5/3 125/5/3
f 133/5/3 125/5/3 132/5/3
f 134/4/3 126/4/3 119/4/3
f 135/4/3 126/4/3 134/4/3
f 136/5/3 127/5/3 126/5/3
f 137/5/3 127/5/3 136/5/3
f 138/4/3 128/4/3 127/4/3
f 138/5/3 127/5/3 137/5/3
f 139/4/3 128/4/3 138/4/3
f 140/4/3 128/4/3 139/4/3
f 141/5/3 129/5/3 128/5/3
f 141/4/3 128/4/3 140/4/3
f 142/7/3 131/7/3 130/7/3
f 143/5/3 132/5/3 131/5/3
f 143/7/3 131/7/3 142/7/3
f 144/6/3 133/6/3 132/6/3
f 144/5/3 132/5/3 143/5/3
f 145/4/3 126/4/3 135/4/3
f 145/5/3 136/5/3 126/5/3
f 146/3/3 137/3/3 136/3/3
f 146/5/3 136/5/3 145/5/3
f 147/5/3 138/5/3 137/5/3
f 147/3/3 137/3/3 146/3/3
f 147/5/3 139/5/3 138/5/3
f 148/5/3 139/5/3 147/5/3
f 149/4/3 140/4/3 139/4/3
f 149/5/3 139/5/3 148/5/3
f 150/5/3 141/5/3 140/5/3
f 150/4/3 140/4/3 149/4/3
f 151/5/3 129/5/3 141/5/3
f 151/5/3 141/5/3 150/5/3
f 152/5/3 129/5/3 151/5/3
f 153/5/3 143/5/3 142/5/3
f 154/6/3 144/6/3 143/6/3
f 154/5/3 143/5/3 153/5/3
f 155/4/3 145/4/3 135/4/3
f 155/3/3 146/3/3 145/3/3
f 156/4/3 147/4/3 146/4/3
f 156/3/3 146/3/3 155/3/3
f 157/3/3 148/3/3 147/3/3
f 157/4/3 147/4/3 156/4/3
f 158/5/3 150/5/3 149/5/3
f 158/3/3 148/3/3 157/3/3
f 158/5/3 149/5/3 148/5/3
f 158/5/3 151/5/3 150/5/3
f 159/5/3 151/5/3 158/5/3
f 160/5/3 151/5/3 159/5/3
f 161/3/3 152/3/3 151/3/3
f 161/5/3 151/5/3 160/5/3
f 162/4/3 134/4/3 119/4/3
f 162/5/3 135/5/3 134/5/3
f 163/4/3 156/4/3 155/4/3
f 163/5/3 135/5/3 162/5/3
f 163/4/3 157/4/3 156/4/3
f 163/4/3 155/4/3 135/4/3
f 163/4/3 158/4/3 157/4/3
f 164/3/3 159/3/3 158/3/3
f 164/4/3 158/4/3 163/4/3
f 165/3/3 159/3/3 164/3/3
f 166/5/3 160/5/3 159/5/3
f 166/3/3 159/3/3 165/3/3
f 167/5/3 160/5/3 166/5/3
f 168/3/3 161/3/3 160/3/3
f 168/5/3 160/5/3 167/5/3
f 169/3/3 152/3/3 161/3/3
f 169/3/3 161/3/3 168/3/3
f 170/4/3 163/4/3 162/4/3
f 170/4/3 165/4/3 164/4/3
f 170/4/3 164/4/3 163/4/3
f 171/5/3 167/5/3 166/5/3
f 171/4/3 165/4/3 170/4/3
f 171/5/3 166/5/3 165/5/3
f 172/5/3 167/5/3 171/5/3
f 173/3/3 168/3/3 167/3/3
f 173/5/3 167/5/3 172/5/3
f 174/4/3 169/4/3 168/4/3
f 174/3/3 168/3/3 173/3/3
f 175/5/3 172/5/3 171/5/3
f 175/5/3 171/5/3 170/5/3
f 176/3/3 173/3/3 172/3/3
f 176/5/3 172/5/3 175/5/3
f 177/4/3 174/4/3 173/4/3
f 177/3/3 173/3/3 176/3/3
f 178/4/3 162/4/3 119/4/3
f 178/4/3 170/4/3 162/4/3
f 179/4/3 170/4/3 178/4/3
f 180/4/3 170/4/3 179/4/3
f 181/5/3 175/5/3 170/5/3
f 181/4/3 170/4/3 180/4/3
f 182/5/3 175/5/3 181/5/3
f 182/5/3 181/5/3 180/5/3
f 183/3/3 176/3/3 175/3/3
f 183/5/3 175/5/3 182/5/3
f 184/4/3 177/4/3 176/4/3
f 184/3/3 176/3/3 183/3/3
f 185/4/3 180/4/3 179/4/3
f 186/5/3 182/5/3 180/5/3
f 186/4/3 180/4/3 185/4/3
f 187/3/3 183/3/3 182/3/3
f 187/5/3 182/5/3 186/5/3
f 188/4/3 184/4/3 183/4/3
f 188/3/3 183/3/3 187/3/3
f 189/4/3 119/4/3 91/4/3
f 189/4/3 178/4/3 119/4/3
f 190/4/3 178/4/3 189/4/3
f 191/5/3 186/5/3 185/5/3
f 191/4/3 185/4/3 179/4/3
f 192/3/3 187/3/3 186/3/3
f 192/5/3 186/5/3 191/5/3
f 193/4/3 188/4/3 187/4/3
f 193/3/3 187/3/3 192/3/3
f 194/3/3 192/3/3 191/3/3
f 194/4/3 191/4/3 179/4/3
f 195/4/3 193/4/3 192/4/3
f 195/3/3 192/3/3 194/3/3
f 196/5/3 190/5/3 189/5/3
f 196/4/3 189/4/3 91/4/3
f 197/4/3 178/4/3 190/4/3
f 197/5/3 190/5/3 196/5/3
f 198/4/3 197/4/3 196/4/3
f 198/4/3 178/4/3 197/4/3
f 199/4/3 178/4/3 198/4/3
f 200/4/3 178/4/3 199/4/3
f 201/4/3 178/4/3 200/4/3
f 202/4/3 194/4/3 179/4/3
f 202/4/3 195/4/3 194/4/3
f 203/4/3 195/4/3 202/4/3
f 204/4/3 200/4/3 199/4/3
f 204/5/3 199/5/3 198/5/3
f 205/4/3 200/4/3 204/4/3
f 206/4/3 193/4/3 195/4/3
f 206/4/3 195/4/3 203/4/3
f 207/4/3 188/4/3 193/4/3
f 207/4/3 193/4/3 206/4/3
f 208/5/3 205/5/3 204/5/3
f 208/4/3 198/4/3 196/4/3
f 208/5/3 204/5/3 198/5/3
f 209/5/3 205/5/3 208/5/3
f 210/4/3 200/4/3 205/4/3
f 210/5/3 205/5/3 209/5/3
f 211/4/3 200/4/3 210/4/3
f 212/4/3 200/4/3 211/4/3
f 215/4/3 206/4/3 203/4/3
f 216/3/3 207/3/3 206/3/3
f 216/4/3 215/4/3 214/4/3
f 216/4/3 206/4/3 215/4/3
f 217/4/3 188/4/3 207/4/3
f 217/3/3 207/3/3 216/3/3
f 218/4/3 209/4/3 208/4/3
f 218/4/3 208/4/3 196/4/3
f 219/5/3 210/5/3 209/5/3
f 219/4/3 209/4/3 218/4/3
f 220/5/3 219/5/3 218/5/3
f 220/5/3 210/5/3 219/5/3
f 221/3/3 211/3/3 210/3/3
f 221/5/3 210/5/3 220/5/3
f 222/3/3 221/3/3 220/3/3
f 222/3/3 211/3/3 221/3/3
f 223/4/3 213/4/3 212/4/3
f 223/3/3 211/3/3 222/3/3
f 223/4/3 212/4/3 211/4/3
f 224/4/3 196/4/3 91/4/3
f 224/4/3 218/4/3 196/4/3
f 225/5/3 220/5/3 218/5/3
f 225/4/3 218/4/3 224/4/3
f 226/3/3 222/3/3 220/3/3
f 226/5/3 220/5/3 225/5/3
f 227/4/3 223/4/3 222/4/3
f 227/3/3 222/3/3 226/3/3
f 228/5/3 225/5/3 224/5/3
f 228/5/3 226/5/3 225/5/3
f 229/4/3 227/4/3 226/4/3
f 229/5/3 226/5/3 228/5/3
f 230/4/3 224/4/3 91/4/3
f 231/5/3 228/5/3 224/5/3
f 231/4/3 224/4/3 230/4/3
f 232/4/3 230/4/3 91/4/3
f 233/5/3 231/5/3 230/5/3
f 233/4/3 230/4/3 232/4/3
f 234/5/3 228/5/3 231/5/3
f 234/5/3 231/5/3 233/5/3
f 234/4/3 229/4/3 228/4/3
f 235/4/3 213/4/3 223/4/3
f 235/4/3 229/4/3 234/4/3
f 235/4/3 223/4/3 227/4/3
f 235/4/3 227/4/3 229/4/3
f 236/4/3 232/4/3 91/4/3
f 237/5/3 234/5/3 233/5/3
f 237/4/3 232/4/3 236/4/3
f 237/5/3 233/5/3 232/5/3
f 237/5/3 235/5/3 234/5/3
f 238/5/3 235/5/3 237/5/3
f 239/5/3 235/5/3 238/5/3
f 240/5/3 235/5/3 239/5/3
f 241/4/3 213/4/3 235/4/3
f 241/5/3 235/5/3 240/5/3
f 242/4/3 213/4/3 241/4/3
f 243/4/3 213/4/3 242/4/3
f 244/4/3 216/4/3 214/4/3
f 244/4/3 217/4/3 216/4/3
f 245/5/3 91/5/3 86/5/3
f 245/4/3 236/4/3 91/4/3
f 246/5/3 237/5/3 236/5/3
f 246/4/3 236/4/3 245/4/3
f 246/5/3 238/5/3 237/5/3
f 247/5/3 238/5/3 246/5/3
f 248/3/3 239/3/3 238/3/3
f 248/5/3 238/5/3 247/5/3
f 249/4/3 240/4/3 239/4/3
f 249/3/3 239/3/3 248/3/3
f 250/3/3 241/3/3 240/3/3
f 250/4/3 240/4/3 249/4/3
f 251/5/3 242/5/3 241/5/3
f 251/3/3 241/3/3 250/3/3
f 252/5/3 242/5/3 251/5/3
f 253/4/3 244/4/3 243/4/3
f 253/5/3 242/5/3 252/5/3
f 253/4/3 243/4/3 242/4/3
f 254/4/3 244/4/3 253/4/3
f 255/4/3 244/4/3 254/4/3
f 256/4/3 217/4/3 244/4/3
f 256/4/3 244/4/3 255/4/3
f 257/4/3 217/4/3 256/4/3
f 258/6/3 84/6/3 81/6/3
f 259/6/3 84/6/3 258/6/3
f 260/5/3 247/5/3 246/5/3
f 260/5/3 246/5/3 245/5/3
f 261/3/3 248/3/3 247/3/3
f 261/5/3 247/5/3 260/5/3
f 262/4/3 252/4/3 251/4/3
f 262/3/3 248/3/3 261/3/3
f 262/4/3 251/4/3 250/4/3
f 262/4/3 250/4/3 249/4/3
f 262/4/3 249/4/3 248/4/3
f 263/5/3 254/5/3 253/5/3
f 263/4/3 252/4/3 262/4/3
f 263/5/3 253/5/3 252/5/3
f 264/5/3 254/5/3 263/5/3
f 265/3/3 255/3/3 254/3/3
f 265/5/3 254/5/3 264/5/3
f 266/4/3 256/4/3 255/4/3
f 266/3/3 255/3/3 265/3/3
f 267/6/3 258/6/3 81/6/3
f 268/2/3 259/2/3 258/2/3
f 268/6/3 258/6/3 267/6/3
f 269/5/3 260/5/3 245/5/3
f 269/5/3 245/5/3 86/5/3
f 270/4/3 261/4/3 260/4/3
f 270/5/3 260/5/3 269/5/3
f 270/4/3 264/4/3 263/4/3
f 270/4/3 262/4/3 261/4/3
f 270/4/3 263/4/3 262/4/3
f 271/4/3 264/4/3 270/4/3
f 272/4/3 264/4/3 271/4/3
f 273/3/3 265/3/3 264/3/3
f 273/4/3 264/4/3 272/4/3
f 274/4/3 266/4/3 265/4/3
f 274/3/3 265/3/3 273/3/3
f 275/7/3 81/7/3 79/7/3
f 276/6/3 267/6/3 81/6/3
f 276/7/3 81/7/3 275/7/3
f 277/2/3 268/2/3 267/2/3
f 277/6/3 267/6/3 276/6/3
f 278/2/3 259/2/3 268/2/3
f 278/2/3 268/2/3 277/2/3
f 279/2/3 259/2/3 278/2/3
f 280/2/3 277/2/3 276/2/3
f 280/2/3 276/2/3 275/2/3
f 280/2/3 278/2/3 277/2/3
f 281/2/3 278/2/3 280/2/3
f 282/6/3 279/6/3 278/6/3
f 282/2/3 278/2/3 281/2/3
f 283/4/3 273/4/3 272/4/3
f 283/5/3 272/5/3 271/5/3
f 283/4/3 274/4/3 273/4/3
f 284/4/3 274/4/3 283/4/3
f 285/4/3 270/4/3 269/4/3
f 285/4/3 271/4/3 270/4/3
f 285/5/3 284/5/3 283/5/3
f 285/5/3 283/5/3 271/5/3
f 286/5/3 284/5/3 285/5/3
f 287/4/3 266/4/3 274/4/3
f 287/4/3 256/4/3 266/4/3
f 287/4/3 274/4/3 284/4/3
f 288/4/3 256/4/3 287/4/3
f 289/5/3 257/5/3 256/5/3
f 289/4/3 256/4/3 288/4/3
f 290/4/3 217/4/3 257/4/3
f 290/5/3 257/5/3 289/5/3
f 291/5/3 284/5/3 286/5/3
f 291/4/3 287/4/3 284/4/3
f 292/4/3 287/4/3 291/4/3
f 293/4/3 286/4/3 285/4/3
f 293/5/3 291/5/3 286/5/3
f 293/5/3 292/5/3 291/5/3
f 294/5/3 292/5/3 293/5/3
f 295/4/3 287/4/3 292/4/3
f 296/4/3 287/4/3 295/4/3
f 297/4/3 287/4/3 296/4/3
f 298/3/3 288/3/3 287/3/3
f 298/4/3 287/4/3 297/4/3
f 299/4/3 289/4/3 288/4/3
f 299/3/3 288/3/3 298/3/3
f 299/4/3 290/4/3 289/4/3
f 300/5/3 292/5/3 294/5/3
f 300/4/3 295/4/3 292/4/3
f 301/5/3 296/5/3 295/5/3
f 301/4/3 295/4/3 300/4/3
f 302/5/3 296/5/3 301/5/3
f 303/3/3 297/3/3 296/3/3
f 303/5/3 296/5/3 302/5/3
f 304/4/3 298/4/3 297/4/3
f 304/3/3 297/3/3 303/3/3
f 304/4/3 299/4/3 298/4/3
f 305/5/3 302/5/3 301/5/3
f 305/5/3 301/5/3 300/5/3
f 306/3/3 303/3/3 302/3/3
f 306/5/3 302/5/3 305/5/3
f 307/4/3 304/4/3 303/4/3
f 307/3/3 303/3/3 306/3/3
f 308/5/3 305/5/3 300/5/3
f 308/5/3 300/5/3 294/5/3
f 308/4/3 294/4/3 293/4/3
f 309/5/3 305/5/3 308/5/3
f 310/5/3 269/5/3 86/5/3
f 311/4/3 285/4/3 269/4/3
f 311/5/3 269/5/3 310/5/3
f 311/4/3 293/4/3 285/4/3
f 311/4/3 309/4/3 308/4/3
f 311/4/3 308/4/3 293/4/3
f 312/5/3 305/5/3 309/5/3
f 312/4/3 309/4/3 311/4/3
f 313/4/3 307/4/3 306/4/3
f 313/5/3 305/5/3 312/5/3
f 313/4/3 306/4/3 305/4/3
f 314/4/3 217/4/3 290/4/3
f 314/4/3 307/4/3 313/4/3
f 314/4/3 304/4/3 307/4/3
f 314/4/3 184/4/3 188/4/3
f 314/4/3 174/4/3 177/4/3
f 314/4/3 290/4/3 299/4/3
f 314/3/3 152/3/3 169/3/3
f 314/4/3 177/4/3 184/4/3
f 314/4/3 169/4/3 174/4/3
f 314/4/3 188/4/3 217/4/3
f 314/4/3 299/4/3 304/4/3
f 315/3/3 311/3/3 310/3/3
f 315/3/3 312/3/3 311/3/3
f 316/5/3 313/5/3 312/5/3
f 316/3/3 312/3/3 315/3/3
f 317/3/3 314/3/3 313/3/3
f 317/5/3 313/5/3 316/5/3
f 318/3/3 152/3/3 314/3/3
f 318/3/3 314/3/3 317/3/3
f 319/6/3 279/6/3 282/6/3
f 319/6/3 282/6/3 281/6/3
f 322/6/3 154/6/3 153/6/3
f 323/6/3 320/6/3 319/6/3
f 324/2/3 321/2/3 320/2/3
f 324/6/3 320/6/3 323/6/3
f 325/2/3 321/2/3 324/2/3
f 326/6/3 322/6/3 321/6/3
f 326/2/3 321/2/3 325/2/3
f 327/6/3 323/6/3 319/6/3
f 328/2/3 325/2/3 324/2/3
f 328/6/3 323/6/3 327/6/3
f 328/2/3 324/2/3 323/2/3
f 329/2/3 325/2/3 328/2/3
f 330/6/3 326/6/3 325/6/3
f 330/2/3 325/2/3 329/2/3
f 331/2/3 329/2/3 328/2/3
f 331/2/3 328/2/3 327/2/3
f 332/6/3 330/6/3 329/6/3
f 332/2/3 329/2/3 331/2/3
f 333/7/3 281/7/3 280/7/3
f 334/6/3 327/6/3 319/6/3
f 334/7/3 281/7/3 333/7/3
f 334/6/3 319/6/3 281/6/3
f 335/2/3 331/2/3 327/2/3
f 335/6/3 327/6/3 334/6/3
f 336/6/3 332/6/3 331/6/3
f 336/2/3 331/2/3 335/2/3
f 337/6/3 322/6/3 326/6/3
f 337/6/3 332/6/3 336/6/3
f 337/6/3 133/6/3 144/6/3
f 337/6/3 144/6/3 154/6/3
f 337/6/3 326/6/3 330/6/3
f 337/6/3 154/6/3 322/6/3
f 337/5/3 118/5/3 133/5/3
f 337/6/3 330/6/3 332/6/3
f 338/5/3 334/5/3 333/5/3
f 338/5/3 335/5/3 334/5/3
f 339/2/3 336/2/3 335/2/3
f 339/5/3 335/5/3 338/5/3
f 340/5/3 337/5/3 336/5/3
f 340/2/3 336/2/3 339/2/3
f 341/5/3 118/5/3 337/5/3
f 341/5/3 337/5/3 340/5/3
f 344/8/3 343/8/3 342/8/3
f 345/8/3 343/8/3 344/8/3
f 346/8/3 344/8/3 342/8/3
f 347/8/3 344/8/3 346/8/3
f 348/8/3 344/8/3 347/8/3
f 349/8/3 343/8/3 345/8/3
f 350/8/3 348/8/3 347/8/3
f 350/8/3 349/8/3 348/8/3
f 351/8/3 349/8/3 350/8/3
f 352/8/3 349/8/3 351/8/3
f 353/8/3 343/8/3 349/8/3
f 353/8/3 349/8/3 352/8/3
f 354/7/4 355/7/4 356/7/4
f 356/7/4 355/7/4 357/7/4
f 357/7/4 355/7/4 358/7/4
f 356/6/4 357/6/4 359/6/4
f 359/6/4 357/6/4 360/6/4
f 359/8/4 360/8/4 361/8/4
f 361/8/4 360/8/4 362/8/4
f 357/5/4 358/5/4 363/5/4
f 360/6/4 357/6/4 363/6/4
f 363/5/4 358/5/4 364/5/4
f 360/6/4 363/6/4 365/6/4
f 363/1/4 364/1/4 365/1/4
f 365/1/4 364/1/4 366/1/4
f 360/6/4 365/6/4 367/6/4
f 365/2/4 366/2/4 368/2/4
f 367/6/4 365/6/4 368/6/4
f 360/6/4 367/6/4 369/6/4
f 367/2/4 368/2/4 370/2/4
f 369/6/4 367/6/4 370/6/4
f 368/2/4 366/2/4 371/2/4
f 370/2/4 368/2/4 371/2/4
f 371/2/4 366/2/4 372/2/4
f 369/2/4 370/2/4 373/2/4
f 370/2/4 371/2/4 373/2/4
f 371/7/4 372/7/4 374/7/4
f 373/2/4 371/2/4 374/2/4
f 360/6/4 369/6/4 375/6/4
f 369/2/4 373/2/4 375/2/4
f 373/7/4 374/7/4 376/7/4
f 375/2/4 373/2/4 376/2/4
f 374/7/4 372/7/4 377/7/4
f 376/7/4 374/7/4 377/7/4
f 377/7/4 372/7/4 378/7/4
f 360/6/4 375/6/4 379/6/4
f 375/7/4 376/7/4 380/7/4
f 379/6/4 375/6/4 380/6/4
f 376/7/4 377/7/4 380/7/4
f 380/7/4 377/7/4 381/7/4
f 377/5/4 378/5/4 382/5/4
f 381/7/4 377/7/4 382/7/4
f 360/6/4 379/6/4 383/6/4
f 380/7/4 381/7/4 383/7/4
f 379/7/4 380/7/4 383/7/4
f 381/5/4 382/5/4 384/5/4
f 383/7/4 381/7/4 384/7/4
f 382/5/4 378/5/4 385/5/4
f 384/5/4 382/5/4 385/5/4
f 356/6/4 359/6/4 386/6/4
f 359/8/4 361/8/4 387/8/4
f 386/6/4 359/6/4 387/6/4
f 356/6/4 386/6/4 388/6/4
f 386/2/4 387/2/4 389/2/4
f 388/6/4 386/6/4 389/6/4
f 354/7/4 356/7/4 390/7/4
f 356/6/4 388/6/4 391/6/4
f 390/7/4 356/7/4 391/7/4
f 388/2/4 389/2/4 392/2/4
f 391/6/4 388/6/4 392/6/4
f 389/2/4 387/2/4 393/2/4
f 392/2/4 389/2/4 393/2/4
f 387/8/4 361/8/4 394/8/4
f 393/2/4 387/2/4 394/2/4
f 391/2/4 392/2/4 395/2/4
f 392/2/4 393/2/4 395/2/4
f 390/2/4 391/2/4 395/2/4
f 395/2/4 393/2/4 396/2/4
f 393/6/4 394/6/4 397/6/4
f 396/2/4 393/2/4 397/2/4
f 394/8/4 361/8/4 398/8/4
f 361/4/4 362/4/4 398/4/4
f 362/8/4 360/8/4 399/8/4
f 398/4/4 362/4/4 399/4/4
f 397/6/4 394/6/4 400/6/4
f 394/8/4 398/8/4 400/8/4
f 398/8/4 399/8/4 400/8/4
f 396/6/4 397/6/4 400/6/4
f 400/8/4 399/8/4 401/8/4
f 401/8/4 399/8/4 402/8/4
f 399/8/4 360/8/4 403/8/4
f 402/8/4 399/8/4 403/8/4
f 383/6/4 384/6/4 403/6/4
f 360/6/4 383/6/4 403/6/4
f 384/6/4 385/6/4 403/6/4
f 400/6/4 401/6/4 404/6/4
f 401/2/4 402/2/4 405/2/4
f 404/6/4 401/6/4 405/6/4
f 405/2/4 402/2/4 406/2/4
f 402/6/4 403/6/4 407/6/4
f 406/2/4 402/2/4 407/2/4
f 400/6/4 404/6/4 408/6/4
f 405/2/4 406/2/4 409/2/4
f 408/6/4 404/6/4 409/6/4
f 404/2/4 405/2/4 409/2/4
f 409/2/4 406/2/4 410/2/4
f 406/6/4 407/6/4 411/6/4
f 410/2/4 406/2/4 411/2/4
f 409/2/4 410/2/4 412/2/4
f 408/2/4 409/2/4 412/2/4
f 410/6/4 411/6/4 413/6/4
f 412/2/4 410/2/4 413/2/4
f 395/7/4 396/7/4 414/7/4
f 396/6/4 400/6/4 415/6/4
f 414/7/4 396/7/4 415/7/4
f 400/6/4 408/6/4 415/6/4
f 408/2/4 412/2/4 416/2/4
f 415/6/4 408/6/4 416/6/4
f 412/6/4 413/6/4 417/6/4
f 416/2/4 412/2/4 417/2/4
f 407/6/4 403/6/4 418/6/4
f 417/6/4 413/6/4 418/6/4
f 385/5/4 378/5/4 418/5/4
f 413/6/4 411/6/4 418/6/4
f 411/6/4 407/6/4 418/6/4
f 403/6/4 385/6/4 418/6/4
f 414/5/4 415/5/4 419/5/4
f 415/5/4 416/5/4 419/5/4
f 416/2/4 417/2/4 420/2/4
f 419/5/4 416/5/4 420/5/4
f 417/5/4 418/5/4 421/5/4
f 420/2/4 417/2/4 421/2/4
f 418/5/4 378/5/4 422/5/4
f 421/5/4 418/5/4 422/5/4
f 428/7/5 424/7/5 423/7/5
f 429/2/5 425/2/5 424/2/5
f 429/7/5 424/7/5 428/7/5
f 430/7/5 426/7/5 425/7/5
f 430/2/5 425/2/5 429/2/5
f 431/5/5 427/5/5 426/5/5
f 431/7/5 426/7/5 430/7/5
f 432/5/5 427/5/5 431/5/5
f 436/5/5 434/5/5 433/5/5
f 437/3/5 435/3/5 434/3/5
f 437/5/5 434/5/5 436/5/5
f 438/3/5 435/3/5 437/3/5
f 439/4/5 437/4/5 436/4/5
f 439/4/5 438/4/5 437/4/5
f 440/4/5 438/4/5 439/4/5
f 443/8/5 442/8/5 441/8/5
f 444/8/5 442/8/5 443/8/5
f 449/8/5 446/8/5 445/8/5
f 450/8/5 446/8/5 449/8/5
f 451/8/5 448/8/5 447/8/5
f 452/8/5 448/8/5 451/8/5
f 460/6/5 454/6/5 453/6/5
f 460/1/5 455/1/5 454/1/5
f 461/2/5 456/2/5 455/2/5
f 461/1/5 455/1/5 460/1/5
f 462/7/5 457/7/5 456/7/5
f 462/2/5 456/2/5 461/2/5
f 463/5/5 458/5/5 457/5/5
f 463/7/5 457/7/5 462/7/5
f 464/6/5 459/6/5 458/6/5
f 464/5/5 458/5/5 463/5/5
f 465/6/5 463/6/5 462/6/5
f 465/6/5 462/6/5 461/6/5
f 465/6/5 464/6/5 463/6/5
f 465/6/5 461/6/5 460/6/5
f 465/6/5 460/6/5 453/6/5
f 466/6/5 459/6/5 464/6/5
f 466/6/5 464/6/5 465/6/5
f 467/6/6 468/6/6 471/6/6
f 468/2/6 469/2/6 472/2/6
f 471/6/6 468/6/6 472/6/6
f 469/6/6 470/6/6 473/6/6
f 472/2/6 469/2/6 473/2/6
f 473/6/6 470/6/6 474/6/6
f 475/8/6 476/8/6 479/8/6
f 479/8/6 476/8/6 480/8/6
f 477/8/6 478/8/6 481/8/6
f 481/8/6 478/8/6 482/8/6
f 483/8/6 484/8/6 485/8/6
f 485/8/6 484/8/6 486/8/6
f 487/3/6 488/3/6 491/3/6
f 488/5/6 489/5/6 492/5/6
f 491/3/6 488/3/6 492/3/6
f 489/3/6 490/3/6 493/3/6
f 492/5/6 489/5/6 493/5/6
f 493/3/6 490/3/6 494/3/6
f 491/4/6 492/4/6 495/4/6
f 492/4/6 493/4/6 495/4/6
f 493/4/6 494/4/6 495/4/6
f 495/4/6 494/4/6 496/4/6
f 497/7/6 498/7/6 504/7/6
f 498/5/6 499/5/6 505/5/6
f 504/7/6 498/7/6 505/7/6
f 499/1/6 500/1/6 506/1/6
f 505/5/6 499/5/6 506/5/6
f 500/2/6 501/2/6 507/2/6
f 506/1/6 500/1/6 507/1/6
f 501/7/6 502/7/6 508/7/6
f 507/2/6 501/2/6 508/2/6
f 502/5/6 503/5/6 509/5/6
f 508/7/6 502/7/6 509/7/6
f 509/5/6 503/5/6 510/5/6
